M48
; DRILL file {KiCad 9.0.7} date 2026-02-27T11:32:24+0100
; FORMAT={-:-/ absolute / metric / decimal}
; #@! TF.CreationDate,2026-02-27T11:32:24+01:00
; #@! TF.GenerationSoftware,Kicad,Pcbnew,9.0.7
; #@! TF.FileFunction,Plated,1,2,PTH
FMAT,2
METRIC
; #@! TA.AperFunction,Plated,PTH,ComponentDrill
T1C0.200
; #@! TA.AperFunction,Plated,PTH,ViaDrill
T2C0.300
; #@! TA.AperFunction,Plated,PTH,ViaDrill
T3C0.500
; #@! TA.AperFunction,Plated,PTH,ComponentDrill
T4C0.600
; #@! TA.AperFunction,Plated,PTH,ComponentDrill
T5C0.750
; #@! TA.AperFunction,Plated,PTH,ComponentDrill
T6C0.800
; #@! TA.AperFunction,Plated,PTH,ComponentDrill
T7C1.000
; #@! TA.AperFunction,Plated,PTH,ComponentDrill
T8C1.100
%
G90
G05
T1
X184.1Y-78.26
X184.1Y-79.66
X184.8Y-77.56
X184.8Y-78.96
X184.8Y-80.36
X185.5Y-78.26
X185.5Y-79.66
X186.2Y-77.56
X186.2Y-78.96
X186.2Y-80.36
X186.9Y-78.26
X186.9Y-79.66
T2
X162.5Y-107.5
X162.749Y-117.0
X163.0Y-110.5
X165.5Y-105.0
X166.5Y-102.5
X172.5Y-75.5
X173.5Y-108.5
X174.5Y-95.0
X174.5Y-99.5
X174.5Y-102.5
X174.5Y-103.5
X174.5Y-104.5
X175.0Y-82.5
X175.5Y-80.0
X176.5Y-109.0
X178.5Y-93.5
X179.5Y-106.5
X180.0Y-76.5
X180.0Y-99.0
X180.5Y-73.5
X181.5Y-97.0
X183.5Y-96.0
X185.5Y-85.0
X186.0Y-94.5
X186.5Y-82.5
X196.5Y-91.0
X198.0Y-111.5
X200.0Y-78.0
X200.5Y-114.5
X203.0Y-88.0
X206.5Y-94.5
X209.5Y-79.5
X210.5Y-74.0
X211.0Y-102.5
T3
X205.5Y-84.0
T5
X208.0Y-112.5
X208.0Y-114.5
T6
X195.0Y-96.46
X195.0Y-99.0
X195.0Y-101.54
T7
X162.0Y-73.14
X162.0Y-75.68
X162.0Y-78.22
X162.0Y-80.76
X162.0Y-83.3
X162.0Y-85.84
X162.0Y-88.38
X162.0Y-90.92
X162.0Y-93.46
X162.0Y-96.0
X213.0Y-76.38
X213.0Y-78.92
X213.0Y-81.46
X213.0Y-84.0
X213.0Y-94.0
X213.0Y-96.54
T8
X183.0Y-104.5
X183.0Y-107.04
X183.0Y-109.58
T4
G00X180.79Y-117.42
M15
G01X180.79Y-118.52
M16
G05
G00X180.79Y-121.85
M15
G01X180.79Y-122.45
M16
G05
G00X189.43Y-117.42
M15
G01X189.43Y-118.52
M16
G05
G00X189.43Y-121.85
M15
G01X189.43Y-122.45
M16
G05
M30
