%TF.GenerationSoftware,KiCad,Pcbnew,9.0.7*%
%TF.CreationDate,2026-02-27T11:31:39+01:00*%
%TF.ProjectId,X4CMoscatel,5834434d-6f73-4636-9174-656c2e6b6963,rev?*%
%TF.SameCoordinates,Original*%
%TF.FileFunction,Paste,Top*%
%TF.FilePolarity,Positive*%
%FSLAX46Y46*%
G04 Gerber Fmt 4.6, Leading zero omitted, Abs format (unit mm)*
G04 Created by KiCad (PCBNEW 9.0.7) date 2026-02-27 11:31:39*
%MOMM*%
%LPD*%
G01*
G04 APERTURE LIST*
G04 Aperture macros list*
%AMRoundRect*
0 Rectangle with rounded corners*
0 $1 Rounding radius*
0 $2 $3 $4 $5 $6 $7 $8 $9 X,Y pos of 4 corners*
0 Add a 4 corners polygon primitive as box body*
4,1,4,$2,$3,$4,$5,$6,$7,$8,$9,$2,$3,0*
0 Add four circle primitives for the rounded corners*
1,1,$1+$1,$2,$3*
1,1,$1+$1,$4,$5*
1,1,$1+$1,$6,$7*
1,1,$1+$1,$8,$9*
0 Add four rect primitives between the rounded corners*
20,1,$1+$1,$2,$3,$4,$5,0*
20,1,$1+$1,$4,$5,$6,$7,0*
20,1,$1+$1,$6,$7,$8,$9,0*
20,1,$1+$1,$8,$9,$2,$3,0*%
G04 Aperture macros list end*
%ADD10RoundRect,0.250000X-0.250000X-0.475000X0.250000X-0.475000X0.250000X0.475000X-0.250000X0.475000X0*%
%ADD11RoundRect,0.250000X0.475000X-0.250000X0.475000X0.250000X-0.475000X0.250000X-0.475000X-0.250000X0*%
%ADD12R,0.600000X1.450000*%
%ADD13R,0.300000X1.450000*%
%ADD14RoundRect,0.250000X0.450000X-0.262500X0.450000X0.262500X-0.450000X0.262500X-0.450000X-0.262500X0*%
%ADD15RoundRect,0.243750X0.243750X0.456250X-0.243750X0.456250X-0.243750X-0.456250X0.243750X-0.456250X0*%
%ADD16RoundRect,0.250000X0.262500X0.450000X-0.262500X0.450000X-0.262500X-0.450000X0.262500X-0.450000X0*%
%ADD17RoundRect,0.150000X-0.150000X0.587500X-0.150000X-0.587500X0.150000X-0.587500X0.150000X0.587500X0*%
%ADD18RoundRect,0.250000X-0.262500X-0.450000X0.262500X-0.450000X0.262500X0.450000X-0.262500X0.450000X0*%
%ADD19R,1.100000X0.850000*%
%ADD20R,1.100000X0.750000*%
%ADD21R,1.000000X1.200000*%
%ADD22R,1.350000X1.550000*%
%ADD23R,1.350000X1.900000*%
%ADD24R,1.800000X1.170000*%
%ADD25RoundRect,0.200000X-0.200000X-0.800000X0.200000X-0.800000X0.200000X0.800000X-0.200000X0.800000X0*%
%ADD26R,0.710000X0.580000*%
%ADD27R,0.750000X0.300000*%
%ADD28RoundRect,0.250000X-0.450000X0.262500X-0.450000X-0.262500X0.450000X-0.262500X0.450000X0.262500X0*%
%ADD29RoundRect,0.250000X-0.650000X1.000000X-0.650000X-1.000000X0.650000X-1.000000X0.650000X1.000000X0*%
%ADD30RoundRect,0.150000X-0.150000X0.512500X-0.150000X-0.512500X0.150000X-0.512500X0.150000X0.512500X0*%
%ADD31R,0.900000X0.900000*%
%ADD32R,1.500000X0.900000*%
%ADD33R,0.900000X1.500000*%
G04 APERTURE END LIST*
D10*
%TO.C,C5*%
X207550000Y-95500000D03*
X209450000Y-95500000D03*
%TD*%
%TO.C,C3*%
X164050000Y-116500000D03*
X165950000Y-116500000D03*
%TD*%
D11*
%TO.C,C4*%
X209500000Y-87400000D03*
X209500000Y-85500000D03*
%TD*%
D12*
%TO.C,J3*%
X181860000Y-117055000D03*
X182660000Y-117055000D03*
D13*
X183860000Y-117055000D03*
X184860000Y-117055000D03*
X185360000Y-117055000D03*
X186360000Y-117055000D03*
D12*
X187560000Y-117055000D03*
X188360000Y-117055000D03*
X188360000Y-117055000D03*
X187560000Y-117055000D03*
D13*
X186860000Y-117055000D03*
X185860000Y-117055000D03*
X184360000Y-117055000D03*
X183360000Y-117055000D03*
D12*
X182660000Y-117055000D03*
X181860000Y-117055000D03*
%TD*%
D14*
%TO.C,R3*%
X173000000Y-78412500D03*
X173000000Y-76587500D03*
%TD*%
D15*
%TO.C,D2*%
X203437500Y-78000000D03*
X201562500Y-78000000D03*
%TD*%
D10*
%TO.C,C1*%
X208050000Y-98500000D03*
X209950000Y-98500000D03*
%TD*%
D16*
%TO.C,R10*%
X210000000Y-91500000D03*
X208175000Y-91500000D03*
%TD*%
D17*
%TO.C,D4*%
X205450000Y-90125000D03*
X203550000Y-90125000D03*
X204500000Y-92000000D03*
%TD*%
D18*
%TO.C,R7*%
X189087500Y-114000000D03*
X190912500Y-114000000D03*
%TD*%
D19*
%TO.C,J2*%
X160550000Y-110230000D03*
X160550000Y-109130000D03*
X160550000Y-108030000D03*
X160550000Y-106930000D03*
X160550000Y-105830000D03*
X160550000Y-104730000D03*
X160550000Y-103630000D03*
D20*
X160550000Y-102580000D03*
D21*
X166700000Y-112865000D03*
X170400000Y-112865000D03*
D22*
X160675000Y-112690000D03*
D23*
X171375000Y-109365000D03*
X171375000Y-103395000D03*
D24*
X160900000Y-101370000D03*
%TD*%
D18*
%TO.C,R8*%
X208087500Y-101500000D03*
X209912500Y-101500000D03*
%TD*%
D16*
%TO.C,R2*%
X181412500Y-114000000D03*
X179587500Y-114000000D03*
%TD*%
%TO.C,R5*%
X208000000Y-78000000D03*
X206175000Y-78000000D03*
%TD*%
D18*
%TO.C,R9*%
X203175000Y-101500000D03*
X205000000Y-101500000D03*
%TD*%
D25*
%TO.C,SW1*%
X166400000Y-81000000D03*
X170600000Y-81000000D03*
%TD*%
D26*
%TO.C,U2*%
X202562500Y-97137500D03*
X202562500Y-97862500D03*
X203437500Y-97137500D03*
X203437500Y-97862500D03*
D27*
X201550000Y-96750000D03*
X201550000Y-97250000D03*
X201550000Y-97750000D03*
X201550000Y-98250000D03*
X204450000Y-98250000D03*
X204450000Y-97750000D03*
X204450000Y-97250000D03*
X204450000Y-96750000D03*
%TD*%
D28*
%TO.C,R1*%
X176000000Y-76675000D03*
X176000000Y-78500000D03*
%TD*%
D25*
%TO.C,SW2*%
X166300000Y-74000000D03*
X170500000Y-74000000D03*
%TD*%
D16*
%TO.C,R4*%
X208412500Y-106000000D03*
X206587500Y-106000000D03*
%TD*%
%TO.C,R6*%
X208000000Y-74000000D03*
X206175000Y-74000000D03*
%TD*%
D15*
%TO.C,D3*%
X203500000Y-74000000D03*
X201625000Y-74000000D03*
%TD*%
D11*
%TO.C,C2*%
X187500000Y-108400000D03*
X187500000Y-106500000D03*
%TD*%
D29*
%TO.C,D1*%
X194500000Y-111000000D03*
X194500000Y-115000000D03*
%TD*%
D30*
%TO.C,U4*%
X204587500Y-107000000D03*
X203637500Y-107000000D03*
X202687500Y-107000000D03*
X202687500Y-109275000D03*
X204587500Y-109275000D03*
%TD*%
D31*
%TO.C,U1*%
X184100000Y-77560000D03*
X184100000Y-78960000D03*
X184100000Y-80360000D03*
X185500000Y-77560000D03*
X185500000Y-78960000D03*
X185500000Y-80360000D03*
X186900000Y-77560000D03*
X186900000Y-78960000D03*
X186900000Y-80360000D03*
D32*
X178250000Y-71240000D03*
X178250000Y-72510000D03*
X178250000Y-73780000D03*
X178250000Y-75050000D03*
X178250000Y-76320000D03*
X178250000Y-77590000D03*
X178250000Y-78860000D03*
X178250000Y-80130000D03*
X178250000Y-81400000D03*
X178250000Y-82670000D03*
X178250000Y-83940000D03*
X178250000Y-85210000D03*
X178250000Y-86480000D03*
X178250000Y-87750000D03*
D33*
X180015000Y-89000000D03*
X181285000Y-89000000D03*
X182555000Y-89000000D03*
X183825000Y-89000000D03*
X185095000Y-89000000D03*
X186365000Y-89000000D03*
X187635000Y-89000000D03*
X188905000Y-89000000D03*
X190175000Y-89000000D03*
X191445000Y-89000000D03*
X192715000Y-89000000D03*
X193985000Y-89000000D03*
D32*
X195750000Y-87750000D03*
X195750000Y-86480000D03*
X195750000Y-85210000D03*
X195750000Y-83940000D03*
X195750000Y-82670000D03*
X195750000Y-81400000D03*
X195750000Y-80130000D03*
X195750000Y-78860000D03*
X195750000Y-77590000D03*
X195750000Y-76320000D03*
X195750000Y-75050000D03*
X195750000Y-73780000D03*
X195750000Y-72510000D03*
X195750000Y-71240000D03*
%TD*%
M02*
