%TF.GenerationSoftware,KiCad,Pcbnew,9.0.7*%
%TF.CreationDate,2026-02-27T11:31:39+01:00*%
%TF.ProjectId,X4CMoscatel,5834434d-6f73-4636-9174-656c2e6b6963,rev?*%
%TF.SameCoordinates,Original*%
%TF.FileFunction,Copper,L2,Bot*%
%TF.FilePolarity,Positive*%
%FSLAX46Y46*%
G04 Gerber Fmt 4.6, Leading zero omitted, Abs format (unit mm)*
G04 Created by KiCad (PCBNEW 9.0.7) date 2026-02-27 11:31:39*
%MOMM*%
%LPD*%
G01*
G04 APERTURE LIST*
G04 Aperture macros list*
%AMRoundRect*
0 Rectangle with rounded corners*
0 $1 Rounding radius*
0 $2 $3 $4 $5 $6 $7 $8 $9 X,Y pos of 4 corners*
0 Add a 4 corners polygon primitive as box body*
4,1,4,$2,$3,$4,$5,$6,$7,$8,$9,$2,$3,0*
0 Add four circle primitives for the rounded corners*
1,1,$1+$1,$2,$3*
1,1,$1+$1,$4,$5*
1,1,$1+$1,$6,$7*
1,1,$1+$1,$8,$9*
0 Add four rect primitives between the rounded corners*
20,1,$1+$1,$2,$3,$4,$5,0*
20,1,$1+$1,$4,$5,$6,$7,0*
20,1,$1+$1,$6,$7,$8,$9,0*
20,1,$1+$1,$8,$9,$2,$3,0*%
G04 Aperture macros list end*
%TA.AperFunction,ComponentPad*%
%ADD10R,1.500000X1.500000*%
%TD*%
%TA.AperFunction,ComponentPad*%
%ADD11C,1.600000*%
%TD*%
%TA.AperFunction,HeatsinkPad*%
%ADD12O,1.000000X2.100000*%
%TD*%
%TA.AperFunction,HeatsinkPad*%
%ADD13O,1.000000X1.600000*%
%TD*%
%TA.AperFunction,ComponentPad*%
%ADD14R,1.700000X1.700000*%
%TD*%
%TA.AperFunction,ComponentPad*%
%ADD15C,1.700000*%
%TD*%
%TA.AperFunction,ComponentPad*%
%ADD16R,2.000000X1.905000*%
%TD*%
%TA.AperFunction,ComponentPad*%
%ADD17O,2.000000X1.905000*%
%TD*%
%TA.AperFunction,ComponentPad*%
%ADD18RoundRect,0.250000X0.625000X-0.350000X0.625000X0.350000X-0.625000X0.350000X-0.625000X-0.350000X0*%
%TD*%
%TA.AperFunction,ComponentPad*%
%ADD19O,1.750000X1.200000*%
%TD*%
%TA.AperFunction,HeatsinkPad*%
%ADD20C,0.600000*%
%TD*%
%TA.AperFunction,ViaPad*%
%ADD21C,0.600000*%
%TD*%
%TA.AperFunction,ViaPad*%
%ADD22C,1.000000*%
%TD*%
%TA.AperFunction,Conductor*%
%ADD23C,0.200000*%
%TD*%
G04 APERTURE END LIST*
D10*
%TO.P,SW3,1,B*%
%TO.N,Net-(J4-Pin_1)*%
X195000000Y-99000000D03*
D11*
%TO.P,SW3,2,C*%
%TO.N,Net-(D1-K)*%
X195000000Y-101540000D03*
%TO.P,SW3,3,A*%
%TO.N,GND*%
X195000000Y-96460000D03*
%TD*%
D12*
%TO.P,J3,S1,SHIELD*%
%TO.N,GND*%
X180790000Y-117970000D03*
D13*
X180790000Y-122150000D03*
D12*
X189430000Y-117970000D03*
D13*
X189430000Y-122150000D03*
%TD*%
D14*
%TO.P,J6,1,Pin_1*%
%TO.N,GND*%
X213000000Y-94000000D03*
D15*
%TO.P,J6,2,Pin_2*%
%TO.N,Net-(J6-Pin_2)*%
X213000000Y-96540000D03*
%TD*%
D14*
%TO.P,J1,1,Pin_1*%
%TO.N,GND*%
X213000000Y-76380000D03*
D15*
%TO.P,J1,2,Pin_2*%
%TO.N,/GPS/TX*%
X213000000Y-78920000D03*
%TO.P,J1,3,Pin_3*%
%TO.N,/GPS/RX*%
X213000000Y-81460000D03*
%TO.P,J1,4,Pin_4*%
%TO.N,3V3*%
X213000000Y-84000000D03*
%TD*%
D16*
%TO.P,U3,1,GND*%
%TO.N,GND*%
X183000000Y-104500000D03*
D17*
%TO.P,U3,2,VO*%
%TO.N,3V3*%
X183000000Y-107040000D03*
%TO.P,U3,3,VI*%
%TO.N,Net-(D1-K)*%
X183000000Y-109580000D03*
%TD*%
D18*
%TO.P,J4,1,Pin_1*%
%TO.N,Net-(J4-Pin_1)*%
X208000000Y-114500000D03*
D19*
%TO.P,J4,2,Pin_2*%
%TO.N,GND*%
X208000000Y-112500000D03*
%TD*%
D14*
%TO.P,J5,1,VCC*%
%TO.N,3V3*%
X162000000Y-96000000D03*
D15*
%TO.P,J5,2,GND*%
%TO.N,GND*%
X162000000Y-93460000D03*
%TO.P,J5,3,SCL*%
%TO.N,/IMU/IO9*%
X162000000Y-90920000D03*
%TO.P,J5,4,SDA*%
%TO.N,/IMU/IO8*%
X162000000Y-88380000D03*
%TO.P,J5,5,NCS*%
%TO.N,3V3*%
X162000000Y-85840000D03*
%TO.P,J5,6,AD0*%
%TO.N,GND*%
X162000000Y-83300000D03*
%TO.P,J5,7,INT*%
%TO.N,/IMU/IO7*%
X162000000Y-80760000D03*
%TO.P,J5,8,FSY*%
%TO.N,unconnected-(J5-FSY-Pad8)*%
X162000000Y-78220000D03*
%TO.P,J5,9,ACL*%
%TO.N,unconnected-(J5-ACL-Pad9)*%
X162000000Y-75680000D03*
%TO.P,J5,10,ADA*%
%TO.N,unconnected-(J5-ADA-Pad10)*%
X162000000Y-73140000D03*
%TD*%
D20*
%TO.P,U1,41,GND*%
%TO.N,GND*%
X184100000Y-78260000D03*
X184100000Y-79660000D03*
X184800000Y-77560000D03*
X184800000Y-78960000D03*
X184800000Y-80360000D03*
X185500000Y-78260000D03*
X185500000Y-79660000D03*
X186200000Y-77560000D03*
X186200000Y-78960000D03*
X186200000Y-80360000D03*
X186900000Y-78260000D03*
X186900000Y-79660000D03*
%TD*%
D21*
%TO.N,GND*%
X179500000Y-106500000D03*
X166500000Y-102500000D03*
X165500000Y-105000000D03*
X176500000Y-109000000D03*
X198000000Y-111500000D03*
X210500000Y-74000000D03*
X209500000Y-79500000D03*
X200500000Y-114500000D03*
%TO.N,3V3*%
X211000000Y-102500000D03*
X162500000Y-107500000D03*
X203000000Y-88000000D03*
X206500000Y-94500000D03*
D22*
X205500000Y-84000000D03*
D21*
X162749000Y-117000000D03*
X175500000Y-80000000D03*
X172500000Y-75500000D03*
X163000000Y-110500000D03*
X180500000Y-73500000D03*
X200000000Y-78000000D03*
%TO.N,/MicroSD/IO13*%
X174500000Y-99500000D03*
X186000000Y-94500000D03*
%TO.N,/MicroSD/IO11*%
X174500000Y-103500000D03*
X181500000Y-97000000D03*
%TO.N,/MicroSD/IO12*%
X183500000Y-96000000D03*
X174500000Y-102500000D03*
%TO.N,/MicroSD/IO10*%
X180000000Y-99000000D03*
X174500000Y-104500000D03*
%TO.N,Net-(U1-IO0)*%
X185500000Y-85000000D03*
X175000000Y-82500000D03*
%TO.N,/IMU/IO9*%
X174500000Y-95000000D03*
X178500000Y-93500000D03*
%TO.N,/MicroSD/IO4*%
X180000000Y-76500000D03*
X173500000Y-108500000D03*
%TO.N,/Piezoel\u00E9ctrico/GPIO5*%
X186500000Y-82500000D03*
X196500000Y-91000000D03*
%TD*%
D23*
%TO.N,GND*%
X200500000Y-114000000D02*
X198000000Y-111500000D01*
X209500000Y-75000000D02*
X210500000Y-74000000D01*
X179500000Y-106500000D02*
X179000000Y-106500000D01*
X166500000Y-104000000D02*
X166500000Y-102500000D01*
X200500000Y-114500000D02*
X200500000Y-114000000D01*
X179000000Y-106500000D02*
X176500000Y-109000000D01*
X165500000Y-105000000D02*
X166500000Y-104000000D01*
X209500000Y-79500000D02*
X209500000Y-75000000D01*
%TO.N,3V3*%
X163000000Y-108000000D02*
X162500000Y-107500000D01*
X163000000Y-110500000D02*
X163000000Y-108000000D01*
%TO.N,/MicroSD/IO13*%
X179500000Y-94500000D02*
X186000000Y-94500000D01*
X174500000Y-99500000D02*
X179500000Y-94500000D01*
%TO.N,/MicroSD/IO11*%
X174500000Y-103500000D02*
X181000000Y-97000000D01*
X181000000Y-97000000D02*
X181500000Y-97000000D01*
%TO.N,/MicroSD/IO12*%
X181000000Y-96000000D02*
X183500000Y-96000000D01*
X174500000Y-102500000D02*
X181000000Y-96000000D01*
%TO.N,/MicroSD/IO10*%
X174500000Y-104500000D02*
X180000000Y-99000000D01*
%TO.N,Net-(U1-IO0)*%
X175000000Y-82500000D02*
X177500000Y-85000000D01*
X177500000Y-85000000D02*
X185500000Y-85000000D01*
%TO.N,/IMU/IO9*%
X177000000Y-95000000D02*
X178500000Y-93500000D01*
X174500000Y-95000000D02*
X177000000Y-95000000D01*
%TO.N,/MicroSD/IO4*%
X173500000Y-83000000D02*
X173500000Y-108500000D01*
X180000000Y-76500000D02*
X173500000Y-83000000D01*
%TO.N,/Piezoel\u00E9ctrico/GPIO5*%
X196500000Y-91000000D02*
X188000000Y-82500000D01*
X188000000Y-82500000D02*
X186500000Y-82500000D01*
%TD*%
%TA.AperFunction,Conductor*%
%TO.N,3V3*%
G36*
X211503736Y-70000726D02*
G01*
X211793796Y-70018271D01*
X211808659Y-70020076D01*
X212090798Y-70071780D01*
X212105335Y-70075363D01*
X212379172Y-70160695D01*
X212393163Y-70166000D01*
X212654743Y-70283727D01*
X212667989Y-70290680D01*
X212913465Y-70439075D01*
X212925776Y-70447573D01*
X213151573Y-70624473D01*
X213162781Y-70634403D01*
X213365596Y-70837218D01*
X213375526Y-70848426D01*
X213495481Y-71001538D01*
X213552422Y-71074217D01*
X213560928Y-71086540D01*
X213709316Y-71332004D01*
X213716275Y-71345263D01*
X213833997Y-71606831D01*
X213839306Y-71620832D01*
X213924635Y-71894663D01*
X213928219Y-71909201D01*
X213979923Y-72191340D01*
X213981728Y-72206205D01*
X213999274Y-72496263D01*
X213999500Y-72503750D01*
X213999500Y-74905500D01*
X213979815Y-74972539D01*
X213927011Y-75018294D01*
X213875500Y-75029500D01*
X212102129Y-75029500D01*
X212102123Y-75029501D01*
X212042516Y-75035908D01*
X211907671Y-75086202D01*
X211907664Y-75086206D01*
X211792455Y-75172452D01*
X211792452Y-75172455D01*
X211706206Y-75287664D01*
X211706202Y-75287671D01*
X211655908Y-75422517D01*
X211649501Y-75482116D01*
X211649500Y-75482135D01*
X211649500Y-77277870D01*
X211649501Y-77277876D01*
X211655908Y-77337483D01*
X211706202Y-77472328D01*
X211706206Y-77472335D01*
X211792452Y-77587544D01*
X211792455Y-77587547D01*
X211907664Y-77673793D01*
X211907671Y-77673797D01*
X212039082Y-77722810D01*
X212095016Y-77764681D01*
X212119433Y-77830145D01*
X212104582Y-77898418D01*
X212083431Y-77926673D01*
X211969889Y-78040215D01*
X211844951Y-78212179D01*
X211748444Y-78401585D01*
X211682753Y-78603760D01*
X211649500Y-78813713D01*
X211649500Y-79026286D01*
X211669048Y-79149711D01*
X211682754Y-79236243D01*
X211742835Y-79421153D01*
X211748444Y-79438414D01*
X211844951Y-79627820D01*
X211969890Y-79799786D01*
X212120213Y-79950109D01*
X212292182Y-80075050D01*
X212300946Y-80079516D01*
X212351742Y-80127491D01*
X212368536Y-80195312D01*
X212345998Y-80261447D01*
X212300946Y-80300484D01*
X212292182Y-80304949D01*
X212120213Y-80429890D01*
X211969890Y-80580213D01*
X211844951Y-80752179D01*
X211748444Y-80941585D01*
X211682753Y-81143760D01*
X211649500Y-81353713D01*
X211649500Y-81566286D01*
X211682753Y-81776240D01*
X211702717Y-81837682D01*
X211704712Y-81907523D01*
X211668632Y-81967356D01*
X211605931Y-81998184D01*
X211584786Y-82000000D01*
X207000000Y-82000000D01*
X207000000Y-87500000D01*
X213875500Y-87500000D01*
X213942539Y-87519685D01*
X213988294Y-87572489D01*
X213999500Y-87624000D01*
X213999500Y-92525500D01*
X213979815Y-92592539D01*
X213927011Y-92638294D01*
X213875500Y-92649500D01*
X212102129Y-92649500D01*
X212102123Y-92649501D01*
X212042516Y-92655908D01*
X211907671Y-92706202D01*
X211907664Y-92706206D01*
X211792455Y-92792452D01*
X211792452Y-92792455D01*
X211706206Y-92907664D01*
X211706202Y-92907671D01*
X211655908Y-93042517D01*
X211649501Y-93102116D01*
X211649500Y-93102135D01*
X211649500Y-94897870D01*
X211649501Y-94897876D01*
X211655908Y-94957483D01*
X211706202Y-95092328D01*
X211706206Y-95092335D01*
X211792452Y-95207544D01*
X211792455Y-95207547D01*
X211907664Y-95293793D01*
X211907671Y-95293797D01*
X212039082Y-95342810D01*
X212095016Y-95384681D01*
X212119433Y-95450145D01*
X212104582Y-95518418D01*
X212083431Y-95546673D01*
X211969889Y-95660215D01*
X211844951Y-95832179D01*
X211748444Y-96021585D01*
X211682753Y-96223760D01*
X211649500Y-96433713D01*
X211649500Y-96646286D01*
X211670244Y-96777262D01*
X211682754Y-96856243D01*
X211716214Y-96959223D01*
X211748444Y-97058414D01*
X211844951Y-97247820D01*
X211969890Y-97419786D01*
X212120213Y-97570109D01*
X212292179Y-97695048D01*
X212292181Y-97695049D01*
X212292184Y-97695051D01*
X212481588Y-97791557D01*
X212683757Y-97857246D01*
X212893713Y-97890500D01*
X212893714Y-97890500D01*
X213106286Y-97890500D01*
X213106287Y-97890500D01*
X213316243Y-97857246D01*
X213518412Y-97791557D01*
X213707816Y-97695051D01*
X213802615Y-97626176D01*
X213868421Y-97602696D01*
X213936475Y-97618521D01*
X213985170Y-97668627D01*
X213999500Y-97726494D01*
X213999500Y-121996249D01*
X213999274Y-122003736D01*
X213981728Y-122293794D01*
X213979923Y-122308659D01*
X213928219Y-122590798D01*
X213924635Y-122605336D01*
X213839306Y-122879167D01*
X213833997Y-122893168D01*
X213716275Y-123154736D01*
X213709316Y-123167995D01*
X213560928Y-123413459D01*
X213552422Y-123425782D01*
X213375526Y-123651573D01*
X213365596Y-123662781D01*
X213162781Y-123865596D01*
X213151573Y-123875526D01*
X212925782Y-124052422D01*
X212913459Y-124060928D01*
X212667995Y-124209316D01*
X212654736Y-124216275D01*
X212393168Y-124333997D01*
X212379167Y-124339306D01*
X212105336Y-124424635D01*
X212090798Y-124428219D01*
X211808659Y-124479923D01*
X211793794Y-124481728D01*
X211503736Y-124499274D01*
X211496249Y-124499500D01*
X162503751Y-124499500D01*
X162496264Y-124499274D01*
X162206205Y-124481728D01*
X162191340Y-124479923D01*
X161909201Y-124428219D01*
X161894663Y-124424635D01*
X161620832Y-124339306D01*
X161606831Y-124333997D01*
X161345263Y-124216275D01*
X161332004Y-124209316D01*
X161086540Y-124060928D01*
X161074217Y-124052422D01*
X160848426Y-123875526D01*
X160837218Y-123865596D01*
X160634403Y-123662781D01*
X160624473Y-123651573D01*
X160447573Y-123425776D01*
X160439075Y-123413465D01*
X160290680Y-123167989D01*
X160283727Y-123154743D01*
X160166000Y-122893163D01*
X160160693Y-122879167D01*
X160111949Y-122722743D01*
X160075363Y-122605335D01*
X160071780Y-122590798D01*
X160020075Y-122308657D01*
X160018271Y-122293794D01*
X160000726Y-122003736D01*
X160000500Y-121996249D01*
X160000500Y-121378711D01*
X161149500Y-121378711D01*
X161149500Y-121621288D01*
X161181161Y-121861785D01*
X161243947Y-122096104D01*
X161336773Y-122320205D01*
X161336776Y-122320212D01*
X161458064Y-122530289D01*
X161458066Y-122530292D01*
X161458067Y-122530293D01*
X161605733Y-122722736D01*
X161605739Y-122722743D01*
X161777256Y-122894260D01*
X161777262Y-122894265D01*
X161969711Y-123041936D01*
X162179788Y-123163224D01*
X162403900Y-123256054D01*
X162638211Y-123318838D01*
X162818586Y-123342584D01*
X162878711Y-123350500D01*
X162878712Y-123350500D01*
X163121289Y-123350500D01*
X163169388Y-123344167D01*
X163361789Y-123318838D01*
X163596100Y-123256054D01*
X163820212Y-123163224D01*
X164030289Y-123041936D01*
X164222738Y-122894265D01*
X164394265Y-122722738D01*
X164527929Y-122548543D01*
X179789499Y-122548543D01*
X179827947Y-122741829D01*
X179827950Y-122741839D01*
X179903364Y-122923907D01*
X179903371Y-122923920D01*
X180012860Y-123087781D01*
X180012863Y-123087785D01*
X180152214Y-123227136D01*
X180152218Y-123227139D01*
X180316079Y-123336628D01*
X180316092Y-123336635D01*
X180498160Y-123412049D01*
X180498165Y-123412051D01*
X180498169Y-123412051D01*
X180498170Y-123412052D01*
X180691456Y-123450500D01*
X180691459Y-123450500D01*
X180888543Y-123450500D01*
X181042486Y-123419878D01*
X181081835Y-123412051D01*
X181263914Y-123336632D01*
X181427782Y-123227139D01*
X181567139Y-123087782D01*
X181676632Y-122923914D01*
X181752051Y-122741835D01*
X181780628Y-122598170D01*
X181790500Y-122548543D01*
X188429499Y-122548543D01*
X188467947Y-122741829D01*
X188467950Y-122741839D01*
X188543364Y-122923907D01*
X188543371Y-122923920D01*
X188652860Y-123087781D01*
X188652863Y-123087785D01*
X188792214Y-123227136D01*
X188792218Y-123227139D01*
X188956079Y-123336628D01*
X188956092Y-123336635D01*
X189138160Y-123412049D01*
X189138165Y-123412051D01*
X189138169Y-123412051D01*
X189138170Y-123412052D01*
X189331456Y-123450500D01*
X189331459Y-123450500D01*
X189528543Y-123450500D01*
X189682486Y-123419878D01*
X189721835Y-123412051D01*
X189903914Y-123336632D01*
X190067782Y-123227139D01*
X190207139Y-123087782D01*
X190316632Y-122923914D01*
X190392051Y-122741835D01*
X190420628Y-122598170D01*
X190430500Y-122548543D01*
X190430500Y-121751456D01*
X190392052Y-121558170D01*
X190392051Y-121558169D01*
X190392051Y-121558165D01*
X190317720Y-121378712D01*
X190317720Y-121378711D01*
X209149500Y-121378711D01*
X209149500Y-121621288D01*
X209181161Y-121861785D01*
X209243947Y-122096104D01*
X209336773Y-122320205D01*
X209336776Y-122320212D01*
X209458064Y-122530289D01*
X209458066Y-122530292D01*
X209458067Y-122530293D01*
X209605733Y-122722736D01*
X209605739Y-122722743D01*
X209777256Y-122894260D01*
X209777262Y-122894265D01*
X209969711Y-123041936D01*
X210179788Y-123163224D01*
X210403900Y-123256054D01*
X210638211Y-123318838D01*
X210818586Y-123342584D01*
X210878711Y-123350500D01*
X210878712Y-123350500D01*
X211121289Y-123350500D01*
X211169388Y-123344167D01*
X211361789Y-123318838D01*
X211596100Y-123256054D01*
X211820212Y-123163224D01*
X212030289Y-123041936D01*
X212222738Y-122894265D01*
X212394265Y-122722738D01*
X212541936Y-122530289D01*
X212663224Y-122320212D01*
X212756054Y-122096100D01*
X212818838Y-121861789D01*
X212850500Y-121621288D01*
X212850500Y-121378712D01*
X212818838Y-121138211D01*
X212756054Y-120903900D01*
X212663224Y-120679788D01*
X212541936Y-120469711D01*
X212394265Y-120277262D01*
X212394260Y-120277256D01*
X212222743Y-120105739D01*
X212222736Y-120105733D01*
X212030293Y-119958067D01*
X212030292Y-119958066D01*
X212030289Y-119958064D01*
X211820212Y-119836776D01*
X211820205Y-119836773D01*
X211596104Y-119743947D01*
X211361785Y-119681161D01*
X211121289Y-119649500D01*
X211121288Y-119649500D01*
X210878712Y-119649500D01*
X210878711Y-119649500D01*
X210638214Y-119681161D01*
X210403895Y-119743947D01*
X210179794Y-119836773D01*
X210179785Y-119836777D01*
X209969706Y-119958067D01*
X209777263Y-120105733D01*
X209777256Y-120105739D01*
X209605739Y-120277256D01*
X209605733Y-120277263D01*
X209458067Y-120469706D01*
X209336777Y-120679785D01*
X209336773Y-120679794D01*
X209243947Y-120903895D01*
X209181161Y-121138214D01*
X209149500Y-121378711D01*
X190317720Y-121378711D01*
X190316635Y-121376092D01*
X190316628Y-121376079D01*
X190207139Y-121212218D01*
X190207136Y-121212214D01*
X190067785Y-121072863D01*
X190067781Y-121072860D01*
X189903920Y-120963371D01*
X189903907Y-120963364D01*
X189721839Y-120887950D01*
X189721829Y-120887947D01*
X189528543Y-120849500D01*
X189528541Y-120849500D01*
X189331459Y-120849500D01*
X189331457Y-120849500D01*
X189138170Y-120887947D01*
X189138160Y-120887950D01*
X188956092Y-120963364D01*
X188956079Y-120963371D01*
X188792218Y-121072860D01*
X188792214Y-121072863D01*
X188652863Y-121212214D01*
X188652860Y-121212218D01*
X188543371Y-121376079D01*
X188543364Y-121376092D01*
X188467950Y-121558160D01*
X188467947Y-121558170D01*
X188429500Y-121751456D01*
X188429500Y-121751459D01*
X188429500Y-122548541D01*
X188429500Y-122548543D01*
X188429499Y-122548543D01*
X181790500Y-122548543D01*
X181790500Y-121751456D01*
X181752052Y-121558170D01*
X181752051Y-121558169D01*
X181752051Y-121558165D01*
X181677720Y-121378712D01*
X181676635Y-121376092D01*
X181676628Y-121376079D01*
X181567139Y-121212218D01*
X181567136Y-121212214D01*
X181427785Y-121072863D01*
X181427781Y-121072860D01*
X181263920Y-120963371D01*
X181263907Y-120963364D01*
X181081839Y-120887950D01*
X181081829Y-120887947D01*
X180888543Y-120849500D01*
X180888541Y-120849500D01*
X180691459Y-120849500D01*
X180691457Y-120849500D01*
X180498170Y-120887947D01*
X180498160Y-120887950D01*
X180316092Y-120963364D01*
X180316079Y-120963371D01*
X180152218Y-121072860D01*
X180152214Y-121072863D01*
X180012863Y-121212214D01*
X180012860Y-121212218D01*
X179903371Y-121376079D01*
X179903364Y-121376092D01*
X179827950Y-121558160D01*
X179827947Y-121558170D01*
X179789500Y-121751456D01*
X179789500Y-121751459D01*
X179789500Y-122548541D01*
X179789500Y-122548543D01*
X179789499Y-122548543D01*
X164527929Y-122548543D01*
X164541936Y-122530289D01*
X164663224Y-122320212D01*
X164756054Y-122096100D01*
X164818838Y-121861789D01*
X164850500Y-121621288D01*
X164850500Y-121378712D01*
X164818838Y-121138211D01*
X164756054Y-120903900D01*
X164663224Y-120679788D01*
X164541936Y-120469711D01*
X164394265Y-120277262D01*
X164394260Y-120277256D01*
X164222743Y-120105739D01*
X164222736Y-120105733D01*
X164030293Y-119958067D01*
X164030292Y-119958066D01*
X164030289Y-119958064D01*
X163820212Y-119836776D01*
X163820205Y-119836773D01*
X163596104Y-119743947D01*
X163361785Y-119681161D01*
X163121289Y-119649500D01*
X163121288Y-119649500D01*
X162878712Y-119649500D01*
X162878711Y-119649500D01*
X162638214Y-119681161D01*
X162403895Y-119743947D01*
X162179794Y-119836773D01*
X162179785Y-119836777D01*
X161969706Y-119958067D01*
X161777263Y-120105733D01*
X161777256Y-120105739D01*
X161605739Y-120277256D01*
X161605733Y-120277263D01*
X161458067Y-120469706D01*
X161336777Y-120679785D01*
X161336773Y-120679794D01*
X161243947Y-120903895D01*
X161181161Y-121138214D01*
X161149500Y-121378711D01*
X160000500Y-121378711D01*
X160000500Y-118618543D01*
X179789499Y-118618543D01*
X179827947Y-118811829D01*
X179827950Y-118811839D01*
X179903364Y-118993907D01*
X179903371Y-118993920D01*
X180012860Y-119157781D01*
X180012863Y-119157785D01*
X180152214Y-119297136D01*
X180152218Y-119297139D01*
X180316079Y-119406628D01*
X180316092Y-119406635D01*
X180498160Y-119482049D01*
X180498165Y-119482051D01*
X180498169Y-119482051D01*
X180498170Y-119482052D01*
X180691456Y-119520500D01*
X180691459Y-119520500D01*
X180888543Y-119520500D01*
X181018582Y-119494632D01*
X181081835Y-119482051D01*
X181263914Y-119406632D01*
X181427782Y-119297139D01*
X181567139Y-119157782D01*
X181676632Y-118993914D01*
X181676631Y-118993914D01*
X181680017Y-118988848D01*
X181681474Y-118989821D01*
X181724595Y-118945903D01*
X181792729Y-118930426D01*
X181858414Y-118954242D01*
X181860502Y-118955809D01*
X181866632Y-118960512D01*
X181866635Y-118960515D01*
X181997865Y-119036281D01*
X182144234Y-119075500D01*
X182144236Y-119075500D01*
X182295764Y-119075500D01*
X182295766Y-119075500D01*
X182442135Y-119036281D01*
X182573365Y-118960515D01*
X182680515Y-118853365D01*
X182756281Y-118722135D01*
X182795500Y-118575766D01*
X182795500Y-118424234D01*
X187424500Y-118424234D01*
X187424500Y-118575766D01*
X187435962Y-118618543D01*
X187463719Y-118722136D01*
X187501602Y-118787750D01*
X187539485Y-118853365D01*
X187646635Y-118960515D01*
X187777865Y-119036281D01*
X187924234Y-119075500D01*
X187924236Y-119075500D01*
X188075764Y-119075500D01*
X188075766Y-119075500D01*
X188222135Y-119036281D01*
X188353365Y-118960515D01*
X188353374Y-118960505D01*
X188359488Y-118955815D01*
X188424656Y-118930617D01*
X188493101Y-118944650D01*
X188539025Y-118989488D01*
X188539983Y-118988849D01*
X188543009Y-118993378D01*
X188543094Y-118993461D01*
X188543228Y-118993706D01*
X188652860Y-119157781D01*
X188652863Y-119157785D01*
X188792214Y-119297136D01*
X188792218Y-119297139D01*
X188956079Y-119406628D01*
X188956092Y-119406635D01*
X189138160Y-119482049D01*
X189138165Y-119482051D01*
X189138169Y-119482051D01*
X189138170Y-119482052D01*
X189331456Y-119520500D01*
X189331459Y-119520500D01*
X189528543Y-119520500D01*
X189658582Y-119494632D01*
X189721835Y-119482051D01*
X189903914Y-119406632D01*
X190067782Y-119297139D01*
X190207139Y-119157782D01*
X190316632Y-118993914D01*
X190392051Y-118811835D01*
X190404632Y-118748582D01*
X190430500Y-118618543D01*
X190430500Y-117321456D01*
X190392052Y-117128170D01*
X190392051Y-117128169D01*
X190392051Y-117128165D01*
X190392049Y-117128160D01*
X190316635Y-116946092D01*
X190316628Y-116946079D01*
X190207139Y-116782218D01*
X190207136Y-116782214D01*
X190067785Y-116642863D01*
X190067781Y-116642860D01*
X189903920Y-116533371D01*
X189903907Y-116533364D01*
X189721839Y-116457950D01*
X189721829Y-116457947D01*
X189528543Y-116419500D01*
X189528541Y-116419500D01*
X189331459Y-116419500D01*
X189331457Y-116419500D01*
X189138170Y-116457947D01*
X189138160Y-116457950D01*
X188956092Y-116533364D01*
X188956079Y-116533371D01*
X188792218Y-116642860D01*
X188792214Y-116642863D01*
X188652863Y-116782214D01*
X188652860Y-116782218D01*
X188543371Y-116946079D01*
X188543364Y-116946092D01*
X188467950Y-117128160D01*
X188467947Y-117128170D01*
X188429500Y-117321456D01*
X188429500Y-117868666D01*
X188409815Y-117935705D01*
X188357011Y-117981460D01*
X188287853Y-117991404D01*
X188243501Y-117976054D01*
X188222137Y-117963719D01*
X188117584Y-117935705D01*
X188075766Y-117924500D01*
X187924234Y-117924500D01*
X187777863Y-117963719D01*
X187646635Y-118039485D01*
X187646632Y-118039487D01*
X187539487Y-118146632D01*
X187539485Y-118146635D01*
X187463719Y-118277863D01*
X187424500Y-118424234D01*
X182795500Y-118424234D01*
X182756281Y-118277865D01*
X182680515Y-118146635D01*
X182573365Y-118039485D01*
X182490087Y-117991404D01*
X182442136Y-117963719D01*
X182337584Y-117935705D01*
X182295766Y-117924500D01*
X182144234Y-117924500D01*
X181997862Y-117963719D01*
X181976499Y-117976054D01*
X181908598Y-117992525D01*
X181842572Y-117969673D01*
X181799382Y-117914751D01*
X181790500Y-117868666D01*
X181790500Y-117321456D01*
X181752052Y-117128170D01*
X181752051Y-117128169D01*
X181752051Y-117128165D01*
X181752049Y-117128160D01*
X181676635Y-116946092D01*
X181676628Y-116946079D01*
X181567139Y-116782218D01*
X181567136Y-116782214D01*
X181427785Y-116642863D01*
X181427781Y-116642860D01*
X181263920Y-116533371D01*
X181263907Y-116533364D01*
X181081839Y-116457950D01*
X181081829Y-116457947D01*
X180888543Y-116419500D01*
X180888541Y-116419500D01*
X180691459Y-116419500D01*
X180691457Y-116419500D01*
X180498170Y-116457947D01*
X180498160Y-116457950D01*
X180316092Y-116533364D01*
X180316079Y-116533371D01*
X180152218Y-116642860D01*
X180152214Y-116642863D01*
X180012863Y-116782214D01*
X180012860Y-116782218D01*
X179903371Y-116946079D01*
X179903364Y-116946092D01*
X179827950Y-117128160D01*
X179827947Y-117128170D01*
X179789500Y-117321456D01*
X179789500Y-117321459D01*
X179789500Y-118618541D01*
X179789500Y-118618543D01*
X179789499Y-118618543D01*
X160000500Y-118618543D01*
X160000500Y-111421153D01*
X197199500Y-111421153D01*
X197199500Y-111578846D01*
X197230261Y-111733489D01*
X197230264Y-111733501D01*
X197290602Y-111879172D01*
X197290609Y-111879185D01*
X197378210Y-112010288D01*
X197378213Y-112010292D01*
X197489707Y-112121786D01*
X197489711Y-112121789D01*
X197620814Y-112209390D01*
X197620827Y-112209397D01*
X197766498Y-112269735D01*
X197766503Y-112269737D01*
X197831147Y-112282595D01*
X197921849Y-112300638D01*
X197983760Y-112333023D01*
X197985339Y-112334574D01*
X199726448Y-114075683D01*
X199759933Y-114137006D01*
X199754949Y-114206698D01*
X199753329Y-114210814D01*
X199730263Y-114266502D01*
X199730260Y-114266511D01*
X199699500Y-114421153D01*
X199699500Y-114578846D01*
X199730261Y-114733489D01*
X199730264Y-114733501D01*
X199790602Y-114879172D01*
X199790609Y-114879185D01*
X199878210Y-115010288D01*
X199878213Y-115010292D01*
X199989707Y-115121786D01*
X199989711Y-115121789D01*
X200120814Y-115209390D01*
X200120827Y-115209397D01*
X200266498Y-115269735D01*
X200266503Y-115269737D01*
X200421153Y-115300499D01*
X200421156Y-115300500D01*
X200421158Y-115300500D01*
X200578844Y-115300500D01*
X200578845Y-115300499D01*
X200733497Y-115269737D01*
X200879179Y-115209394D01*
X201010289Y-115121789D01*
X201121789Y-115010289D01*
X201209394Y-114879179D01*
X201269737Y-114733497D01*
X201300500Y-114578842D01*
X201300500Y-114421158D01*
X201300500Y-114421155D01*
X201300499Y-114421153D01*
X201269737Y-114266503D01*
X201214965Y-114134270D01*
X201209397Y-114120827D01*
X201209390Y-114120814D01*
X201121399Y-113989126D01*
X201102533Y-113928875D01*
X201101562Y-113929003D01*
X201100827Y-113923428D01*
X201100521Y-113922448D01*
X201100507Y-113920997D01*
X201100501Y-113920945D01*
X201100501Y-113920943D01*
X201059577Y-113768215D01*
X201019904Y-113699500D01*
X200980520Y-113631284D01*
X200868716Y-113519480D01*
X200864385Y-113515149D01*
X200864374Y-113515139D01*
X199762624Y-112413389D01*
X206624500Y-112413389D01*
X206624500Y-112586611D01*
X206651598Y-112757701D01*
X206705127Y-112922445D01*
X206783768Y-113076788D01*
X206885586Y-113216928D01*
X206885588Y-113216930D01*
X206993127Y-113324469D01*
X207026612Y-113385792D01*
X207021628Y-113455484D01*
X206979756Y-113511417D01*
X206970544Y-113517688D01*
X206906344Y-113557287D01*
X206782289Y-113681342D01*
X206690187Y-113830663D01*
X206690186Y-113830666D01*
X206635001Y-113997203D01*
X206635001Y-113997204D01*
X206635000Y-113997204D01*
X206624500Y-114099983D01*
X206624500Y-114900001D01*
X206624501Y-114900019D01*
X206635000Y-115002796D01*
X206635001Y-115002799D01*
X206674430Y-115121786D01*
X206690186Y-115169334D01*
X206782288Y-115318656D01*
X206906344Y-115442712D01*
X207055666Y-115534814D01*
X207222203Y-115589999D01*
X207324991Y-115600500D01*
X208675008Y-115600499D01*
X208777797Y-115589999D01*
X208944334Y-115534814D01*
X209093656Y-115442712D01*
X209217712Y-115318656D01*
X209309814Y-115169334D01*
X209364999Y-115002797D01*
X209375500Y-114900009D01*
X209375499Y-114099992D01*
X209364999Y-113997203D01*
X209309814Y-113830666D01*
X209217712Y-113681344D01*
X209093656Y-113557288D01*
X209093652Y-113557285D01*
X209029456Y-113517688D01*
X208982731Y-113465740D01*
X208971510Y-113396777D01*
X208999353Y-113332695D01*
X209006850Y-113324491D01*
X209114414Y-113216928D01*
X209216232Y-113076788D01*
X209294873Y-112922445D01*
X209348402Y-112757701D01*
X209375500Y-112586611D01*
X209375500Y-112413389D01*
X209348402Y-112242299D01*
X209294873Y-112077555D01*
X209216232Y-111923212D01*
X209114414Y-111783072D01*
X208991928Y-111660586D01*
X208851788Y-111558768D01*
X208697445Y-111480127D01*
X208532701Y-111426598D01*
X208532699Y-111426597D01*
X208532698Y-111426597D01*
X208401271Y-111405781D01*
X208361611Y-111399500D01*
X207638389Y-111399500D01*
X207598728Y-111405781D01*
X207467302Y-111426597D01*
X207302552Y-111480128D01*
X207148211Y-111558768D01*
X207068256Y-111616859D01*
X207008072Y-111660586D01*
X207008070Y-111660588D01*
X207008069Y-111660588D01*
X206885588Y-111783069D01*
X206885588Y-111783070D01*
X206885586Y-111783072D01*
X206841859Y-111843256D01*
X206783768Y-111923211D01*
X206705128Y-112077552D01*
X206651597Y-112242302D01*
X206636983Y-112334574D01*
X206624500Y-112413389D01*
X199762624Y-112413389D01*
X198834574Y-111485339D01*
X198801089Y-111424016D01*
X198800638Y-111421849D01*
X198769738Y-111266510D01*
X198769737Y-111266503D01*
X198769735Y-111266498D01*
X198709397Y-111120827D01*
X198709390Y-111120814D01*
X198621789Y-110989711D01*
X198621786Y-110989707D01*
X198510292Y-110878213D01*
X198510288Y-110878210D01*
X198379185Y-110790609D01*
X198379172Y-110790602D01*
X198233501Y-110730264D01*
X198233489Y-110730261D01*
X198078845Y-110699500D01*
X198078842Y-110699500D01*
X197921158Y-110699500D01*
X197921155Y-110699500D01*
X197766510Y-110730261D01*
X197766498Y-110730264D01*
X197620827Y-110790602D01*
X197620814Y-110790609D01*
X197489711Y-110878210D01*
X197489707Y-110878213D01*
X197378213Y-110989707D01*
X197378210Y-110989711D01*
X197290609Y-111120814D01*
X197290602Y-111120827D01*
X197230264Y-111266498D01*
X197230261Y-111266510D01*
X197199500Y-111421153D01*
X160000500Y-111421153D01*
X160000500Y-108421153D01*
X172699500Y-108421153D01*
X172699500Y-108578846D01*
X172730261Y-108733489D01*
X172730264Y-108733501D01*
X172790602Y-108879172D01*
X172790609Y-108879185D01*
X172878210Y-109010288D01*
X172878213Y-109010292D01*
X172989707Y-109121786D01*
X172989711Y-109121789D01*
X173120814Y-109209390D01*
X173120827Y-109209397D01*
X173194119Y-109239755D01*
X173266503Y-109269737D01*
X173421153Y-109300499D01*
X173421156Y-109300500D01*
X173421158Y-109300500D01*
X173578844Y-109300500D01*
X173578845Y-109300499D01*
X173733497Y-109269737D01*
X173879179Y-109209394D01*
X174010289Y-109121789D01*
X174121789Y-109010289D01*
X174181348Y-108921153D01*
X175699500Y-108921153D01*
X175699500Y-109078846D01*
X175730261Y-109233489D01*
X175730264Y-109233501D01*
X175790602Y-109379172D01*
X175790609Y-109379185D01*
X175878210Y-109510288D01*
X175878213Y-109510292D01*
X175989707Y-109621786D01*
X175989711Y-109621789D01*
X176120814Y-109709390D01*
X176120827Y-109709397D01*
X176266498Y-109769735D01*
X176266503Y-109769737D01*
X176421153Y-109800499D01*
X176421156Y-109800500D01*
X176421158Y-109800500D01*
X176578844Y-109800500D01*
X176578845Y-109800499D01*
X176733497Y-109769737D01*
X176879179Y-109709394D01*
X177010289Y-109621789D01*
X177121789Y-109510289D01*
X177165150Y-109445394D01*
X177200906Y-109391883D01*
X177204768Y-109386100D01*
X177209394Y-109379179D01*
X177269737Y-109233497D01*
X177291958Y-109121786D01*
X177300638Y-109078150D01*
X177333023Y-109016239D01*
X177334519Y-109014715D01*
X179075685Y-107273548D01*
X179137006Y-107240065D01*
X179206698Y-107245049D01*
X179210798Y-107246663D01*
X179235706Y-107256980D01*
X179266497Y-107269735D01*
X179266499Y-107269735D01*
X179266503Y-107269737D01*
X179421153Y-107300499D01*
X179421156Y-107300500D01*
X179421158Y-107300500D01*
X179578844Y-107300500D01*
X179578845Y-107300499D01*
X179733497Y-107269737D01*
X179879179Y-107209394D01*
X180010289Y-107121789D01*
X180121789Y-107010289D01*
X180209394Y-106879179D01*
X180269737Y-106733497D01*
X180300500Y-106578842D01*
X180300500Y-106421158D01*
X180300500Y-106421155D01*
X180300499Y-106421153D01*
X180269737Y-106266503D01*
X180213728Y-106131284D01*
X180209397Y-106120827D01*
X180209390Y-106120814D01*
X180121789Y-105989711D01*
X180121786Y-105989707D01*
X180010292Y-105878213D01*
X180010288Y-105878210D01*
X179879185Y-105790609D01*
X179879172Y-105790602D01*
X179733501Y-105730264D01*
X179733489Y-105730261D01*
X179578845Y-105699500D01*
X179578842Y-105699500D01*
X179421158Y-105699500D01*
X179421155Y-105699500D01*
X179266510Y-105730261D01*
X179266498Y-105730264D01*
X179120827Y-105790602D01*
X179120814Y-105790609D01*
X178989127Y-105878601D01*
X178928875Y-105897467D01*
X178929003Y-105898438D01*
X178923431Y-105899171D01*
X178922450Y-105899479D01*
X178920997Y-105899492D01*
X178920945Y-105899498D01*
X178768210Y-105940424D01*
X178768209Y-105940425D01*
X178718096Y-105969359D01*
X178718095Y-105969360D01*
X178682853Y-105989707D01*
X178631285Y-106019479D01*
X178631282Y-106019481D01*
X176485339Y-108165425D01*
X176424016Y-108198910D01*
X176421850Y-108199361D01*
X176266508Y-108230261D01*
X176266498Y-108230264D01*
X176120827Y-108290602D01*
X176120814Y-108290609D01*
X175989711Y-108378210D01*
X175989707Y-108378213D01*
X175878213Y-108489707D01*
X175878210Y-108489711D01*
X175790609Y-108620814D01*
X175790602Y-108620827D01*
X175730264Y-108766498D01*
X175730261Y-108766510D01*
X175699500Y-108921153D01*
X174181348Y-108921153D01*
X174209394Y-108879179D01*
X174269737Y-108733497D01*
X174300500Y-108578842D01*
X174300500Y-108421158D01*
X174300500Y-108421155D01*
X174300499Y-108421153D01*
X174274531Y-108290606D01*
X174269737Y-108266503D01*
X174256047Y-108233452D01*
X174209397Y-108120827D01*
X174209390Y-108120814D01*
X174121398Y-107989125D01*
X174100520Y-107922447D01*
X174100500Y-107920234D01*
X174100500Y-105386555D01*
X174120185Y-105319516D01*
X174172989Y-105273761D01*
X174242147Y-105263817D01*
X174260411Y-105268840D01*
X174260676Y-105267969D01*
X174266492Y-105269732D01*
X174266503Y-105269737D01*
X174421153Y-105300499D01*
X174421156Y-105300500D01*
X174421158Y-105300500D01*
X174578844Y-105300500D01*
X174578845Y-105300499D01*
X174733497Y-105269737D01*
X174879179Y-105209394D01*
X175010289Y-105121789D01*
X175121789Y-105010289D01*
X175209394Y-104879179D01*
X175269737Y-104733497D01*
X175300500Y-104578842D01*
X175300638Y-104578150D01*
X175333023Y-104516239D01*
X175334518Y-104514716D01*
X176349599Y-103499635D01*
X181499500Y-103499635D01*
X181499500Y-105500370D01*
X181499501Y-105500376D01*
X181505908Y-105559983D01*
X181556202Y-105694828D01*
X181556206Y-105694835D01*
X181642452Y-105810044D01*
X181642455Y-105810047D01*
X181757664Y-105896293D01*
X181757667Y-105896295D01*
X181757668Y-105896295D01*
X181757669Y-105896296D01*
X181786025Y-105906872D01*
X181841958Y-105948742D01*
X181866376Y-106014206D01*
X181851525Y-106082479D01*
X181843010Y-106095939D01*
X181710213Y-106278719D01*
X181606417Y-106482429D01*
X181535765Y-106699871D01*
X181521491Y-106790000D01*
X182509252Y-106790000D01*
X182487482Y-106827708D01*
X182450000Y-106967591D01*
X182450000Y-107112409D01*
X182487482Y-107252292D01*
X182509252Y-107290000D01*
X181521491Y-107290000D01*
X181535765Y-107380128D01*
X181606417Y-107597570D01*
X181710211Y-107801276D01*
X181844597Y-107986242D01*
X182006257Y-108147902D01*
X182006263Y-108147907D01*
X182090863Y-108209372D01*
X182133529Y-108264701D01*
X182139508Y-108334315D01*
X182106903Y-108396110D01*
X182090864Y-108410007D01*
X182005940Y-108471709D01*
X182005931Y-108471716D01*
X181844216Y-108633431D01*
X181844216Y-108633432D01*
X181844214Y-108633434D01*
X181786480Y-108712896D01*
X181709783Y-108818461D01*
X181605950Y-109022244D01*
X181535278Y-109239750D01*
X181535278Y-109239753D01*
X181530529Y-109269737D01*
X181499500Y-109465646D01*
X181499500Y-109694354D01*
X181501882Y-109709394D01*
X181535278Y-109920246D01*
X181535278Y-109920249D01*
X181605950Y-110137755D01*
X181605952Y-110137758D01*
X181709783Y-110341538D01*
X181844214Y-110526566D01*
X182005934Y-110688286D01*
X182190962Y-110822717D01*
X182394742Y-110926548D01*
X182394744Y-110926549D01*
X182612251Y-110997221D01*
X182612252Y-110997221D01*
X182612255Y-110997222D01*
X182838146Y-111033000D01*
X182838147Y-111033000D01*
X183161853Y-111033000D01*
X183161854Y-111033000D01*
X183387745Y-110997222D01*
X183387748Y-110997221D01*
X183387749Y-110997221D01*
X183605255Y-110926549D01*
X183605255Y-110926548D01*
X183605258Y-110926548D01*
X183809038Y-110822717D01*
X183994066Y-110688286D01*
X184155786Y-110526566D01*
X184290217Y-110341538D01*
X184394048Y-110137758D01*
X184464722Y-109920245D01*
X184500500Y-109694354D01*
X184500500Y-109465646D01*
X184464722Y-109239755D01*
X184464721Y-109239751D01*
X184464721Y-109239750D01*
X184394049Y-109022244D01*
X184342543Y-108921158D01*
X184290217Y-108818462D01*
X184155786Y-108633434D01*
X183994066Y-108471714D01*
X183909134Y-108410007D01*
X183866470Y-108354678D01*
X183860491Y-108285064D01*
X183893097Y-108223269D01*
X183909137Y-108209371D01*
X183993739Y-108147905D01*
X184155402Y-107986242D01*
X184289788Y-107801276D01*
X184393582Y-107597570D01*
X184464234Y-107380128D01*
X184478509Y-107290000D01*
X183490748Y-107290000D01*
X183512518Y-107252292D01*
X183550000Y-107112409D01*
X183550000Y-106967591D01*
X183512518Y-106827708D01*
X183490748Y-106790000D01*
X184478509Y-106790000D01*
X184464234Y-106699871D01*
X184393582Y-106482429D01*
X184289788Y-106278723D01*
X184156988Y-106095940D01*
X184133508Y-106030133D01*
X184149333Y-105962079D01*
X184199439Y-105913384D01*
X184213966Y-105906875D01*
X184242331Y-105896296D01*
X184357546Y-105810046D01*
X184443796Y-105694831D01*
X184494091Y-105559983D01*
X184500500Y-105500373D01*
X184500499Y-103499628D01*
X184494091Y-103440017D01*
X184443796Y-103305169D01*
X184443795Y-103305168D01*
X184443793Y-103305164D01*
X184357547Y-103189955D01*
X184357544Y-103189952D01*
X184242335Y-103103706D01*
X184242328Y-103103702D01*
X184107482Y-103053408D01*
X184107483Y-103053408D01*
X184047883Y-103047001D01*
X184047881Y-103047000D01*
X184047873Y-103047000D01*
X184047864Y-103047000D01*
X181952129Y-103047000D01*
X181952123Y-103047001D01*
X181892516Y-103053408D01*
X181757671Y-103103702D01*
X181757664Y-103103706D01*
X181642455Y-103189952D01*
X181642452Y-103189955D01*
X181556206Y-103305164D01*
X181556202Y-103305171D01*
X181505908Y-103440017D01*
X181499501Y-103499616D01*
X181499501Y-103499623D01*
X181499500Y-103499635D01*
X176349599Y-103499635D01*
X180014664Y-99834571D01*
X180075985Y-99801088D01*
X180078152Y-99800637D01*
X180078841Y-99800500D01*
X180078842Y-99800500D01*
X180233497Y-99769737D01*
X180379179Y-99709394D01*
X180510289Y-99621789D01*
X180621789Y-99510289D01*
X180709394Y-99379179D01*
X180769737Y-99233497D01*
X180800500Y-99078842D01*
X180800500Y-98921158D01*
X180800500Y-98921155D01*
X180800499Y-98921153D01*
X180769738Y-98766510D01*
X180769737Y-98766503D01*
X180741984Y-98699500D01*
X180709397Y-98620827D01*
X180709390Y-98620814D01*
X180621789Y-98489711D01*
X180621786Y-98489707D01*
X180578337Y-98446258D01*
X180544852Y-98384935D01*
X180549836Y-98315243D01*
X180578335Y-98270898D01*
X180970522Y-97878711D01*
X185649500Y-97878711D01*
X185649500Y-98121288D01*
X185681161Y-98361785D01*
X185743947Y-98596104D01*
X185801644Y-98735396D01*
X185836776Y-98820212D01*
X185958064Y-99030289D01*
X185958066Y-99030292D01*
X185958067Y-99030293D01*
X186105733Y-99222736D01*
X186105739Y-99222743D01*
X186277256Y-99394260D01*
X186277262Y-99394265D01*
X186469711Y-99541936D01*
X186679788Y-99663224D01*
X186903900Y-99756054D01*
X187138211Y-99818838D01*
X187318586Y-99842584D01*
X187378711Y-99850500D01*
X187378712Y-99850500D01*
X187621289Y-99850500D01*
X187669388Y-99844167D01*
X187861789Y-99818838D01*
X188096100Y-99756054D01*
X188320212Y-99663224D01*
X188530289Y-99541936D01*
X188722738Y-99394265D01*
X188894265Y-99222738D01*
X189041936Y-99030289D01*
X189163224Y-98820212D01*
X189256054Y-98596100D01*
X189318838Y-98361789D01*
X189350500Y-98121288D01*
X189350500Y-97878712D01*
X189318838Y-97638211D01*
X189256054Y-97403900D01*
X189163224Y-97179788D01*
X189041936Y-96969711D01*
X188912096Y-96800500D01*
X188894266Y-96777263D01*
X188894260Y-96777256D01*
X188722743Y-96605739D01*
X188722736Y-96605733D01*
X188530295Y-96458068D01*
X188530291Y-96458065D01*
X188356364Y-96357648D01*
X193699500Y-96357648D01*
X193699500Y-96562351D01*
X193731522Y-96764534D01*
X193794781Y-96959223D01*
X193887715Y-97141613D01*
X194008028Y-97307213D01*
X194152786Y-97451971D01*
X194255463Y-97526569D01*
X194298129Y-97581898D01*
X194304108Y-97651512D01*
X194271503Y-97713307D01*
X194210664Y-97747664D01*
X194195833Y-97750177D01*
X194142516Y-97755909D01*
X194007671Y-97806202D01*
X194007664Y-97806206D01*
X193892455Y-97892452D01*
X193892452Y-97892455D01*
X193806206Y-98007664D01*
X193806202Y-98007671D01*
X193755908Y-98142517D01*
X193749501Y-98202116D01*
X193749501Y-98202123D01*
X193749500Y-98202135D01*
X193749500Y-99797870D01*
X193749501Y-99797876D01*
X193755908Y-99857483D01*
X193806202Y-99992328D01*
X193806206Y-99992335D01*
X193892452Y-100107544D01*
X193892455Y-100107547D01*
X194007664Y-100193793D01*
X194007671Y-100193797D01*
X194013082Y-100195815D01*
X194142517Y-100244091D01*
X194195835Y-100249823D01*
X194260384Y-100276560D01*
X194300232Y-100333952D01*
X194302726Y-100403777D01*
X194267074Y-100463867D01*
X194255463Y-100473430D01*
X194152787Y-100548028D01*
X194152782Y-100548032D01*
X194008028Y-100692786D01*
X193887715Y-100858386D01*
X193794781Y-101040776D01*
X193731522Y-101235465D01*
X193699500Y-101437648D01*
X193699500Y-101642351D01*
X193731522Y-101844534D01*
X193794781Y-102039223D01*
X193887715Y-102221613D01*
X194008028Y-102387213D01*
X194152786Y-102531971D01*
X194307749Y-102644556D01*
X194318390Y-102652287D01*
X194434607Y-102711503D01*
X194500776Y-102745218D01*
X194500778Y-102745218D01*
X194500781Y-102745220D01*
X194605137Y-102779127D01*
X194695465Y-102808477D01*
X194796557Y-102824488D01*
X194897648Y-102840500D01*
X194897649Y-102840500D01*
X195102351Y-102840500D01*
X195102352Y-102840500D01*
X195304534Y-102808477D01*
X195499219Y-102745220D01*
X195681610Y-102652287D01*
X195782694Y-102578846D01*
X195847213Y-102531971D01*
X195847215Y-102531968D01*
X195847219Y-102531966D01*
X195991966Y-102387219D01*
X195991968Y-102387215D01*
X195991971Y-102387213D01*
X196044732Y-102314590D01*
X196112287Y-102221610D01*
X196205220Y-102039219D01*
X196268477Y-101844534D01*
X196300500Y-101642352D01*
X196300500Y-101437648D01*
X196268477Y-101235466D01*
X196205220Y-101040781D01*
X196205218Y-101040778D01*
X196205218Y-101040776D01*
X196171503Y-100974607D01*
X196112287Y-100858390D01*
X196104556Y-100847749D01*
X195991971Y-100692786D01*
X195847217Y-100548032D01*
X195847212Y-100548028D01*
X195744536Y-100473430D01*
X195701870Y-100418101D01*
X195695891Y-100348487D01*
X195728496Y-100286692D01*
X195789335Y-100252335D01*
X195804164Y-100249822D01*
X195857483Y-100244091D01*
X195992331Y-100193796D01*
X196107546Y-100107546D01*
X196193796Y-99992331D01*
X196244091Y-99857483D01*
X196250500Y-99797873D01*
X196250499Y-98202128D01*
X196244091Y-98142517D01*
X196193796Y-98007669D01*
X196193795Y-98007668D01*
X196193793Y-98007664D01*
X196107547Y-97892455D01*
X196107544Y-97892452D01*
X195992335Y-97806206D01*
X195992328Y-97806202D01*
X195857482Y-97755908D01*
X195857483Y-97755908D01*
X195804165Y-97750176D01*
X195739614Y-97723438D01*
X195699766Y-97666045D01*
X195697273Y-97596220D01*
X195732926Y-97536131D01*
X195744537Y-97526568D01*
X195766944Y-97510289D01*
X195847219Y-97451966D01*
X195991966Y-97307219D01*
X195991968Y-97307215D01*
X195991971Y-97307213D01*
X196045534Y-97233489D01*
X196112287Y-97141610D01*
X196205220Y-96959219D01*
X196268477Y-96764534D01*
X196300500Y-96562352D01*
X196300500Y-96357648D01*
X196279294Y-96223760D01*
X196268477Y-96155465D01*
X196205218Y-95960776D01*
X196139696Y-95832184D01*
X196112287Y-95778390D01*
X196091661Y-95750000D01*
X195991971Y-95612786D01*
X195847213Y-95468028D01*
X195681613Y-95347715D01*
X195681612Y-95347714D01*
X195681610Y-95347713D01*
X195599161Y-95305703D01*
X195499223Y-95254781D01*
X195304534Y-95191522D01*
X195129995Y-95163878D01*
X195102352Y-95159500D01*
X194897648Y-95159500D01*
X194873329Y-95163351D01*
X194695465Y-95191522D01*
X194500776Y-95254781D01*
X194318386Y-95347715D01*
X194152786Y-95468028D01*
X194008028Y-95612786D01*
X193887715Y-95778386D01*
X193794781Y-95960776D01*
X193731522Y-96155465D01*
X193699500Y-96357648D01*
X188356364Y-96357648D01*
X188320214Y-96336777D01*
X188320205Y-96336773D01*
X188096104Y-96243947D01*
X187978944Y-96212554D01*
X187861789Y-96181162D01*
X187861788Y-96181161D01*
X187861785Y-96181161D01*
X187621289Y-96149500D01*
X187621288Y-96149500D01*
X187378712Y-96149500D01*
X187378711Y-96149500D01*
X187138214Y-96181161D01*
X186903895Y-96243947D01*
X186679794Y-96336773D01*
X186679785Y-96336777D01*
X186469706Y-96458067D01*
X186277263Y-96605733D01*
X186277256Y-96605739D01*
X186105739Y-96777256D01*
X186105733Y-96777263D01*
X185958067Y-96969706D01*
X185836777Y-97179785D01*
X185836773Y-97179794D01*
X185743947Y-97403895D01*
X185681161Y-97638214D01*
X185649500Y-97878711D01*
X180970522Y-97878711D01*
X181075685Y-97773548D01*
X181137006Y-97740065D01*
X181206698Y-97745049D01*
X181210798Y-97746663D01*
X181235706Y-97756980D01*
X181266497Y-97769735D01*
X181266499Y-97769735D01*
X181266503Y-97769737D01*
X181376189Y-97791555D01*
X181421153Y-97800499D01*
X181421156Y-97800500D01*
X181421158Y-97800500D01*
X181578844Y-97800500D01*
X181578845Y-97800499D01*
X181733497Y-97769737D01*
X181745856Y-97764617D01*
X181756783Y-97760092D01*
X181879172Y-97709397D01*
X181879172Y-97709396D01*
X181879179Y-97709394D01*
X182010289Y-97621789D01*
X182121789Y-97510289D01*
X182209394Y-97379179D01*
X182269737Y-97233497D01*
X182300500Y-97078842D01*
X182300500Y-96921158D01*
X182300500Y-96921155D01*
X182300499Y-96921153D01*
X182269737Y-96766503D01*
X182269732Y-96766492D01*
X182267969Y-96760676D01*
X182270720Y-96759841D01*
X182264497Y-96702641D01*
X182295691Y-96640122D01*
X182355734Y-96604392D01*
X182386555Y-96600500D01*
X182920234Y-96600500D01*
X182987273Y-96620185D01*
X182989125Y-96621398D01*
X183120814Y-96709390D01*
X183120827Y-96709397D01*
X183258695Y-96766503D01*
X183266503Y-96769737D01*
X183421153Y-96800499D01*
X183421156Y-96800500D01*
X183421158Y-96800500D01*
X183578844Y-96800500D01*
X183578845Y-96800499D01*
X183733497Y-96769737D01*
X183879179Y-96709394D01*
X184010289Y-96621789D01*
X184121789Y-96510289D01*
X184209394Y-96379179D01*
X184269737Y-96233497D01*
X184300500Y-96078842D01*
X184300500Y-95921158D01*
X184300500Y-95921155D01*
X184300499Y-95921153D01*
X184272101Y-95778390D01*
X184269737Y-95766503D01*
X184269735Y-95766498D01*
X184209397Y-95620827D01*
X184209390Y-95620814D01*
X184121789Y-95489711D01*
X184121786Y-95489707D01*
X184010292Y-95378213D01*
X184010288Y-95378210D01*
X183934548Y-95327602D01*
X183889743Y-95273990D01*
X183881036Y-95204665D01*
X183911190Y-95141637D01*
X183970634Y-95104918D01*
X184003439Y-95100500D01*
X185420234Y-95100500D01*
X185487273Y-95120185D01*
X185489125Y-95121398D01*
X185620814Y-95209390D01*
X185620827Y-95209397D01*
X185766498Y-95269735D01*
X185766503Y-95269737D01*
X185871418Y-95290606D01*
X185921153Y-95300499D01*
X185921156Y-95300500D01*
X185921158Y-95300500D01*
X186078844Y-95300500D01*
X186078845Y-95300499D01*
X186233497Y-95269737D01*
X186379179Y-95209394D01*
X186510289Y-95121789D01*
X186621789Y-95010289D01*
X186709394Y-94879179D01*
X186769737Y-94733497D01*
X186800500Y-94578842D01*
X186800500Y-94421158D01*
X186800500Y-94421155D01*
X186800499Y-94421153D01*
X186791957Y-94378211D01*
X186769737Y-94266503D01*
X186756852Y-94235396D01*
X186709397Y-94120827D01*
X186709390Y-94120814D01*
X186621789Y-93989711D01*
X186621786Y-93989707D01*
X186510292Y-93878213D01*
X186510288Y-93878210D01*
X186379185Y-93790609D01*
X186379172Y-93790602D01*
X186233501Y-93730264D01*
X186233489Y-93730261D01*
X186078845Y-93699500D01*
X186078842Y-93699500D01*
X185921158Y-93699500D01*
X185921155Y-93699500D01*
X185766510Y-93730261D01*
X185766498Y-93730264D01*
X185620827Y-93790602D01*
X185620814Y-93790609D01*
X185489125Y-93878602D01*
X185422447Y-93899480D01*
X185420234Y-93899500D01*
X179579061Y-93899500D01*
X179579057Y-93899499D01*
X179420943Y-93899499D01*
X179402262Y-93904504D01*
X179387634Y-93904898D01*
X179367430Y-93899551D01*
X179346539Y-93899053D01*
X179334336Y-93890793D01*
X179320089Y-93887023D01*
X179305981Y-93871600D01*
X179288678Y-93859888D01*
X179282878Y-93846343D01*
X179272931Y-93835469D01*
X179269401Y-93814869D01*
X179261176Y-93795659D01*
X179263375Y-93779696D01*
X179261132Y-93766602D01*
X179267124Y-93752487D01*
X179268899Y-93739606D01*
X179267969Y-93739324D01*
X179269731Y-93733509D01*
X179269737Y-93733497D01*
X179300500Y-93578842D01*
X179300500Y-93421158D01*
X179300500Y-93421155D01*
X179300499Y-93421153D01*
X179269738Y-93266510D01*
X179269738Y-93266508D01*
X179269737Y-93266503D01*
X179218896Y-93143760D01*
X179209397Y-93120827D01*
X179209390Y-93120814D01*
X179121789Y-92989711D01*
X179121786Y-92989707D01*
X179010292Y-92878213D01*
X179010288Y-92878210D01*
X178879185Y-92790609D01*
X178879172Y-92790602D01*
X178733501Y-92730264D01*
X178733489Y-92730261D01*
X178578845Y-92699500D01*
X178578842Y-92699500D01*
X178421158Y-92699500D01*
X178421155Y-92699500D01*
X178266510Y-92730261D01*
X178266498Y-92730264D01*
X178120827Y-92790602D01*
X178120814Y-92790609D01*
X177989711Y-92878210D01*
X177989707Y-92878213D01*
X177878213Y-92989707D01*
X177878210Y-92989711D01*
X177790609Y-93120814D01*
X177790602Y-93120827D01*
X177730264Y-93266498D01*
X177730261Y-93266508D01*
X177699361Y-93421850D01*
X177666976Y-93483761D01*
X177665425Y-93485339D01*
X176787584Y-94363181D01*
X176726261Y-94396666D01*
X176699903Y-94399500D01*
X175079766Y-94399500D01*
X175012727Y-94379815D01*
X175010875Y-94378602D01*
X174879185Y-94290609D01*
X174879172Y-94290602D01*
X174733501Y-94230264D01*
X174733489Y-94230261D01*
X174578845Y-94199500D01*
X174578842Y-94199500D01*
X174421158Y-94199500D01*
X174421155Y-94199500D01*
X174266510Y-94230261D01*
X174260676Y-94232031D01*
X174259873Y-94229385D01*
X174202056Y-94235396D01*
X174139687Y-94203902D01*
X174104245Y-94143689D01*
X174100500Y-94113444D01*
X174100500Y-83300096D01*
X174109145Y-83270652D01*
X174115668Y-83240670D01*
X174119422Y-83235654D01*
X174120185Y-83233057D01*
X174136810Y-83212424D01*
X174270900Y-83078334D01*
X174332218Y-83044852D01*
X174401910Y-83049836D01*
X174446258Y-83078337D01*
X174489707Y-83121786D01*
X174489711Y-83121789D01*
X174620814Y-83209390D01*
X174620827Y-83209397D01*
X174715799Y-83248735D01*
X174766503Y-83269737D01*
X174831147Y-83282595D01*
X174921849Y-83300638D01*
X174983760Y-83333023D01*
X174985339Y-83334574D01*
X177015139Y-85364374D01*
X177015149Y-85364385D01*
X177019479Y-85368715D01*
X177019480Y-85368716D01*
X177131284Y-85480520D01*
X177182845Y-85510288D01*
X177218095Y-85530639D01*
X177218097Y-85530641D01*
X177256151Y-85552611D01*
X177268215Y-85559577D01*
X177420943Y-85600501D01*
X177420946Y-85600501D01*
X177586653Y-85600501D01*
X177586669Y-85600500D01*
X184920234Y-85600500D01*
X184987273Y-85620185D01*
X184989125Y-85621398D01*
X185120814Y-85709390D01*
X185120827Y-85709397D01*
X185266498Y-85769735D01*
X185266503Y-85769737D01*
X185421153Y-85800499D01*
X185421156Y-85800500D01*
X185421158Y-85800500D01*
X185578844Y-85800500D01*
X185578845Y-85800499D01*
X185733497Y-85769737D01*
X185879179Y-85709394D01*
X186010289Y-85621789D01*
X186121789Y-85510289D01*
X186209394Y-85379179D01*
X186269737Y-85233497D01*
X186300500Y-85078842D01*
X186300500Y-84921158D01*
X186300500Y-84921155D01*
X186300499Y-84921153D01*
X186269738Y-84766510D01*
X186269737Y-84766503D01*
X186269735Y-84766498D01*
X186209397Y-84620827D01*
X186209390Y-84620814D01*
X186121789Y-84489711D01*
X186121786Y-84489707D01*
X186010292Y-84378213D01*
X186010288Y-84378210D01*
X185879185Y-84290609D01*
X185879172Y-84290602D01*
X185733501Y-84230264D01*
X185733489Y-84230261D01*
X185578845Y-84199500D01*
X185578842Y-84199500D01*
X185421158Y-84199500D01*
X185421155Y-84199500D01*
X185266510Y-84230261D01*
X185266498Y-84230264D01*
X185120827Y-84290602D01*
X185120814Y-84290609D01*
X184989125Y-84378602D01*
X184922447Y-84399480D01*
X184920234Y-84399500D01*
X177800097Y-84399500D01*
X177733058Y-84379815D01*
X177712416Y-84363181D01*
X175834574Y-82485339D01*
X175801089Y-82424016D01*
X175800638Y-82421849D01*
X175800500Y-82421153D01*
X185699500Y-82421153D01*
X185699500Y-82578846D01*
X185730261Y-82733489D01*
X185730264Y-82733501D01*
X185790602Y-82879172D01*
X185790609Y-82879185D01*
X185878210Y-83010288D01*
X185878213Y-83010292D01*
X185989707Y-83121786D01*
X185989711Y-83121789D01*
X186120814Y-83209390D01*
X186120827Y-83209397D01*
X186215799Y-83248735D01*
X186266503Y-83269737D01*
X186419127Y-83300096D01*
X186421153Y-83300499D01*
X186421156Y-83300500D01*
X186421158Y-83300500D01*
X186578844Y-83300500D01*
X186578845Y-83300499D01*
X186733497Y-83269737D01*
X186879179Y-83209394D01*
X186902647Y-83193713D01*
X187010875Y-83121398D01*
X187077553Y-83100520D01*
X187079766Y-83100500D01*
X187699903Y-83100500D01*
X187766942Y-83120185D01*
X187787584Y-83136819D01*
X195665425Y-91014660D01*
X195698910Y-91075983D01*
X195699361Y-91078149D01*
X195730261Y-91233491D01*
X195730264Y-91233501D01*
X195790602Y-91379172D01*
X195790609Y-91379185D01*
X195878210Y-91510288D01*
X195878213Y-91510292D01*
X195989707Y-91621786D01*
X195989711Y-91621789D01*
X196120814Y-91709390D01*
X196120827Y-91709397D01*
X196266498Y-91769735D01*
X196266503Y-91769737D01*
X196417569Y-91799786D01*
X196421153Y-91800499D01*
X196421156Y-91800500D01*
X196421158Y-91800500D01*
X196578844Y-91800500D01*
X196578845Y-91800499D01*
X196733497Y-91769737D01*
X196879179Y-91709394D01*
X197010289Y-91621789D01*
X197121789Y-91510289D01*
X197209394Y-91379179D01*
X197269737Y-91233497D01*
X197300500Y-91078842D01*
X197300500Y-90921158D01*
X197300500Y-90921155D01*
X197300499Y-90921153D01*
X197269737Y-90766503D01*
X197269735Y-90766498D01*
X197209397Y-90620827D01*
X197209390Y-90620814D01*
X197121789Y-90489711D01*
X197121786Y-90489707D01*
X197010292Y-90378213D01*
X197010288Y-90378210D01*
X196879185Y-90290609D01*
X196879172Y-90290602D01*
X196733501Y-90230264D01*
X196733491Y-90230261D01*
X196578149Y-90199361D01*
X196516238Y-90166976D01*
X196514660Y-90165425D01*
X188487590Y-82138355D01*
X188487588Y-82138352D01*
X188368717Y-82019481D01*
X188368716Y-82019480D01*
X188281904Y-81969360D01*
X188281904Y-81969359D01*
X188281900Y-81969358D01*
X188231785Y-81940423D01*
X188079057Y-81899499D01*
X187920943Y-81899499D01*
X187913347Y-81899499D01*
X187913331Y-81899500D01*
X187079766Y-81899500D01*
X187012727Y-81879815D01*
X187010875Y-81878602D01*
X186879185Y-81790609D01*
X186879172Y-81790602D01*
X186733501Y-81730264D01*
X186733489Y-81730261D01*
X186578845Y-81699500D01*
X186578842Y-81699500D01*
X186421158Y-81699500D01*
X186421155Y-81699500D01*
X186266510Y-81730261D01*
X186266498Y-81730264D01*
X186120827Y-81790602D01*
X186120814Y-81790609D01*
X185989711Y-81878210D01*
X185989707Y-81878213D01*
X185878213Y-81989707D01*
X185878210Y-81989711D01*
X185790609Y-82120814D01*
X185790602Y-82120827D01*
X185730264Y-82266498D01*
X185730261Y-82266510D01*
X185699500Y-82421153D01*
X175800500Y-82421153D01*
X175770412Y-82269896D01*
X175769737Y-82266503D01*
X175719389Y-82144951D01*
X175709397Y-82120827D01*
X175709390Y-82120814D01*
X175621789Y-81989711D01*
X175621786Y-81989707D01*
X175578337Y-81946258D01*
X175544852Y-81884935D01*
X175549836Y-81815243D01*
X175578335Y-81770898D01*
X179168081Y-78181153D01*
X183299500Y-78181153D01*
X183299500Y-78338846D01*
X183330261Y-78493489D01*
X183330264Y-78493501D01*
X183390602Y-78639172D01*
X183390609Y-78639185D01*
X183478210Y-78770288D01*
X183478213Y-78770292D01*
X183580240Y-78872319D01*
X183613725Y-78933642D01*
X183608741Y-79003334D01*
X183580240Y-79047681D01*
X183478213Y-79149707D01*
X183478210Y-79149711D01*
X183390609Y-79280814D01*
X183390602Y-79280827D01*
X183330264Y-79426498D01*
X183330261Y-79426510D01*
X183299500Y-79581153D01*
X183299500Y-79738846D01*
X183330261Y-79893489D01*
X183330264Y-79893501D01*
X183390602Y-80039172D01*
X183390609Y-80039185D01*
X183478210Y-80170288D01*
X183478213Y-80170292D01*
X183589707Y-80281786D01*
X183589711Y-80281789D01*
X183720814Y-80369390D01*
X183720827Y-80369397D01*
X183830082Y-80414651D01*
X183866503Y-80429737D01*
X183921831Y-80440742D01*
X183983740Y-80473126D01*
X184018315Y-80533841D01*
X184019256Y-80538166D01*
X184030261Y-80593492D01*
X184030264Y-80593501D01*
X184090602Y-80739172D01*
X184090609Y-80739185D01*
X184178210Y-80870288D01*
X184178213Y-80870292D01*
X184289707Y-80981786D01*
X184289711Y-80981789D01*
X184420814Y-81069390D01*
X184420827Y-81069397D01*
X184566498Y-81129735D01*
X184566503Y-81129737D01*
X184721153Y-81160499D01*
X184721156Y-81160500D01*
X184721158Y-81160500D01*
X184878844Y-81160500D01*
X184878845Y-81160499D01*
X185033497Y-81129737D01*
X185179179Y-81069394D01*
X185310289Y-80981789D01*
X185350493Y-80941585D01*
X185412319Y-80879760D01*
X185473642Y-80846275D01*
X185543334Y-80851259D01*
X185587681Y-80879760D01*
X185689707Y-80981786D01*
X185689711Y-80981789D01*
X185820814Y-81069390D01*
X185820827Y-81069397D01*
X185966498Y-81129735D01*
X185966503Y-81129737D01*
X186121153Y-81160499D01*
X186121156Y-81160500D01*
X186121158Y-81160500D01*
X186278844Y-81160500D01*
X186278845Y-81160499D01*
X186433497Y-81129737D01*
X186579179Y-81069394D01*
X186710289Y-80981789D01*
X186821789Y-80870289D01*
X186909394Y-80739179D01*
X186969737Y-80593497D01*
X186980743Y-80538166D01*
X187013125Y-80476258D01*
X187073841Y-80441683D01*
X187078118Y-80440752D01*
X187133497Y-80429737D01*
X187279179Y-80369394D01*
X187410289Y-80281789D01*
X187521789Y-80170289D01*
X187609394Y-80039179D01*
X187669737Y-79893497D01*
X187700500Y-79738842D01*
X187700500Y-79581158D01*
X187700500Y-79581155D01*
X187672274Y-79439258D01*
X187669737Y-79426503D01*
X187667521Y-79421153D01*
X208699500Y-79421153D01*
X208699500Y-79578846D01*
X208730261Y-79733489D01*
X208730264Y-79733501D01*
X208790602Y-79879172D01*
X208790609Y-79879185D01*
X208878210Y-80010288D01*
X208878213Y-80010292D01*
X208989707Y-80121786D01*
X208989711Y-80121789D01*
X209120814Y-80209390D01*
X209120827Y-80209397D01*
X209246489Y-80261447D01*
X209266503Y-80269737D01*
X209421078Y-80300484D01*
X209421153Y-80300499D01*
X209421156Y-80300500D01*
X209421158Y-80300500D01*
X209578844Y-80300500D01*
X209578845Y-80300499D01*
X209733497Y-80269737D01*
X209879179Y-80209394D01*
X210010289Y-80121789D01*
X210121789Y-80010289D01*
X210209394Y-79879179D01*
X210269737Y-79733497D01*
X210300500Y-79578842D01*
X210300500Y-79421158D01*
X210300500Y-79421155D01*
X210300499Y-79421153D01*
X210272585Y-79280821D01*
X210269737Y-79266503D01*
X210269735Y-79266498D01*
X210209397Y-79120827D01*
X210209390Y-79120814D01*
X210121398Y-78989125D01*
X210100520Y-78922447D01*
X210100500Y-78920234D01*
X210100500Y-75300097D01*
X210120185Y-75233058D01*
X210136819Y-75212416D01*
X210319735Y-75029500D01*
X210514665Y-74834570D01*
X210575984Y-74801088D01*
X210578151Y-74800637D01*
X210578840Y-74800500D01*
X210578842Y-74800500D01*
X210733497Y-74769737D01*
X210879179Y-74709394D01*
X211010289Y-74621789D01*
X211121789Y-74510289D01*
X211209394Y-74379179D01*
X211222520Y-74347491D01*
X211269735Y-74233501D01*
X211269737Y-74233497D01*
X211300500Y-74078842D01*
X211300500Y-73921158D01*
X211300500Y-73921155D01*
X211300499Y-73921153D01*
X211269738Y-73766510D01*
X211269738Y-73766508D01*
X211269737Y-73766503D01*
X211269735Y-73766498D01*
X211209397Y-73620827D01*
X211209390Y-73620814D01*
X211121789Y-73489711D01*
X211121786Y-73489707D01*
X211010292Y-73378213D01*
X211010288Y-73378210D01*
X210879185Y-73290609D01*
X210879172Y-73290602D01*
X210733501Y-73230264D01*
X210733489Y-73230261D01*
X210578845Y-73199500D01*
X210578842Y-73199500D01*
X210421158Y-73199500D01*
X210421155Y-73199500D01*
X210266510Y-73230261D01*
X210266498Y-73230264D01*
X210120827Y-73290602D01*
X210120814Y-73290609D01*
X209989711Y-73378210D01*
X209989707Y-73378213D01*
X209878213Y-73489707D01*
X209878210Y-73489711D01*
X209790609Y-73620814D01*
X209790602Y-73620827D01*
X209730264Y-73766498D01*
X209730261Y-73766508D01*
X209699362Y-73921848D01*
X209666977Y-73983759D01*
X209665426Y-73985337D01*
X209134631Y-74516132D01*
X209134624Y-74516139D01*
X209131286Y-74519478D01*
X209131284Y-74519480D01*
X209019480Y-74631284D01*
X208991643Y-74679500D01*
X208985875Y-74689489D01*
X208985875Y-74689490D01*
X208974382Y-74709397D01*
X208940423Y-74768215D01*
X208899499Y-74920943D01*
X208899499Y-74920945D01*
X208899499Y-75089046D01*
X208899500Y-75089059D01*
X208899500Y-78920234D01*
X208879815Y-78987273D01*
X208878602Y-78989125D01*
X208790609Y-79120814D01*
X208790602Y-79120827D01*
X208730264Y-79266498D01*
X208730261Y-79266510D01*
X208699500Y-79421153D01*
X187667521Y-79421153D01*
X187666445Y-79418556D01*
X187609397Y-79280827D01*
X187609390Y-79280814D01*
X187521789Y-79149711D01*
X187521786Y-79149707D01*
X187419760Y-79047681D01*
X187386275Y-78986358D01*
X187391259Y-78916666D01*
X187419760Y-78872319D01*
X187521786Y-78770292D01*
X187521789Y-78770289D01*
X187609394Y-78639179D01*
X187669737Y-78493497D01*
X187700500Y-78338842D01*
X187700500Y-78181158D01*
X187700500Y-78181155D01*
X187700499Y-78181153D01*
X187681847Y-78087385D01*
X187669737Y-78026503D01*
X187662737Y-78009604D01*
X187609397Y-77880827D01*
X187609390Y-77880814D01*
X187521789Y-77749711D01*
X187521786Y-77749707D01*
X187410292Y-77638213D01*
X187410288Y-77638210D01*
X187279185Y-77550609D01*
X187279172Y-77550602D01*
X187133501Y-77490264D01*
X187133492Y-77490261D01*
X187078166Y-77479256D01*
X187016256Y-77446870D01*
X186981682Y-77386154D01*
X186980750Y-77381874D01*
X186969737Y-77326503D01*
X186946223Y-77269735D01*
X186909397Y-77180827D01*
X186909390Y-77180814D01*
X186821789Y-77049711D01*
X186821786Y-77049707D01*
X186710292Y-76938213D01*
X186710288Y-76938210D01*
X186579185Y-76850609D01*
X186579172Y-76850602D01*
X186433501Y-76790264D01*
X186433489Y-76790261D01*
X186278845Y-76759500D01*
X186278842Y-76759500D01*
X186121158Y-76759500D01*
X186121155Y-76759500D01*
X185966510Y-76790261D01*
X185966498Y-76790264D01*
X185820827Y-76850602D01*
X185820814Y-76850609D01*
X185689711Y-76938210D01*
X185689707Y-76938213D01*
X185587681Y-77040240D01*
X185526358Y-77073725D01*
X185456666Y-77068741D01*
X185412319Y-77040240D01*
X185310292Y-76938213D01*
X185310288Y-76938210D01*
X185179185Y-76850609D01*
X185179172Y-76850602D01*
X185033501Y-76790264D01*
X185033489Y-76790261D01*
X184878845Y-76759500D01*
X184878842Y-76759500D01*
X184721158Y-76759500D01*
X184721155Y-76759500D01*
X184566510Y-76790261D01*
X184566498Y-76790264D01*
X184420827Y-76850602D01*
X184420814Y-76850609D01*
X184289711Y-76938210D01*
X184289707Y-76938213D01*
X184178213Y-77049707D01*
X184178210Y-77049711D01*
X184090609Y-77180814D01*
X184090602Y-77180827D01*
X184030264Y-77326498D01*
X184030262Y-77326505D01*
X184019256Y-77381833D01*
X183986870Y-77443743D01*
X183926153Y-77478316D01*
X183921833Y-77479256D01*
X183866505Y-77490262D01*
X183866498Y-77490264D01*
X183720827Y-77550602D01*
X183720814Y-77550609D01*
X183589711Y-77638210D01*
X183589707Y-77638213D01*
X183478213Y-77749707D01*
X183478210Y-77749711D01*
X183390609Y-77880814D01*
X183390602Y-77880827D01*
X183330264Y-78026498D01*
X183330261Y-78026510D01*
X183299500Y-78181153D01*
X179168081Y-78181153D01*
X180014662Y-77334572D01*
X180075983Y-77301089D01*
X180078150Y-77300638D01*
X180136085Y-77289113D01*
X180233497Y-77269737D01*
X180379179Y-77209394D01*
X180510289Y-77121789D01*
X180621789Y-77010289D01*
X180709394Y-76879179D01*
X180769737Y-76733497D01*
X180800500Y-76578842D01*
X180800500Y-76421158D01*
X180800500Y-76421155D01*
X180800499Y-76421153D01*
X180769738Y-76266510D01*
X180769738Y-76266508D01*
X180769737Y-76266503D01*
X180741533Y-76198412D01*
X180709397Y-76120827D01*
X180709390Y-76120814D01*
X180621789Y-75989711D01*
X180621786Y-75989707D01*
X180510292Y-75878213D01*
X180510288Y-75878210D01*
X180379185Y-75790609D01*
X180379172Y-75790602D01*
X180233501Y-75730264D01*
X180233489Y-75730261D01*
X180078845Y-75699500D01*
X180078842Y-75699500D01*
X179921158Y-75699500D01*
X179921155Y-75699500D01*
X179766510Y-75730261D01*
X179766498Y-75730264D01*
X179620827Y-75790602D01*
X179620814Y-75790609D01*
X179489711Y-75878210D01*
X179489707Y-75878213D01*
X179378213Y-75989707D01*
X179378210Y-75989711D01*
X179290609Y-76120814D01*
X179290602Y-76120827D01*
X179230264Y-76266498D01*
X179230261Y-76266508D01*
X179199361Y-76421850D01*
X179166976Y-76483761D01*
X179165425Y-76485339D01*
X173019481Y-82631282D01*
X173019477Y-82631287D01*
X172973135Y-82711556D01*
X172973135Y-82711557D01*
X172940423Y-82768214D01*
X172929093Y-82810500D01*
X172899499Y-82920943D01*
X172899499Y-82920945D01*
X172899499Y-83089046D01*
X172899500Y-83089059D01*
X172899500Y-107920234D01*
X172879815Y-107987273D01*
X172878602Y-107989125D01*
X172790609Y-108120814D01*
X172790602Y-108120827D01*
X172730264Y-108266498D01*
X172730261Y-108266510D01*
X172699500Y-108421153D01*
X160000500Y-108421153D01*
X160000500Y-104921153D01*
X164699500Y-104921153D01*
X164699500Y-105078846D01*
X164730261Y-105233489D01*
X164730264Y-105233501D01*
X164790602Y-105379172D01*
X164790609Y-105379185D01*
X164878210Y-105510288D01*
X164878213Y-105510292D01*
X164989707Y-105621786D01*
X164989711Y-105621789D01*
X165120814Y-105709390D01*
X165120827Y-105709397D01*
X165266498Y-105769735D01*
X165266503Y-105769737D01*
X165421153Y-105800499D01*
X165421156Y-105800500D01*
X165421158Y-105800500D01*
X165578844Y-105800500D01*
X165578845Y-105800499D01*
X165733497Y-105769737D01*
X165879179Y-105709394D01*
X166010289Y-105621789D01*
X166121789Y-105510289D01*
X166209394Y-105379179D01*
X166269737Y-105233497D01*
X166291958Y-105121786D01*
X166300638Y-105078150D01*
X166333023Y-105016239D01*
X166334515Y-105014719D01*
X166980520Y-104368716D01*
X167059577Y-104231784D01*
X167100501Y-104079057D01*
X167100501Y-103920942D01*
X167100501Y-103913347D01*
X167100500Y-103913329D01*
X167100500Y-103079765D01*
X167120185Y-103012726D01*
X167121398Y-103010874D01*
X167209390Y-102879185D01*
X167209390Y-102879184D01*
X167209394Y-102879179D01*
X167269737Y-102733497D01*
X167300500Y-102578842D01*
X167300500Y-102421158D01*
X167300500Y-102421155D01*
X167300499Y-102421153D01*
X167269738Y-102266510D01*
X167269737Y-102266503D01*
X167251142Y-102221610D01*
X167209397Y-102120827D01*
X167209390Y-102120814D01*
X167121789Y-101989711D01*
X167121786Y-101989707D01*
X167010292Y-101878213D01*
X167010288Y-101878210D01*
X166879185Y-101790609D01*
X166879172Y-101790602D01*
X166733501Y-101730264D01*
X166733489Y-101730261D01*
X166578845Y-101699500D01*
X166578842Y-101699500D01*
X166421158Y-101699500D01*
X166421155Y-101699500D01*
X166266510Y-101730261D01*
X166266498Y-101730264D01*
X166120827Y-101790602D01*
X166120814Y-101790609D01*
X165989711Y-101878210D01*
X165989707Y-101878213D01*
X165878213Y-101989707D01*
X165878210Y-101989711D01*
X165790609Y-102120814D01*
X165790602Y-102120827D01*
X165730264Y-102266498D01*
X165730261Y-102266510D01*
X165699500Y-102421153D01*
X165699500Y-102578846D01*
X165730261Y-102733489D01*
X165730264Y-102733501D01*
X165790602Y-102879172D01*
X165790609Y-102879185D01*
X165878602Y-103010874D01*
X165899480Y-103077551D01*
X165899500Y-103079765D01*
X165899500Y-103699902D01*
X165879815Y-103766941D01*
X165863181Y-103787583D01*
X165485339Y-104165425D01*
X165424016Y-104198910D01*
X165421850Y-104199361D01*
X165266508Y-104230261D01*
X165266498Y-104230264D01*
X165120827Y-104290602D01*
X165120814Y-104290609D01*
X164989711Y-104378210D01*
X164989707Y-104378213D01*
X164878213Y-104489707D01*
X164878210Y-104489711D01*
X164790609Y-104620814D01*
X164790602Y-104620827D01*
X164730264Y-104766498D01*
X164730261Y-104766510D01*
X164699500Y-104921153D01*
X160000500Y-104921153D01*
X160000500Y-73033713D01*
X160649500Y-73033713D01*
X160649500Y-73246287D01*
X160682754Y-73456243D01*
X160693628Y-73489711D01*
X160748444Y-73658414D01*
X160844951Y-73847820D01*
X160969890Y-74019786D01*
X161120213Y-74170109D01*
X161292182Y-74295050D01*
X161300946Y-74299516D01*
X161351742Y-74347491D01*
X161368536Y-74415312D01*
X161345998Y-74481447D01*
X161300946Y-74520484D01*
X161292182Y-74524949D01*
X161120213Y-74649890D01*
X160969890Y-74800213D01*
X160844951Y-74972179D01*
X160748444Y-75161585D01*
X160682753Y-75363760D01*
X160649500Y-75573713D01*
X160649500Y-75786287D01*
X160650184Y-75790606D01*
X160682753Y-75996239D01*
X160748444Y-76198414D01*
X160844951Y-76387820D01*
X160969890Y-76559786D01*
X161120213Y-76710109D01*
X161292182Y-76835050D01*
X161300946Y-76839516D01*
X161351742Y-76887491D01*
X161368536Y-76955312D01*
X161345998Y-77021447D01*
X161300946Y-77060484D01*
X161292182Y-77064949D01*
X161120213Y-77189890D01*
X160969890Y-77340213D01*
X160844951Y-77512179D01*
X160748444Y-77701585D01*
X160682753Y-77903760D01*
X160649500Y-78113713D01*
X160649500Y-78326286D01*
X160682753Y-78536239D01*
X160748444Y-78738414D01*
X160844951Y-78927820D01*
X160969890Y-79099786D01*
X161120213Y-79250109D01*
X161292182Y-79375050D01*
X161300946Y-79379516D01*
X161351742Y-79427491D01*
X161368536Y-79495312D01*
X161345998Y-79561447D01*
X161300946Y-79600484D01*
X161292182Y-79604949D01*
X161120213Y-79729890D01*
X160969890Y-79880213D01*
X160844951Y-80052179D01*
X160748444Y-80241585D01*
X160682753Y-80443760D01*
X160649500Y-80653713D01*
X160649500Y-80866286D01*
X160681669Y-81069397D01*
X160682754Y-81076243D01*
X160700135Y-81129737D01*
X160748444Y-81278414D01*
X160844951Y-81467820D01*
X160969890Y-81639786D01*
X161120213Y-81790109D01*
X161292182Y-81915050D01*
X161300946Y-81919516D01*
X161351742Y-81967491D01*
X161368536Y-82035312D01*
X161345998Y-82101447D01*
X161300946Y-82140484D01*
X161292182Y-82144949D01*
X161120213Y-82269890D01*
X160969890Y-82420213D01*
X160844951Y-82592179D01*
X160748444Y-82781585D01*
X160682753Y-82983760D01*
X160649500Y-83193713D01*
X160649500Y-83406286D01*
X160682753Y-83616239D01*
X160748444Y-83818414D01*
X160844951Y-84007820D01*
X160969890Y-84179786D01*
X161120213Y-84330109D01*
X161292179Y-84455048D01*
X161292181Y-84455049D01*
X161292184Y-84455051D01*
X161301493Y-84459794D01*
X161352290Y-84507766D01*
X161369087Y-84575587D01*
X161346552Y-84641722D01*
X161301505Y-84680760D01*
X161292446Y-84685376D01*
X161292440Y-84685380D01*
X161238282Y-84724727D01*
X161238282Y-84724728D01*
X161870591Y-85357037D01*
X161807007Y-85374075D01*
X161692993Y-85439901D01*
X161599901Y-85532993D01*
X161534075Y-85647007D01*
X161517037Y-85710591D01*
X160884728Y-85078282D01*
X160884727Y-85078282D01*
X160845380Y-85132439D01*
X160748904Y-85321782D01*
X160683242Y-85523869D01*
X160683242Y-85523872D01*
X160650000Y-85733753D01*
X160650000Y-85946246D01*
X160683242Y-86156127D01*
X160683242Y-86156130D01*
X160748904Y-86358217D01*
X160845375Y-86547550D01*
X160884728Y-86601716D01*
X161517037Y-85969408D01*
X161534075Y-86032993D01*
X161599901Y-86147007D01*
X161692993Y-86240099D01*
X161807007Y-86305925D01*
X161870590Y-86322962D01*
X161238282Y-86955269D01*
X161238282Y-86955270D01*
X161292452Y-86994626D01*
X161292451Y-86994626D01*
X161301495Y-86999234D01*
X161352292Y-87047208D01*
X161369087Y-87115029D01*
X161346550Y-87181164D01*
X161301499Y-87220202D01*
X161292182Y-87224949D01*
X161120213Y-87349890D01*
X160969890Y-87500213D01*
X160844951Y-87672179D01*
X160748444Y-87861585D01*
X160682753Y-88063760D01*
X160649500Y-88273713D01*
X160649500Y-88486286D01*
X160682753Y-88696239D01*
X160748444Y-88898414D01*
X160844951Y-89087820D01*
X160969890Y-89259786D01*
X161120213Y-89410109D01*
X161292182Y-89535050D01*
X161300946Y-89539516D01*
X161351742Y-89587491D01*
X161368536Y-89655312D01*
X161345998Y-89721447D01*
X161300946Y-89760484D01*
X161292182Y-89764949D01*
X161120213Y-89889890D01*
X160969890Y-90040213D01*
X160844951Y-90212179D01*
X160748444Y-90401585D01*
X160682753Y-90603760D01*
X160680052Y-90620814D01*
X160649500Y-90813713D01*
X160649500Y-91026287D01*
X160657371Y-91075983D01*
X160682753Y-91236239D01*
X160748444Y-91438414D01*
X160844951Y-91627820D01*
X160969890Y-91799786D01*
X161120213Y-91950109D01*
X161292182Y-92075050D01*
X161300946Y-92079516D01*
X161351742Y-92127491D01*
X161368536Y-92195312D01*
X161345998Y-92261447D01*
X161300946Y-92300484D01*
X161292182Y-92304949D01*
X161120213Y-92429890D01*
X160969890Y-92580213D01*
X160844951Y-92752179D01*
X160748444Y-92941585D01*
X160682753Y-93143760D01*
X160649500Y-93353713D01*
X160649500Y-93566286D01*
X160676906Y-93739324D01*
X160682754Y-93776243D01*
X160722819Y-93899551D01*
X160748444Y-93978414D01*
X160844951Y-94167820D01*
X160969890Y-94339786D01*
X161083818Y-94453714D01*
X161117303Y-94515037D01*
X161112319Y-94584729D01*
X161070447Y-94640662D01*
X161039471Y-94657577D01*
X160907912Y-94706646D01*
X160907906Y-94706649D01*
X160792812Y-94792809D01*
X160792809Y-94792812D01*
X160706649Y-94907906D01*
X160706645Y-94907913D01*
X160656403Y-95042620D01*
X160656401Y-95042627D01*
X160650000Y-95102155D01*
X160650000Y-95750000D01*
X161566988Y-95750000D01*
X161534075Y-95807007D01*
X161500000Y-95934174D01*
X161500000Y-96065826D01*
X161534075Y-96192993D01*
X161566988Y-96250000D01*
X160650000Y-96250000D01*
X160650000Y-96897844D01*
X160656401Y-96957372D01*
X160656403Y-96957379D01*
X160706645Y-97092086D01*
X160706649Y-97092093D01*
X160792809Y-97207187D01*
X160792812Y-97207190D01*
X160907906Y-97293350D01*
X160907913Y-97293354D01*
X161042620Y-97343596D01*
X161042627Y-97343598D01*
X161102155Y-97349999D01*
X161102172Y-97350000D01*
X161750000Y-97350000D01*
X161750000Y-96433012D01*
X161807007Y-96465925D01*
X161934174Y-96500000D01*
X162065826Y-96500000D01*
X162192993Y-96465925D01*
X162250000Y-96433012D01*
X162250000Y-97350000D01*
X162897828Y-97350000D01*
X162897844Y-97349999D01*
X162957372Y-97343598D01*
X162957379Y-97343596D01*
X163092086Y-97293354D01*
X163092093Y-97293350D01*
X163207187Y-97207190D01*
X163207190Y-97207187D01*
X163293350Y-97092093D01*
X163293354Y-97092086D01*
X163343596Y-96957379D01*
X163343598Y-96957372D01*
X163349999Y-96897844D01*
X163350000Y-96897827D01*
X163350000Y-96250000D01*
X162433012Y-96250000D01*
X162465925Y-96192993D01*
X162500000Y-96065826D01*
X162500000Y-95934174D01*
X162465925Y-95807007D01*
X162433012Y-95750000D01*
X163350000Y-95750000D01*
X163350000Y-95102172D01*
X163349999Y-95102155D01*
X163343598Y-95042627D01*
X163343596Y-95042620D01*
X163293354Y-94907913D01*
X163293350Y-94907906D01*
X163207190Y-94792812D01*
X163207187Y-94792809D01*
X163092093Y-94706649D01*
X163092088Y-94706646D01*
X162960528Y-94657577D01*
X162904595Y-94615705D01*
X162880178Y-94550241D01*
X162895030Y-94481968D01*
X162916175Y-94453720D01*
X163030104Y-94339792D01*
X163065840Y-94290606D01*
X163155048Y-94167820D01*
X163155047Y-94167820D01*
X163155051Y-94167816D01*
X163251557Y-93978412D01*
X163317246Y-93776243D01*
X163350500Y-93566287D01*
X163350500Y-93353713D01*
X163317246Y-93143757D01*
X163251557Y-92941588D01*
X163155051Y-92752184D01*
X163155049Y-92752181D01*
X163155048Y-92752179D01*
X163030109Y-92580213D01*
X162879786Y-92429890D01*
X162707820Y-92304951D01*
X162707115Y-92304591D01*
X162699054Y-92300485D01*
X162648259Y-92252512D01*
X162631463Y-92184692D01*
X162653999Y-92118556D01*
X162699054Y-92079515D01*
X162707816Y-92075051D01*
X162729789Y-92059086D01*
X162879786Y-91950109D01*
X162879788Y-91950106D01*
X162879792Y-91950104D01*
X163030104Y-91799792D01*
X163030106Y-91799788D01*
X163030109Y-91799786D01*
X163155048Y-91627820D01*
X163155047Y-91627820D01*
X163155051Y-91627816D01*
X163251557Y-91438412D01*
X163317246Y-91236243D01*
X163350500Y-91026287D01*
X163350500Y-90813713D01*
X163317246Y-90603757D01*
X163251557Y-90401588D01*
X163155051Y-90212184D01*
X163155049Y-90212181D01*
X163155048Y-90212179D01*
X163030109Y-90040213D01*
X162879786Y-89889890D01*
X162707820Y-89764951D01*
X162707115Y-89764591D01*
X162699054Y-89760485D01*
X162648259Y-89712512D01*
X162631463Y-89644692D01*
X162653999Y-89578556D01*
X162699054Y-89539515D01*
X162707816Y-89535051D01*
X162729789Y-89519086D01*
X162879786Y-89410109D01*
X162879788Y-89410106D01*
X162879792Y-89410104D01*
X163030104Y-89259792D01*
X163030106Y-89259788D01*
X163030109Y-89259786D01*
X163155048Y-89087820D01*
X163155047Y-89087820D01*
X163155051Y-89087816D01*
X163251557Y-88898412D01*
X163317246Y-88696243D01*
X163350500Y-88486287D01*
X163350500Y-88273713D01*
X163317246Y-88063757D01*
X163251557Y-87861588D01*
X163155051Y-87672184D01*
X163155049Y-87672181D01*
X163155048Y-87672179D01*
X163030109Y-87500213D01*
X162879786Y-87349890D01*
X162707817Y-87224949D01*
X162698504Y-87220204D01*
X162647707Y-87172230D01*
X162630912Y-87104409D01*
X162653449Y-87038274D01*
X162698507Y-86999232D01*
X162707555Y-86994622D01*
X162761716Y-86955270D01*
X162761717Y-86955270D01*
X162129408Y-86322962D01*
X162192993Y-86305925D01*
X162307007Y-86240099D01*
X162400099Y-86147007D01*
X162465925Y-86032993D01*
X162482962Y-85969408D01*
X163115270Y-86601717D01*
X163115270Y-86601716D01*
X163154622Y-86547554D01*
X163251095Y-86358217D01*
X163316757Y-86156130D01*
X163316757Y-86156127D01*
X163350000Y-85946246D01*
X163350000Y-85733753D01*
X163316757Y-85523872D01*
X163316757Y-85523869D01*
X163251095Y-85321782D01*
X163154624Y-85132449D01*
X163115270Y-85078282D01*
X163115269Y-85078282D01*
X162482962Y-85710590D01*
X162465925Y-85647007D01*
X162400099Y-85532993D01*
X162307007Y-85439901D01*
X162192993Y-85374075D01*
X162129409Y-85357037D01*
X162761716Y-84724728D01*
X162707547Y-84685373D01*
X162707547Y-84685372D01*
X162698500Y-84680763D01*
X162647706Y-84632788D01*
X162630912Y-84564966D01*
X162653451Y-84498832D01*
X162698508Y-84459793D01*
X162707816Y-84455051D01*
X162813578Y-84378211D01*
X162879786Y-84330109D01*
X162879788Y-84330106D01*
X162879792Y-84330104D01*
X163030104Y-84179792D01*
X163030106Y-84179788D01*
X163030109Y-84179786D01*
X163155048Y-84007820D01*
X163155047Y-84007820D01*
X163155051Y-84007816D01*
X163251557Y-83818412D01*
X163317246Y-83616243D01*
X163350500Y-83406287D01*
X163350500Y-83193713D01*
X163317246Y-82983757D01*
X163251557Y-82781588D01*
X163155051Y-82592184D01*
X163155049Y-82592181D01*
X163155048Y-82592179D01*
X163030109Y-82420213D01*
X162879786Y-82269890D01*
X162707820Y-82144951D01*
X162707115Y-82144591D01*
X162699054Y-82140485D01*
X162648259Y-82092512D01*
X162631463Y-82024692D01*
X162653999Y-81958556D01*
X162699054Y-81919515D01*
X162707816Y-81915051D01*
X162729789Y-81899086D01*
X162879786Y-81790109D01*
X162879788Y-81790106D01*
X162879792Y-81790104D01*
X163030104Y-81639792D01*
X163030106Y-81639788D01*
X163030109Y-81639786D01*
X163155048Y-81467820D01*
X163155047Y-81467820D01*
X163155051Y-81467816D01*
X163251557Y-81278412D01*
X163317246Y-81076243D01*
X163350500Y-80866287D01*
X163350500Y-80653713D01*
X163317246Y-80443757D01*
X163251557Y-80241588D01*
X163155051Y-80052184D01*
X163155049Y-80052181D01*
X163155048Y-80052179D01*
X163030109Y-79880213D01*
X162879786Y-79729890D01*
X162707820Y-79604951D01*
X162707115Y-79604591D01*
X162699054Y-79600485D01*
X162648259Y-79552512D01*
X162631463Y-79484692D01*
X162653999Y-79418556D01*
X162699054Y-79379515D01*
X162707816Y-79375051D01*
X162729789Y-79359086D01*
X162879786Y-79250109D01*
X162879788Y-79250106D01*
X162879792Y-79250104D01*
X163030104Y-79099792D01*
X163030106Y-79099788D01*
X163030109Y-79099786D01*
X163155048Y-78927820D01*
X163155047Y-78927820D01*
X163155051Y-78927816D01*
X163251557Y-78738412D01*
X163317246Y-78536243D01*
X163350500Y-78326287D01*
X163350500Y-78113713D01*
X163317246Y-77903757D01*
X163251557Y-77701588D01*
X163155051Y-77512184D01*
X163155049Y-77512181D01*
X163155048Y-77512179D01*
X163030109Y-77340213D01*
X162879786Y-77189890D01*
X162707820Y-77064951D01*
X162707115Y-77064591D01*
X162699054Y-77060485D01*
X162648259Y-77012512D01*
X162631463Y-76944692D01*
X162653999Y-76878556D01*
X162699054Y-76839515D01*
X162707816Y-76835051D01*
X162729789Y-76819086D01*
X162879786Y-76710109D01*
X162879788Y-76710106D01*
X162879792Y-76710104D01*
X163030104Y-76559792D01*
X163030106Y-76559788D01*
X163030109Y-76559786D01*
X163155048Y-76387820D01*
X163155047Y-76387820D01*
X163155051Y-76387816D01*
X163251557Y-76198412D01*
X163317246Y-75996243D01*
X163350500Y-75786287D01*
X163350500Y-75573713D01*
X163317246Y-75363757D01*
X163251557Y-75161588D01*
X163155051Y-74972184D01*
X163155049Y-74972181D01*
X163155048Y-74972179D01*
X163030109Y-74800213D01*
X162879786Y-74649890D01*
X162707820Y-74524951D01*
X162707115Y-74524591D01*
X162699054Y-74520485D01*
X162648259Y-74472512D01*
X162631463Y-74404692D01*
X162653999Y-74338556D01*
X162699054Y-74299515D01*
X162707816Y-74295051D01*
X162792533Y-74233501D01*
X162879786Y-74170109D01*
X162879788Y-74170106D01*
X162879792Y-74170104D01*
X163030104Y-74019792D01*
X163030106Y-74019788D01*
X163030109Y-74019786D01*
X163155048Y-73847820D01*
X163155047Y-73847820D01*
X163155051Y-73847816D01*
X163251557Y-73658412D01*
X163317246Y-73456243D01*
X163350500Y-73246287D01*
X163350500Y-73033713D01*
X163317246Y-72823757D01*
X163251557Y-72621588D01*
X163155051Y-72432184D01*
X163155049Y-72432181D01*
X163155048Y-72432179D01*
X163030109Y-72260213D01*
X162879786Y-72109890D01*
X162707820Y-71984951D01*
X162518414Y-71888444D01*
X162518413Y-71888443D01*
X162518412Y-71888443D01*
X162316243Y-71822754D01*
X162316241Y-71822753D01*
X162316240Y-71822753D01*
X162154957Y-71797208D01*
X162106287Y-71789500D01*
X161893713Y-71789500D01*
X161845042Y-71797208D01*
X161683760Y-71822753D01*
X161481585Y-71888444D01*
X161292179Y-71984951D01*
X161120213Y-72109890D01*
X160969890Y-72260213D01*
X160844951Y-72432179D01*
X160748444Y-72621585D01*
X160682753Y-72823760D01*
X160649500Y-73033713D01*
X160000500Y-73033713D01*
X160000500Y-72503750D01*
X160000726Y-72496263D01*
X160015004Y-72260213D01*
X160018271Y-72206201D01*
X160020076Y-72191340D01*
X160035003Y-72109890D01*
X160071780Y-71909197D01*
X160075364Y-71894663D01*
X160077302Y-71888444D01*
X160160696Y-71620822D01*
X160165998Y-71606841D01*
X160283731Y-71345249D01*
X160290676Y-71332016D01*
X160439080Y-71086526D01*
X160447567Y-71074230D01*
X160624480Y-70848417D01*
X160634395Y-70837226D01*
X160837226Y-70634395D01*
X160848417Y-70624480D01*
X161074230Y-70447567D01*
X161086526Y-70439080D01*
X161332016Y-70290676D01*
X161345249Y-70283731D01*
X161606841Y-70165998D01*
X161620822Y-70160696D01*
X161894668Y-70075362D01*
X161909197Y-70071780D01*
X162191344Y-70020075D01*
X162206201Y-70018271D01*
X162496264Y-70000726D01*
X162503751Y-70000500D01*
X162565892Y-70000500D01*
X211434108Y-70000500D01*
X211496249Y-70000500D01*
X211503736Y-70000726D01*
G37*
%TD.AperFunction*%
%TD*%
M02*
