M48
; DRILL file {KiCad 9.0.7} date 2026-03-05T20:10:06+0100
; FORMAT={-:-/ absolute / metric / decimal}
; #@! TF.CreationDate,2026-03-05T20:10:06+01:00
; #@! TF.GenerationSoftware,Kicad,Pcbnew,9.0.7
; #@! TF.FileFunction,Plated,1,2,PTH
FMAT,2
METRIC
; #@! TA.AperFunction,Plated,PTH,ViaDrill
T1C0.300
; #@! TA.AperFunction,Plated,PTH,ViaDrill
T2C0.400
; #@! TA.AperFunction,Plated,PTH,ComponentDrill
T3C0.750
; #@! TA.AperFunction,Plated,PTH,ComponentDrill
T4C1.000
%
G90
G05
T1
X87.63Y-91.44
X88.835Y-113.585
X88.9Y-127.0
X90.17Y-117.06
X94.5Y-100.5
X120.65Y-150.85
X128.27Y-150.85
X129.54Y-144.78
X133.35Y-137.16
X138.43Y-142.24
X139.6Y-126.8
T2
X90.17Y-132.08
X109.22Y-105.41
X113.03Y-101.6
X113.03Y-148.31
X115.57Y-147.04
X116.84Y-148.31
X120.65Y-145.77
T3
X97.5Y-148.05
X99.5Y-148.05
T4
X83.82Y-89.46
X83.82Y-92.0
X83.82Y-94.54
X83.82Y-97.08
X83.82Y-104.18
X83.82Y-106.72
X83.82Y-109.26
X83.82Y-111.8
X83.82Y-114.34
X83.82Y-116.88
X83.82Y-119.42
X83.82Y-121.96
X83.82Y-124.5
X83.82Y-127.04
X83.82Y-130.78
X83.82Y-135.28
X83.82Y-140.28
X83.82Y-144.78
X100.0Y-82.55
X100.0Y-85.09
X100.0Y-87.63
X100.0Y-90.17
X100.0Y-92.71
X100.0Y-95.25
X100.0Y-97.79
X100.0Y-100.33
X100.0Y-102.87
X100.0Y-105.41
X100.0Y-107.95
X100.0Y-110.49
X100.0Y-113.03
X100.0Y-115.57
X100.0Y-118.11
X100.0Y-120.65
X100.0Y-123.19
X100.0Y-125.73
X100.0Y-128.27
X100.0Y-130.81
X100.0Y-133.35
X100.0Y-135.89
X125.4Y-82.55
X125.4Y-85.09
X125.4Y-87.63
X125.4Y-90.17
X125.4Y-92.71
X125.4Y-95.25
X125.4Y-97.79
X125.4Y-100.33
X125.4Y-102.87
X125.4Y-105.41
X125.4Y-107.95
X125.4Y-110.49
X125.4Y-113.03
X125.4Y-115.57
X125.4Y-118.11
X125.4Y-120.65
X125.4Y-123.19
X125.4Y-125.73
X125.4Y-128.27
X125.4Y-130.81
X125.4Y-133.35
X125.4Y-135.89
X138.43Y-117.0
X138.43Y-119.54
M30
