%TF.GenerationSoftware,KiCad,Pcbnew,9.0.7*%
%TF.CreationDate,2026-03-05T20:10:06+01:00*%
%TF.ProjectId,X4CMoscatel,5834434d-6f73-4636-9174-656c2e6b6963,rev?*%
%TF.SameCoordinates,Original*%
%TF.FileFunction,Drillmap*%
%TF.FilePolarity,Positive*%
%FSLAX45Y45*%
G04 Gerber Fmt 4.5, Leading zero omitted, Abs format (unit mm)*
G04 Created by KiCad (PCBNEW 9.0.7) date 2026-03-05 20:10:06*
%MOMM*%
%LPD*%
G01*
G04 APERTURE LIST*
%ADD10C,0.050000*%
%ADD11C,0.200000*%
%ADD12C,0.100000*%
G04 APERTURE END LIST*
D10*
X8150000Y-8250000D02*
X8150000Y-15250000D01*
X8400000Y-15500000D02*
X13900000Y-15500000D01*
X13900000Y-8000000D02*
X8400000Y-8000000D01*
X14150000Y-15250000D02*
X14150000Y-8250000D01*
X8400000Y-15500000D02*
G75*
G02*
X8150000Y-15250000I0J250000D01*
G01*
X14150000Y-15250000D02*
G75*
G02*
X13900000Y-15500000I-250000J0D01*
G01*
X8150000Y-8250000D02*
G75*
G02*
X8400000Y-8000000I250000J0D01*
G01*
X13900000Y-8000000D02*
G75*
G02*
X14150000Y-8250000I0J-250000D01*
G01*
D11*
D12*
X8748000Y-9129000D02*
X8778000Y-9159000D01*
X8778000Y-9129000D02*
X8748000Y-9159000D01*
X8868500Y-11343500D02*
X8898500Y-11373500D01*
X8898500Y-11343500D02*
X8868500Y-11373500D01*
X8875000Y-12685000D02*
X8905000Y-12715000D01*
X8905000Y-12685000D02*
X8875000Y-12715000D01*
X9002000Y-11691000D02*
X9032000Y-11721000D01*
X9032000Y-11691000D02*
X9002000Y-11721000D01*
X9435000Y-10035000D02*
X9465000Y-10065000D01*
X9465000Y-10035000D02*
X9435000Y-10065000D01*
X12050000Y-15070000D02*
X12080000Y-15100000D01*
X12080000Y-15070000D02*
X12050000Y-15100000D01*
X12812000Y-15070000D02*
X12842000Y-15100000D01*
X12842000Y-15070000D02*
X12812000Y-15100000D01*
X12939000Y-14463000D02*
X12969000Y-14493000D01*
X12969000Y-14463000D02*
X12939000Y-14493000D01*
X13320000Y-13701000D02*
X13350000Y-13731000D01*
X13350000Y-13701000D02*
X13320000Y-13731000D01*
X13828000Y-14209000D02*
X13858000Y-14239000D01*
X13858000Y-14209000D02*
X13828000Y-14239000D01*
X13945000Y-12665000D02*
X13975000Y-12695000D01*
X13975000Y-12665000D02*
X13945000Y-12695000D01*
X9037000Y-13208000D02*
G75*
G02*
X8997000Y-13208000I-20000J0D01*
G01*
X8997000Y-13208000D02*
G75*
G02*
X9037000Y-13208000I20000J0D01*
G01*
X10942000Y-10541000D02*
G75*
G02*
X10902000Y-10541000I-20000J0D01*
G01*
X10902000Y-10541000D02*
G75*
G02*
X10942000Y-10541000I20000J0D01*
G01*
X11323000Y-10160000D02*
G75*
G02*
X11283000Y-10160000I-20000J0D01*
G01*
X11283000Y-10160000D02*
G75*
G02*
X11323000Y-10160000I20000J0D01*
G01*
X11323000Y-14831000D02*
G75*
G02*
X11283000Y-14831000I-20000J0D01*
G01*
X11283000Y-14831000D02*
G75*
G02*
X11323000Y-14831000I20000J0D01*
G01*
X11577000Y-14704000D02*
G75*
G02*
X11537000Y-14704000I-20000J0D01*
G01*
X11537000Y-14704000D02*
G75*
G02*
X11577000Y-14704000I20000J0D01*
G01*
X11704000Y-14831000D02*
G75*
G02*
X11664000Y-14831000I-20000J0D01*
G01*
X11664000Y-14831000D02*
G75*
G02*
X11704000Y-14831000I20000J0D01*
G01*
X12085000Y-14577000D02*
G75*
G02*
X12045000Y-14577000I-20000J0D01*
G01*
X12045000Y-14577000D02*
G75*
G02*
X12085000Y-14577000I20000J0D01*
G01*
X9750000Y-14767500D02*
X9750000Y-14842500D01*
X9712500Y-14805000D02*
X9787500Y-14805000D01*
X9950000Y-14767500D02*
X9950000Y-14842500D01*
X9912500Y-14805000D02*
X9987500Y-14805000D01*
X8417356Y-8981356D02*
X8417356Y-8910644D01*
X8346644Y-8910644D01*
X8346644Y-8981356D01*
X8417356Y-8981356D01*
X8417356Y-9235356D02*
X8417356Y-9164644D01*
X8346644Y-9164644D01*
X8346644Y-9235356D01*
X8417356Y-9235356D01*
X8417356Y-9489356D02*
X8417356Y-9418644D01*
X8346644Y-9418644D01*
X8346644Y-9489356D01*
X8417356Y-9489356D01*
X8417356Y-9743356D02*
X8417356Y-9672644D01*
X8346644Y-9672644D01*
X8346644Y-9743356D01*
X8417356Y-9743356D01*
X8417356Y-10453356D02*
X8417356Y-10382644D01*
X8346644Y-10382644D01*
X8346644Y-10453356D01*
X8417356Y-10453356D01*
X8417356Y-10707356D02*
X8417356Y-10636644D01*
X8346644Y-10636644D01*
X8346644Y-10707356D01*
X8417356Y-10707356D01*
X8417356Y-10961356D02*
X8417356Y-10890644D01*
X8346644Y-10890644D01*
X8346644Y-10961356D01*
X8417356Y-10961356D01*
X8417356Y-11215356D02*
X8417356Y-11144644D01*
X8346644Y-11144644D01*
X8346644Y-11215356D01*
X8417356Y-11215356D01*
X8417356Y-11469356D02*
X8417356Y-11398644D01*
X8346644Y-11398644D01*
X8346644Y-11469356D01*
X8417356Y-11469356D01*
X8417356Y-11723356D02*
X8417356Y-11652644D01*
X8346644Y-11652644D01*
X8346644Y-11723356D01*
X8417356Y-11723356D01*
X8417356Y-11977356D02*
X8417356Y-11906644D01*
X8346644Y-11906644D01*
X8346644Y-11977356D01*
X8417356Y-11977356D01*
X8417356Y-12231356D02*
X8417356Y-12160644D01*
X8346644Y-12160644D01*
X8346644Y-12231356D01*
X8417356Y-12231356D01*
X8417356Y-12485356D02*
X8417356Y-12414644D01*
X8346644Y-12414644D01*
X8346644Y-12485356D01*
X8417356Y-12485356D01*
X8417356Y-12739356D02*
X8417356Y-12668644D01*
X8346644Y-12668644D01*
X8346644Y-12739356D01*
X8417356Y-12739356D01*
X8417356Y-13113356D02*
X8417356Y-13042644D01*
X8346644Y-13042644D01*
X8346644Y-13113356D01*
X8417356Y-13113356D01*
X8417356Y-13563356D02*
X8417356Y-13492644D01*
X8346644Y-13492644D01*
X8346644Y-13563356D01*
X8417356Y-13563356D01*
X8417356Y-14063356D02*
X8417356Y-13992644D01*
X8346644Y-13992644D01*
X8346644Y-14063356D01*
X8417356Y-14063356D01*
X8417356Y-14513356D02*
X8417356Y-14442644D01*
X8346644Y-14442644D01*
X8346644Y-14513356D01*
X8417356Y-14513356D01*
X10035356Y-8290356D02*
X10035356Y-8219644D01*
X9964644Y-8219644D01*
X9964644Y-8290356D01*
X10035356Y-8290356D01*
X10035356Y-8544356D02*
X10035356Y-8473644D01*
X9964644Y-8473644D01*
X9964644Y-8544356D01*
X10035356Y-8544356D01*
X10035356Y-8798356D02*
X10035356Y-8727644D01*
X9964644Y-8727644D01*
X9964644Y-8798356D01*
X10035356Y-8798356D01*
X10035356Y-9052356D02*
X10035356Y-8981644D01*
X9964644Y-8981644D01*
X9964644Y-9052356D01*
X10035356Y-9052356D01*
X10035356Y-9306356D02*
X10035356Y-9235644D01*
X9964644Y-9235644D01*
X9964644Y-9306356D01*
X10035356Y-9306356D01*
X10035356Y-9560356D02*
X10035356Y-9489644D01*
X9964644Y-9489644D01*
X9964644Y-9560356D01*
X10035356Y-9560356D01*
X10035356Y-9814356D02*
X10035356Y-9743644D01*
X9964644Y-9743644D01*
X9964644Y-9814356D01*
X10035356Y-9814356D01*
X10035356Y-10068356D02*
X10035356Y-9997644D01*
X9964644Y-9997644D01*
X9964644Y-10068356D01*
X10035356Y-10068356D01*
X10035356Y-10322356D02*
X10035356Y-10251644D01*
X9964644Y-10251644D01*
X9964644Y-10322356D01*
X10035356Y-10322356D01*
X10035356Y-10576356D02*
X10035356Y-10505644D01*
X9964644Y-10505644D01*
X9964644Y-10576356D01*
X10035356Y-10576356D01*
X10035356Y-10830356D02*
X10035356Y-10759644D01*
X9964644Y-10759644D01*
X9964644Y-10830356D01*
X10035356Y-10830356D01*
X10035356Y-11084356D02*
X10035356Y-11013644D01*
X9964644Y-11013644D01*
X9964644Y-11084356D01*
X10035356Y-11084356D01*
X10035356Y-11338356D02*
X10035356Y-11267644D01*
X9964644Y-11267644D01*
X9964644Y-11338356D01*
X10035356Y-11338356D01*
X10035356Y-11592356D02*
X10035356Y-11521644D01*
X9964644Y-11521644D01*
X9964644Y-11592356D01*
X10035356Y-11592356D01*
X10035356Y-11846356D02*
X10035356Y-11775644D01*
X9964644Y-11775644D01*
X9964644Y-11846356D01*
X10035356Y-11846356D01*
X10035356Y-12100356D02*
X10035356Y-12029644D01*
X9964644Y-12029644D01*
X9964644Y-12100356D01*
X10035356Y-12100356D01*
X10035356Y-12354356D02*
X10035356Y-12283644D01*
X9964644Y-12283644D01*
X9964644Y-12354356D01*
X10035356Y-12354356D01*
X10035356Y-12608356D02*
X10035356Y-12537644D01*
X9964644Y-12537644D01*
X9964644Y-12608356D01*
X10035356Y-12608356D01*
X10035356Y-12862356D02*
X10035356Y-12791644D01*
X9964644Y-12791644D01*
X9964644Y-12862356D01*
X10035356Y-12862356D01*
X10035356Y-13116356D02*
X10035356Y-13045644D01*
X9964644Y-13045644D01*
X9964644Y-13116356D01*
X10035356Y-13116356D01*
X10035356Y-13370356D02*
X10035356Y-13299644D01*
X9964644Y-13299644D01*
X9964644Y-13370356D01*
X10035356Y-13370356D01*
X10035356Y-13624356D02*
X10035356Y-13553644D01*
X9964644Y-13553644D01*
X9964644Y-13624356D01*
X10035356Y-13624356D01*
X12575356Y-8290356D02*
X12575356Y-8219644D01*
X12504644Y-8219644D01*
X12504644Y-8290356D01*
X12575356Y-8290356D01*
X12575356Y-8544356D02*
X12575356Y-8473644D01*
X12504644Y-8473644D01*
X12504644Y-8544356D01*
X12575356Y-8544356D01*
X12575356Y-8798356D02*
X12575356Y-8727644D01*
X12504644Y-8727644D01*
X12504644Y-8798356D01*
X12575356Y-8798356D01*
X12575356Y-9052356D02*
X12575356Y-8981644D01*
X12504644Y-8981644D01*
X12504644Y-9052356D01*
X12575356Y-9052356D01*
X12575356Y-9306356D02*
X12575356Y-9235644D01*
X12504644Y-9235644D01*
X12504644Y-9306356D01*
X12575356Y-9306356D01*
X12575356Y-9560356D02*
X12575356Y-9489644D01*
X12504644Y-9489644D01*
X12504644Y-9560356D01*
X12575356Y-9560356D01*
X12575356Y-9814356D02*
X12575356Y-9743644D01*
X12504644Y-9743644D01*
X12504644Y-9814356D01*
X12575356Y-9814356D01*
X12575356Y-10068356D02*
X12575356Y-9997644D01*
X12504644Y-9997644D01*
X12504644Y-10068356D01*
X12575356Y-10068356D01*
X12575356Y-10322356D02*
X12575356Y-10251644D01*
X12504644Y-10251644D01*
X12504644Y-10322356D01*
X12575356Y-10322356D01*
X12575356Y-10576356D02*
X12575356Y-10505644D01*
X12504644Y-10505644D01*
X12504644Y-10576356D01*
X12575356Y-10576356D01*
X12575356Y-10830356D02*
X12575356Y-10759644D01*
X12504644Y-10759644D01*
X12504644Y-10830356D01*
X12575356Y-10830356D01*
X12575356Y-11084356D02*
X12575356Y-11013644D01*
X12504644Y-11013644D01*
X12504644Y-11084356D01*
X12575356Y-11084356D01*
X12575356Y-11338356D02*
X12575356Y-11267644D01*
X12504644Y-11267644D01*
X12504644Y-11338356D01*
X12575356Y-11338356D01*
X12575356Y-11592356D02*
X12575356Y-11521644D01*
X12504644Y-11521644D01*
X12504644Y-11592356D01*
X12575356Y-11592356D01*
X12575356Y-11846356D02*
X12575356Y-11775644D01*
X12504644Y-11775644D01*
X12504644Y-11846356D01*
X12575356Y-11846356D01*
X12575356Y-12100356D02*
X12575356Y-12029644D01*
X12504644Y-12029644D01*
X12504644Y-12100356D01*
X12575356Y-12100356D01*
X12575356Y-12354356D02*
X12575356Y-12283644D01*
X12504644Y-12283644D01*
X12504644Y-12354356D01*
X12575356Y-12354356D01*
X12575356Y-12608356D02*
X12575356Y-12537644D01*
X12504644Y-12537644D01*
X12504644Y-12608356D01*
X12575356Y-12608356D01*
X12575356Y-12862356D02*
X12575356Y-12791644D01*
X12504644Y-12791644D01*
X12504644Y-12862356D01*
X12575356Y-12862356D01*
X12575356Y-13116356D02*
X12575356Y-13045644D01*
X12504644Y-13045644D01*
X12504644Y-13116356D01*
X12575356Y-13116356D01*
X12575356Y-13370356D02*
X12575356Y-13299644D01*
X12504644Y-13299644D01*
X12504644Y-13370356D01*
X12575356Y-13370356D01*
X12575356Y-13624356D02*
X12575356Y-13553644D01*
X12504644Y-13553644D01*
X12504644Y-13624356D01*
X12575356Y-13624356D01*
X13878356Y-11735356D02*
X13878356Y-11664644D01*
X13807644Y-11664644D01*
X13807644Y-11735356D01*
X13878356Y-11735356D01*
X13878356Y-11989356D02*
X13878356Y-11918644D01*
X13807644Y-11918644D01*
X13807644Y-11989356D01*
X13878356Y-11989356D01*
D11*
X8408277Y-15813984D02*
X8408277Y-15613984D01*
X8408277Y-15613984D02*
X8455896Y-15613984D01*
X8455896Y-15613984D02*
X8484467Y-15623508D01*
X8484467Y-15623508D02*
X8503515Y-15642555D01*
X8503515Y-15642555D02*
X8513039Y-15661603D01*
X8513039Y-15661603D02*
X8522563Y-15699698D01*
X8522563Y-15699698D02*
X8522563Y-15728269D01*
X8522563Y-15728269D02*
X8513039Y-15766365D01*
X8513039Y-15766365D02*
X8503515Y-15785412D01*
X8503515Y-15785412D02*
X8484467Y-15804460D01*
X8484467Y-15804460D02*
X8455896Y-15813984D01*
X8455896Y-15813984D02*
X8408277Y-15813984D01*
X8608277Y-15813984D02*
X8608277Y-15680650D01*
X8608277Y-15718746D02*
X8617801Y-15699698D01*
X8617801Y-15699698D02*
X8627324Y-15690174D01*
X8627324Y-15690174D02*
X8646372Y-15680650D01*
X8646372Y-15680650D02*
X8665420Y-15680650D01*
X8732086Y-15813984D02*
X8732086Y-15680650D01*
X8732086Y-15613984D02*
X8722563Y-15623508D01*
X8722563Y-15623508D02*
X8732086Y-15633031D01*
X8732086Y-15633031D02*
X8741610Y-15623508D01*
X8741610Y-15623508D02*
X8732086Y-15613984D01*
X8732086Y-15613984D02*
X8732086Y-15633031D01*
X8855896Y-15813984D02*
X8836848Y-15804460D01*
X8836848Y-15804460D02*
X8827324Y-15785412D01*
X8827324Y-15785412D02*
X8827324Y-15613984D01*
X8960658Y-15813984D02*
X8941610Y-15804460D01*
X8941610Y-15804460D02*
X8932086Y-15785412D01*
X8932086Y-15785412D02*
X8932086Y-15613984D01*
X9189229Y-15813984D02*
X9189229Y-15613984D01*
X9189229Y-15613984D02*
X9255896Y-15756841D01*
X9255896Y-15756841D02*
X9322563Y-15613984D01*
X9322563Y-15613984D02*
X9322563Y-15813984D01*
X9503515Y-15813984D02*
X9503515Y-15709222D01*
X9503515Y-15709222D02*
X9493991Y-15690174D01*
X9493991Y-15690174D02*
X9474944Y-15680650D01*
X9474944Y-15680650D02*
X9436848Y-15680650D01*
X9436848Y-15680650D02*
X9417801Y-15690174D01*
X9503515Y-15804460D02*
X9484467Y-15813984D01*
X9484467Y-15813984D02*
X9436848Y-15813984D01*
X9436848Y-15813984D02*
X9417801Y-15804460D01*
X9417801Y-15804460D02*
X9408277Y-15785412D01*
X9408277Y-15785412D02*
X9408277Y-15766365D01*
X9408277Y-15766365D02*
X9417801Y-15747317D01*
X9417801Y-15747317D02*
X9436848Y-15737793D01*
X9436848Y-15737793D02*
X9484467Y-15737793D01*
X9484467Y-15737793D02*
X9503515Y-15728269D01*
X9598753Y-15680650D02*
X9598753Y-15880650D01*
X9598753Y-15690174D02*
X9617801Y-15680650D01*
X9617801Y-15680650D02*
X9655896Y-15680650D01*
X9655896Y-15680650D02*
X9674944Y-15690174D01*
X9674944Y-15690174D02*
X9684467Y-15699698D01*
X9684467Y-15699698D02*
X9693991Y-15718746D01*
X9693991Y-15718746D02*
X9693991Y-15775888D01*
X9693991Y-15775888D02*
X9684467Y-15794936D01*
X9684467Y-15794936D02*
X9674944Y-15804460D01*
X9674944Y-15804460D02*
X9655896Y-15813984D01*
X9655896Y-15813984D02*
X9617801Y-15813984D01*
X9617801Y-15813984D02*
X9598753Y-15804460D01*
X9779705Y-15794936D02*
X9789229Y-15804460D01*
X9789229Y-15804460D02*
X9779705Y-15813984D01*
X9779705Y-15813984D02*
X9770182Y-15804460D01*
X9770182Y-15804460D02*
X9779705Y-15794936D01*
X9779705Y-15794936D02*
X9779705Y-15813984D01*
X9779705Y-15690174D02*
X9789229Y-15699698D01*
X9789229Y-15699698D02*
X9779705Y-15709222D01*
X9779705Y-15709222D02*
X9770182Y-15699698D01*
X9770182Y-15699698D02*
X9779705Y-15690174D01*
X9779705Y-15690174D02*
X9779705Y-15709222D01*
D12*
X8117500Y-16127500D02*
X8147500Y-16157500D01*
X8147500Y-16127500D02*
X8117500Y-16157500D01*
D11*
X8446372Y-16033984D02*
X8465420Y-16033984D01*
X8465420Y-16033984D02*
X8484467Y-16043508D01*
X8484467Y-16043508D02*
X8493991Y-16053031D01*
X8493991Y-16053031D02*
X8503515Y-16072079D01*
X8503515Y-16072079D02*
X8513039Y-16110174D01*
X8513039Y-16110174D02*
X8513039Y-16157793D01*
X8513039Y-16157793D02*
X8503515Y-16195888D01*
X8503515Y-16195888D02*
X8493991Y-16214936D01*
X8493991Y-16214936D02*
X8484467Y-16224460D01*
X8484467Y-16224460D02*
X8465420Y-16233984D01*
X8465420Y-16233984D02*
X8446372Y-16233984D01*
X8446372Y-16233984D02*
X8427324Y-16224460D01*
X8427324Y-16224460D02*
X8417801Y-16214936D01*
X8417801Y-16214936D02*
X8408277Y-16195888D01*
X8408277Y-16195888D02*
X8398753Y-16157793D01*
X8398753Y-16157793D02*
X8398753Y-16110174D01*
X8398753Y-16110174D02*
X8408277Y-16072079D01*
X8408277Y-16072079D02*
X8417801Y-16053031D01*
X8417801Y-16053031D02*
X8427324Y-16043508D01*
X8427324Y-16043508D02*
X8446372Y-16033984D01*
X8598753Y-16214936D02*
X8608277Y-16224460D01*
X8608277Y-16224460D02*
X8598753Y-16233984D01*
X8598753Y-16233984D02*
X8589229Y-16224460D01*
X8589229Y-16224460D02*
X8598753Y-16214936D01*
X8598753Y-16214936D02*
X8598753Y-16233984D01*
X8674944Y-16033984D02*
X8798753Y-16033984D01*
X8798753Y-16033984D02*
X8732086Y-16110174D01*
X8732086Y-16110174D02*
X8760658Y-16110174D01*
X8760658Y-16110174D02*
X8779705Y-16119698D01*
X8779705Y-16119698D02*
X8789229Y-16129222D01*
X8789229Y-16129222D02*
X8798753Y-16148269D01*
X8798753Y-16148269D02*
X8798753Y-16195888D01*
X8798753Y-16195888D02*
X8789229Y-16214936D01*
X8789229Y-16214936D02*
X8779705Y-16224460D01*
X8779705Y-16224460D02*
X8760658Y-16233984D01*
X8760658Y-16233984D02*
X8703515Y-16233984D01*
X8703515Y-16233984D02*
X8684467Y-16224460D01*
X8684467Y-16224460D02*
X8674944Y-16214936D01*
X8922563Y-16033984D02*
X8941610Y-16033984D01*
X8941610Y-16033984D02*
X8960658Y-16043508D01*
X8960658Y-16043508D02*
X8970182Y-16053031D01*
X8970182Y-16053031D02*
X8979705Y-16072079D01*
X8979705Y-16072079D02*
X8989229Y-16110174D01*
X8989229Y-16110174D02*
X8989229Y-16157793D01*
X8989229Y-16157793D02*
X8979705Y-16195888D01*
X8979705Y-16195888D02*
X8970182Y-16214936D01*
X8970182Y-16214936D02*
X8960658Y-16224460D01*
X8960658Y-16224460D02*
X8941610Y-16233984D01*
X8941610Y-16233984D02*
X8922563Y-16233984D01*
X8922563Y-16233984D02*
X8903515Y-16224460D01*
X8903515Y-16224460D02*
X8893991Y-16214936D01*
X8893991Y-16214936D02*
X8884467Y-16195888D01*
X8884467Y-16195888D02*
X8874944Y-16157793D01*
X8874944Y-16157793D02*
X8874944Y-16110174D01*
X8874944Y-16110174D02*
X8884467Y-16072079D01*
X8884467Y-16072079D02*
X8893991Y-16053031D01*
X8893991Y-16053031D02*
X8903515Y-16043508D01*
X8903515Y-16043508D02*
X8922563Y-16033984D01*
X9113039Y-16033984D02*
X9132086Y-16033984D01*
X9132086Y-16033984D02*
X9151134Y-16043508D01*
X9151134Y-16043508D02*
X9160658Y-16053031D01*
X9160658Y-16053031D02*
X9170182Y-16072079D01*
X9170182Y-16072079D02*
X9179705Y-16110174D01*
X9179705Y-16110174D02*
X9179705Y-16157793D01*
X9179705Y-16157793D02*
X9170182Y-16195888D01*
X9170182Y-16195888D02*
X9160658Y-16214936D01*
X9160658Y-16214936D02*
X9151134Y-16224460D01*
X9151134Y-16224460D02*
X9132086Y-16233984D01*
X9132086Y-16233984D02*
X9113039Y-16233984D01*
X9113039Y-16233984D02*
X9093991Y-16224460D01*
X9093991Y-16224460D02*
X9084467Y-16214936D01*
X9084467Y-16214936D02*
X9074944Y-16195888D01*
X9074944Y-16195888D02*
X9065420Y-16157793D01*
X9065420Y-16157793D02*
X9065420Y-16110174D01*
X9065420Y-16110174D02*
X9074944Y-16072079D01*
X9074944Y-16072079D02*
X9084467Y-16053031D01*
X9084467Y-16053031D02*
X9093991Y-16043508D01*
X9093991Y-16043508D02*
X9113039Y-16033984D01*
X9265420Y-16233984D02*
X9265420Y-16100650D01*
X9265420Y-16119698D02*
X9274944Y-16110174D01*
X9274944Y-16110174D02*
X9293991Y-16100650D01*
X9293991Y-16100650D02*
X9322563Y-16100650D01*
X9322563Y-16100650D02*
X9341610Y-16110174D01*
X9341610Y-16110174D02*
X9351134Y-16129222D01*
X9351134Y-16129222D02*
X9351134Y-16233984D01*
X9351134Y-16129222D02*
X9360658Y-16110174D01*
X9360658Y-16110174D02*
X9379705Y-16100650D01*
X9379705Y-16100650D02*
X9408277Y-16100650D01*
X9408277Y-16100650D02*
X9427325Y-16110174D01*
X9427325Y-16110174D02*
X9436848Y-16129222D01*
X9436848Y-16129222D02*
X9436848Y-16233984D01*
X9532086Y-16233984D02*
X9532086Y-16100650D01*
X9532086Y-16119698D02*
X9541610Y-16110174D01*
X9541610Y-16110174D02*
X9560658Y-16100650D01*
X9560658Y-16100650D02*
X9589229Y-16100650D01*
X9589229Y-16100650D02*
X9608277Y-16110174D01*
X9608277Y-16110174D02*
X9617801Y-16129222D01*
X9617801Y-16129222D02*
X9617801Y-16233984D01*
X9617801Y-16129222D02*
X9627325Y-16110174D01*
X9627325Y-16110174D02*
X9646372Y-16100650D01*
X9646372Y-16100650D02*
X9674944Y-16100650D01*
X9674944Y-16100650D02*
X9693991Y-16110174D01*
X9693991Y-16110174D02*
X9703515Y-16129222D01*
X9703515Y-16129222D02*
X9703515Y-16233984D01*
X10093991Y-16024460D02*
X9922563Y-16281603D01*
X10351134Y-16033984D02*
X10370182Y-16033984D01*
X10370182Y-16033984D02*
X10389229Y-16043508D01*
X10389229Y-16043508D02*
X10398753Y-16053031D01*
X10398753Y-16053031D02*
X10408277Y-16072079D01*
X10408277Y-16072079D02*
X10417801Y-16110174D01*
X10417801Y-16110174D02*
X10417801Y-16157793D01*
X10417801Y-16157793D02*
X10408277Y-16195888D01*
X10408277Y-16195888D02*
X10398753Y-16214936D01*
X10398753Y-16214936D02*
X10389229Y-16224460D01*
X10389229Y-16224460D02*
X10370182Y-16233984D01*
X10370182Y-16233984D02*
X10351134Y-16233984D01*
X10351134Y-16233984D02*
X10332087Y-16224460D01*
X10332087Y-16224460D02*
X10322563Y-16214936D01*
X10322563Y-16214936D02*
X10313039Y-16195888D01*
X10313039Y-16195888D02*
X10303515Y-16157793D01*
X10303515Y-16157793D02*
X10303515Y-16110174D01*
X10303515Y-16110174D02*
X10313039Y-16072079D01*
X10313039Y-16072079D02*
X10322563Y-16053031D01*
X10322563Y-16053031D02*
X10332087Y-16043508D01*
X10332087Y-16043508D02*
X10351134Y-16033984D01*
X10503515Y-16214936D02*
X10513039Y-16224460D01*
X10513039Y-16224460D02*
X10503515Y-16233984D01*
X10503515Y-16233984D02*
X10493991Y-16224460D01*
X10493991Y-16224460D02*
X10503515Y-16214936D01*
X10503515Y-16214936D02*
X10503515Y-16233984D01*
X10636848Y-16033984D02*
X10655896Y-16033984D01*
X10655896Y-16033984D02*
X10674944Y-16043508D01*
X10674944Y-16043508D02*
X10684468Y-16053031D01*
X10684468Y-16053031D02*
X10693991Y-16072079D01*
X10693991Y-16072079D02*
X10703515Y-16110174D01*
X10703515Y-16110174D02*
X10703515Y-16157793D01*
X10703515Y-16157793D02*
X10693991Y-16195888D01*
X10693991Y-16195888D02*
X10684468Y-16214936D01*
X10684468Y-16214936D02*
X10674944Y-16224460D01*
X10674944Y-16224460D02*
X10655896Y-16233984D01*
X10655896Y-16233984D02*
X10636848Y-16233984D01*
X10636848Y-16233984D02*
X10617801Y-16224460D01*
X10617801Y-16224460D02*
X10608277Y-16214936D01*
X10608277Y-16214936D02*
X10598753Y-16195888D01*
X10598753Y-16195888D02*
X10589229Y-16157793D01*
X10589229Y-16157793D02*
X10589229Y-16110174D01*
X10589229Y-16110174D02*
X10598753Y-16072079D01*
X10598753Y-16072079D02*
X10608277Y-16053031D01*
X10608277Y-16053031D02*
X10617801Y-16043508D01*
X10617801Y-16043508D02*
X10636848Y-16033984D01*
X10893991Y-16233984D02*
X10779706Y-16233984D01*
X10836848Y-16233984D02*
X10836848Y-16033984D01*
X10836848Y-16033984D02*
X10817801Y-16062555D01*
X10817801Y-16062555D02*
X10798753Y-16081603D01*
X10798753Y-16081603D02*
X10779706Y-16091127D01*
X11084468Y-16233984D02*
X10970182Y-16233984D01*
X11027325Y-16233984D02*
X11027325Y-16033984D01*
X11027325Y-16033984D02*
X11008277Y-16062555D01*
X11008277Y-16062555D02*
X10989229Y-16081603D01*
X10989229Y-16081603D02*
X10970182Y-16091127D01*
X11198753Y-16119698D02*
X11179706Y-16110174D01*
X11179706Y-16110174D02*
X11170182Y-16100650D01*
X11170182Y-16100650D02*
X11160658Y-16081603D01*
X11160658Y-16081603D02*
X11160658Y-16072079D01*
X11160658Y-16072079D02*
X11170182Y-16053031D01*
X11170182Y-16053031D02*
X11179706Y-16043508D01*
X11179706Y-16043508D02*
X11198753Y-16033984D01*
X11198753Y-16033984D02*
X11236848Y-16033984D01*
X11236848Y-16033984D02*
X11255896Y-16043508D01*
X11255896Y-16043508D02*
X11265420Y-16053031D01*
X11265420Y-16053031D02*
X11274944Y-16072079D01*
X11274944Y-16072079D02*
X11274944Y-16081603D01*
X11274944Y-16081603D02*
X11265420Y-16100650D01*
X11265420Y-16100650D02*
X11255896Y-16110174D01*
X11255896Y-16110174D02*
X11236848Y-16119698D01*
X11236848Y-16119698D02*
X11198753Y-16119698D01*
X11198753Y-16119698D02*
X11179706Y-16129222D01*
X11179706Y-16129222D02*
X11170182Y-16138746D01*
X11170182Y-16138746D02*
X11160658Y-16157793D01*
X11160658Y-16157793D02*
X11160658Y-16195888D01*
X11160658Y-16195888D02*
X11170182Y-16214936D01*
X11170182Y-16214936D02*
X11179706Y-16224460D01*
X11179706Y-16224460D02*
X11198753Y-16233984D01*
X11198753Y-16233984D02*
X11236848Y-16233984D01*
X11236848Y-16233984D02*
X11255896Y-16224460D01*
X11255896Y-16224460D02*
X11265420Y-16214936D01*
X11265420Y-16214936D02*
X11274944Y-16195888D01*
X11274944Y-16195888D02*
X11274944Y-16157793D01*
X11274944Y-16157793D02*
X11265420Y-16138746D01*
X11265420Y-16138746D02*
X11255896Y-16129222D01*
X11255896Y-16129222D02*
X11236848Y-16119698D01*
X11351134Y-16033984D02*
X11351134Y-16072079D01*
X11427325Y-16033984D02*
X11427325Y-16072079D01*
X11722563Y-16310174D02*
X11713039Y-16300650D01*
X11713039Y-16300650D02*
X11693991Y-16272079D01*
X11693991Y-16272079D02*
X11684468Y-16253031D01*
X11684468Y-16253031D02*
X11674944Y-16224460D01*
X11674944Y-16224460D02*
X11665420Y-16176841D01*
X11665420Y-16176841D02*
X11665420Y-16138746D01*
X11665420Y-16138746D02*
X11674944Y-16091127D01*
X11674944Y-16091127D02*
X11684468Y-16062555D01*
X11684468Y-16062555D02*
X11693991Y-16043508D01*
X11693991Y-16043508D02*
X11713039Y-16014936D01*
X11713039Y-16014936D02*
X11722563Y-16005412D01*
X11903515Y-16233984D02*
X11789229Y-16233984D01*
X11846372Y-16233984D02*
X11846372Y-16033984D01*
X11846372Y-16033984D02*
X11827325Y-16062555D01*
X11827325Y-16062555D02*
X11808277Y-16081603D01*
X11808277Y-16081603D02*
X11789229Y-16091127D01*
X12093991Y-16233984D02*
X11979706Y-16233984D01*
X12036848Y-16233984D02*
X12036848Y-16033984D01*
X12036848Y-16033984D02*
X12017801Y-16062555D01*
X12017801Y-16062555D02*
X11998753Y-16081603D01*
X11998753Y-16081603D02*
X11979706Y-16091127D01*
X12332087Y-16233984D02*
X12332087Y-16033984D01*
X12417801Y-16233984D02*
X12417801Y-16129222D01*
X12417801Y-16129222D02*
X12408277Y-16110174D01*
X12408277Y-16110174D02*
X12389230Y-16100650D01*
X12389230Y-16100650D02*
X12360658Y-16100650D01*
X12360658Y-16100650D02*
X12341610Y-16110174D01*
X12341610Y-16110174D02*
X12332087Y-16119698D01*
X12541610Y-16233984D02*
X12522563Y-16224460D01*
X12522563Y-16224460D02*
X12513039Y-16214936D01*
X12513039Y-16214936D02*
X12503515Y-16195888D01*
X12503515Y-16195888D02*
X12503515Y-16138746D01*
X12503515Y-16138746D02*
X12513039Y-16119698D01*
X12513039Y-16119698D02*
X12522563Y-16110174D01*
X12522563Y-16110174D02*
X12541610Y-16100650D01*
X12541610Y-16100650D02*
X12570182Y-16100650D01*
X12570182Y-16100650D02*
X12589230Y-16110174D01*
X12589230Y-16110174D02*
X12598753Y-16119698D01*
X12598753Y-16119698D02*
X12608277Y-16138746D01*
X12608277Y-16138746D02*
X12608277Y-16195888D01*
X12608277Y-16195888D02*
X12598753Y-16214936D01*
X12598753Y-16214936D02*
X12589230Y-16224460D01*
X12589230Y-16224460D02*
X12570182Y-16233984D01*
X12570182Y-16233984D02*
X12541610Y-16233984D01*
X12722563Y-16233984D02*
X12703515Y-16224460D01*
X12703515Y-16224460D02*
X12693991Y-16205412D01*
X12693991Y-16205412D02*
X12693991Y-16033984D01*
X12874944Y-16224460D02*
X12855896Y-16233984D01*
X12855896Y-16233984D02*
X12817801Y-16233984D01*
X12817801Y-16233984D02*
X12798753Y-16224460D01*
X12798753Y-16224460D02*
X12789230Y-16205412D01*
X12789230Y-16205412D02*
X12789230Y-16129222D01*
X12789230Y-16129222D02*
X12798753Y-16110174D01*
X12798753Y-16110174D02*
X12817801Y-16100650D01*
X12817801Y-16100650D02*
X12855896Y-16100650D01*
X12855896Y-16100650D02*
X12874944Y-16110174D01*
X12874944Y-16110174D02*
X12884468Y-16129222D01*
X12884468Y-16129222D02*
X12884468Y-16148269D01*
X12884468Y-16148269D02*
X12789230Y-16167317D01*
X12960658Y-16224460D02*
X12979706Y-16233984D01*
X12979706Y-16233984D02*
X13017801Y-16233984D01*
X13017801Y-16233984D02*
X13036849Y-16224460D01*
X13036849Y-16224460D02*
X13046372Y-16205412D01*
X13046372Y-16205412D02*
X13046372Y-16195888D01*
X13046372Y-16195888D02*
X13036849Y-16176841D01*
X13036849Y-16176841D02*
X13017801Y-16167317D01*
X13017801Y-16167317D02*
X12989230Y-16167317D01*
X12989230Y-16167317D02*
X12970182Y-16157793D01*
X12970182Y-16157793D02*
X12960658Y-16138746D01*
X12960658Y-16138746D02*
X12960658Y-16129222D01*
X12960658Y-16129222D02*
X12970182Y-16110174D01*
X12970182Y-16110174D02*
X12989230Y-16100650D01*
X12989230Y-16100650D02*
X13017801Y-16100650D01*
X13017801Y-16100650D02*
X13036849Y-16110174D01*
X13113039Y-16310174D02*
X13122563Y-16300650D01*
X13122563Y-16300650D02*
X13141611Y-16272079D01*
X13141611Y-16272079D02*
X13151134Y-16253031D01*
X13151134Y-16253031D02*
X13160658Y-16224460D01*
X13160658Y-16224460D02*
X13170182Y-16176841D01*
X13170182Y-16176841D02*
X13170182Y-16138746D01*
X13170182Y-16138746D02*
X13160658Y-16091127D01*
X13160658Y-16091127D02*
X13151134Y-16062555D01*
X13151134Y-16062555D02*
X13141611Y-16043508D01*
X13141611Y-16043508D02*
X13122563Y-16014936D01*
X13122563Y-16014936D02*
X13113039Y-16005412D01*
D12*
X8147500Y-16406500D02*
G75*
G02*
X8107500Y-16406500I-20000J0D01*
G01*
X8107500Y-16406500D02*
G75*
G02*
X8147500Y-16406500I20000J0D01*
G01*
D11*
X8446372Y-16297984D02*
X8465420Y-16297984D01*
X8465420Y-16297984D02*
X8484467Y-16307508D01*
X8484467Y-16307508D02*
X8493991Y-16317031D01*
X8493991Y-16317031D02*
X8503515Y-16336079D01*
X8503515Y-16336079D02*
X8513039Y-16374174D01*
X8513039Y-16374174D02*
X8513039Y-16421793D01*
X8513039Y-16421793D02*
X8503515Y-16459888D01*
X8503515Y-16459888D02*
X8493991Y-16478936D01*
X8493991Y-16478936D02*
X8484467Y-16488460D01*
X8484467Y-16488460D02*
X8465420Y-16497984D01*
X8465420Y-16497984D02*
X8446372Y-16497984D01*
X8446372Y-16497984D02*
X8427324Y-16488460D01*
X8427324Y-16488460D02*
X8417801Y-16478936D01*
X8417801Y-16478936D02*
X8408277Y-16459888D01*
X8408277Y-16459888D02*
X8398753Y-16421793D01*
X8398753Y-16421793D02*
X8398753Y-16374174D01*
X8398753Y-16374174D02*
X8408277Y-16336079D01*
X8408277Y-16336079D02*
X8417801Y-16317031D01*
X8417801Y-16317031D02*
X8427324Y-16307508D01*
X8427324Y-16307508D02*
X8446372Y-16297984D01*
X8598753Y-16478936D02*
X8608277Y-16488460D01*
X8608277Y-16488460D02*
X8598753Y-16497984D01*
X8598753Y-16497984D02*
X8589229Y-16488460D01*
X8589229Y-16488460D02*
X8598753Y-16478936D01*
X8598753Y-16478936D02*
X8598753Y-16497984D01*
X8779705Y-16364650D02*
X8779705Y-16497984D01*
X8732086Y-16288460D02*
X8684467Y-16431317D01*
X8684467Y-16431317D02*
X8808277Y-16431317D01*
X8922563Y-16297984D02*
X8941610Y-16297984D01*
X8941610Y-16297984D02*
X8960658Y-16307508D01*
X8960658Y-16307508D02*
X8970182Y-16317031D01*
X8970182Y-16317031D02*
X8979705Y-16336079D01*
X8979705Y-16336079D02*
X8989229Y-16374174D01*
X8989229Y-16374174D02*
X8989229Y-16421793D01*
X8989229Y-16421793D02*
X8979705Y-16459888D01*
X8979705Y-16459888D02*
X8970182Y-16478936D01*
X8970182Y-16478936D02*
X8960658Y-16488460D01*
X8960658Y-16488460D02*
X8941610Y-16497984D01*
X8941610Y-16497984D02*
X8922563Y-16497984D01*
X8922563Y-16497984D02*
X8903515Y-16488460D01*
X8903515Y-16488460D02*
X8893991Y-16478936D01*
X8893991Y-16478936D02*
X8884467Y-16459888D01*
X8884467Y-16459888D02*
X8874944Y-16421793D01*
X8874944Y-16421793D02*
X8874944Y-16374174D01*
X8874944Y-16374174D02*
X8884467Y-16336079D01*
X8884467Y-16336079D02*
X8893991Y-16317031D01*
X8893991Y-16317031D02*
X8903515Y-16307508D01*
X8903515Y-16307508D02*
X8922563Y-16297984D01*
X9113039Y-16297984D02*
X9132086Y-16297984D01*
X9132086Y-16297984D02*
X9151134Y-16307508D01*
X9151134Y-16307508D02*
X9160658Y-16317031D01*
X9160658Y-16317031D02*
X9170182Y-16336079D01*
X9170182Y-16336079D02*
X9179705Y-16374174D01*
X9179705Y-16374174D02*
X9179705Y-16421793D01*
X9179705Y-16421793D02*
X9170182Y-16459888D01*
X9170182Y-16459888D02*
X9160658Y-16478936D01*
X9160658Y-16478936D02*
X9151134Y-16488460D01*
X9151134Y-16488460D02*
X9132086Y-16497984D01*
X9132086Y-16497984D02*
X9113039Y-16497984D01*
X9113039Y-16497984D02*
X9093991Y-16488460D01*
X9093991Y-16488460D02*
X9084467Y-16478936D01*
X9084467Y-16478936D02*
X9074944Y-16459888D01*
X9074944Y-16459888D02*
X9065420Y-16421793D01*
X9065420Y-16421793D02*
X9065420Y-16374174D01*
X9065420Y-16374174D02*
X9074944Y-16336079D01*
X9074944Y-16336079D02*
X9084467Y-16317031D01*
X9084467Y-16317031D02*
X9093991Y-16307508D01*
X9093991Y-16307508D02*
X9113039Y-16297984D01*
X9265420Y-16497984D02*
X9265420Y-16364650D01*
X9265420Y-16383698D02*
X9274944Y-16374174D01*
X9274944Y-16374174D02*
X9293991Y-16364650D01*
X9293991Y-16364650D02*
X9322563Y-16364650D01*
X9322563Y-16364650D02*
X9341610Y-16374174D01*
X9341610Y-16374174D02*
X9351134Y-16393222D01*
X9351134Y-16393222D02*
X9351134Y-16497984D01*
X9351134Y-16393222D02*
X9360658Y-16374174D01*
X9360658Y-16374174D02*
X9379705Y-16364650D01*
X9379705Y-16364650D02*
X9408277Y-16364650D01*
X9408277Y-16364650D02*
X9427325Y-16374174D01*
X9427325Y-16374174D02*
X9436848Y-16393222D01*
X9436848Y-16393222D02*
X9436848Y-16497984D01*
X9532086Y-16497984D02*
X9532086Y-16364650D01*
X9532086Y-16383698D02*
X9541610Y-16374174D01*
X9541610Y-16374174D02*
X9560658Y-16364650D01*
X9560658Y-16364650D02*
X9589229Y-16364650D01*
X9589229Y-16364650D02*
X9608277Y-16374174D01*
X9608277Y-16374174D02*
X9617801Y-16393222D01*
X9617801Y-16393222D02*
X9617801Y-16497984D01*
X9617801Y-16393222D02*
X9627325Y-16374174D01*
X9627325Y-16374174D02*
X9646372Y-16364650D01*
X9646372Y-16364650D02*
X9674944Y-16364650D01*
X9674944Y-16364650D02*
X9693991Y-16374174D01*
X9693991Y-16374174D02*
X9703515Y-16393222D01*
X9703515Y-16393222D02*
X9703515Y-16497984D01*
X10093991Y-16288460D02*
X9922563Y-16545603D01*
X10351134Y-16297984D02*
X10370182Y-16297984D01*
X10370182Y-16297984D02*
X10389229Y-16307508D01*
X10389229Y-16307508D02*
X10398753Y-16317031D01*
X10398753Y-16317031D02*
X10408277Y-16336079D01*
X10408277Y-16336079D02*
X10417801Y-16374174D01*
X10417801Y-16374174D02*
X10417801Y-16421793D01*
X10417801Y-16421793D02*
X10408277Y-16459888D01*
X10408277Y-16459888D02*
X10398753Y-16478936D01*
X10398753Y-16478936D02*
X10389229Y-16488460D01*
X10389229Y-16488460D02*
X10370182Y-16497984D01*
X10370182Y-16497984D02*
X10351134Y-16497984D01*
X10351134Y-16497984D02*
X10332087Y-16488460D01*
X10332087Y-16488460D02*
X10322563Y-16478936D01*
X10322563Y-16478936D02*
X10313039Y-16459888D01*
X10313039Y-16459888D02*
X10303515Y-16421793D01*
X10303515Y-16421793D02*
X10303515Y-16374174D01*
X10303515Y-16374174D02*
X10313039Y-16336079D01*
X10313039Y-16336079D02*
X10322563Y-16317031D01*
X10322563Y-16317031D02*
X10332087Y-16307508D01*
X10332087Y-16307508D02*
X10351134Y-16297984D01*
X10503515Y-16478936D02*
X10513039Y-16488460D01*
X10513039Y-16488460D02*
X10503515Y-16497984D01*
X10503515Y-16497984D02*
X10493991Y-16488460D01*
X10493991Y-16488460D02*
X10503515Y-16478936D01*
X10503515Y-16478936D02*
X10503515Y-16497984D01*
X10636848Y-16297984D02*
X10655896Y-16297984D01*
X10655896Y-16297984D02*
X10674944Y-16307508D01*
X10674944Y-16307508D02*
X10684468Y-16317031D01*
X10684468Y-16317031D02*
X10693991Y-16336079D01*
X10693991Y-16336079D02*
X10703515Y-16374174D01*
X10703515Y-16374174D02*
X10703515Y-16421793D01*
X10703515Y-16421793D02*
X10693991Y-16459888D01*
X10693991Y-16459888D02*
X10684468Y-16478936D01*
X10684468Y-16478936D02*
X10674944Y-16488460D01*
X10674944Y-16488460D02*
X10655896Y-16497984D01*
X10655896Y-16497984D02*
X10636848Y-16497984D01*
X10636848Y-16497984D02*
X10617801Y-16488460D01*
X10617801Y-16488460D02*
X10608277Y-16478936D01*
X10608277Y-16478936D02*
X10598753Y-16459888D01*
X10598753Y-16459888D02*
X10589229Y-16421793D01*
X10589229Y-16421793D02*
X10589229Y-16374174D01*
X10589229Y-16374174D02*
X10598753Y-16336079D01*
X10598753Y-16336079D02*
X10608277Y-16317031D01*
X10608277Y-16317031D02*
X10617801Y-16307508D01*
X10617801Y-16307508D02*
X10636848Y-16297984D01*
X10893991Y-16497984D02*
X10779706Y-16497984D01*
X10836848Y-16497984D02*
X10836848Y-16297984D01*
X10836848Y-16297984D02*
X10817801Y-16326555D01*
X10817801Y-16326555D02*
X10798753Y-16345603D01*
X10798753Y-16345603D02*
X10779706Y-16355127D01*
X11074944Y-16297984D02*
X10979706Y-16297984D01*
X10979706Y-16297984D02*
X10970182Y-16393222D01*
X10970182Y-16393222D02*
X10979706Y-16383698D01*
X10979706Y-16383698D02*
X10998753Y-16374174D01*
X10998753Y-16374174D02*
X11046372Y-16374174D01*
X11046372Y-16374174D02*
X11065420Y-16383698D01*
X11065420Y-16383698D02*
X11074944Y-16393222D01*
X11074944Y-16393222D02*
X11084468Y-16412269D01*
X11084468Y-16412269D02*
X11084468Y-16459888D01*
X11084468Y-16459888D02*
X11074944Y-16478936D01*
X11074944Y-16478936D02*
X11065420Y-16488460D01*
X11065420Y-16488460D02*
X11046372Y-16497984D01*
X11046372Y-16497984D02*
X10998753Y-16497984D01*
X10998753Y-16497984D02*
X10979706Y-16488460D01*
X10979706Y-16488460D02*
X10970182Y-16478936D01*
X11151134Y-16297984D02*
X11284467Y-16297984D01*
X11284467Y-16297984D02*
X11198753Y-16497984D01*
X11351134Y-16297984D02*
X11351134Y-16336079D01*
X11427325Y-16297984D02*
X11427325Y-16336079D01*
X11722563Y-16574174D02*
X11713039Y-16564650D01*
X11713039Y-16564650D02*
X11693991Y-16536079D01*
X11693991Y-16536079D02*
X11684468Y-16517031D01*
X11684468Y-16517031D02*
X11674944Y-16488460D01*
X11674944Y-16488460D02*
X11665420Y-16440841D01*
X11665420Y-16440841D02*
X11665420Y-16402746D01*
X11665420Y-16402746D02*
X11674944Y-16355127D01*
X11674944Y-16355127D02*
X11684468Y-16326555D01*
X11684468Y-16326555D02*
X11693991Y-16307508D01*
X11693991Y-16307508D02*
X11713039Y-16278936D01*
X11713039Y-16278936D02*
X11722563Y-16269412D01*
X11779706Y-16297984D02*
X11913039Y-16297984D01*
X11913039Y-16297984D02*
X11827325Y-16497984D01*
X12141610Y-16497984D02*
X12141610Y-16297984D01*
X12227325Y-16497984D02*
X12227325Y-16393222D01*
X12227325Y-16393222D02*
X12217801Y-16374174D01*
X12217801Y-16374174D02*
X12198753Y-16364650D01*
X12198753Y-16364650D02*
X12170182Y-16364650D01*
X12170182Y-16364650D02*
X12151134Y-16374174D01*
X12151134Y-16374174D02*
X12141610Y-16383698D01*
X12351134Y-16497984D02*
X12332087Y-16488460D01*
X12332087Y-16488460D02*
X12322563Y-16478936D01*
X12322563Y-16478936D02*
X12313039Y-16459888D01*
X12313039Y-16459888D02*
X12313039Y-16402746D01*
X12313039Y-16402746D02*
X12322563Y-16383698D01*
X12322563Y-16383698D02*
X12332087Y-16374174D01*
X12332087Y-16374174D02*
X12351134Y-16364650D01*
X12351134Y-16364650D02*
X12379706Y-16364650D01*
X12379706Y-16364650D02*
X12398753Y-16374174D01*
X12398753Y-16374174D02*
X12408277Y-16383698D01*
X12408277Y-16383698D02*
X12417801Y-16402746D01*
X12417801Y-16402746D02*
X12417801Y-16459888D01*
X12417801Y-16459888D02*
X12408277Y-16478936D01*
X12408277Y-16478936D02*
X12398753Y-16488460D01*
X12398753Y-16488460D02*
X12379706Y-16497984D01*
X12379706Y-16497984D02*
X12351134Y-16497984D01*
X12532087Y-16497984D02*
X12513039Y-16488460D01*
X12513039Y-16488460D02*
X12503515Y-16469412D01*
X12503515Y-16469412D02*
X12503515Y-16297984D01*
X12684468Y-16488460D02*
X12665420Y-16497984D01*
X12665420Y-16497984D02*
X12627325Y-16497984D01*
X12627325Y-16497984D02*
X12608277Y-16488460D01*
X12608277Y-16488460D02*
X12598753Y-16469412D01*
X12598753Y-16469412D02*
X12598753Y-16393222D01*
X12598753Y-16393222D02*
X12608277Y-16374174D01*
X12608277Y-16374174D02*
X12627325Y-16364650D01*
X12627325Y-16364650D02*
X12665420Y-16364650D01*
X12665420Y-16364650D02*
X12684468Y-16374174D01*
X12684468Y-16374174D02*
X12693991Y-16393222D01*
X12693991Y-16393222D02*
X12693991Y-16412269D01*
X12693991Y-16412269D02*
X12598753Y-16431317D01*
X12770182Y-16488460D02*
X12789230Y-16497984D01*
X12789230Y-16497984D02*
X12827325Y-16497984D01*
X12827325Y-16497984D02*
X12846372Y-16488460D01*
X12846372Y-16488460D02*
X12855896Y-16469412D01*
X12855896Y-16469412D02*
X12855896Y-16459888D01*
X12855896Y-16459888D02*
X12846372Y-16440841D01*
X12846372Y-16440841D02*
X12827325Y-16431317D01*
X12827325Y-16431317D02*
X12798753Y-16431317D01*
X12798753Y-16431317D02*
X12779706Y-16421793D01*
X12779706Y-16421793D02*
X12770182Y-16402746D01*
X12770182Y-16402746D02*
X12770182Y-16393222D01*
X12770182Y-16393222D02*
X12779706Y-16374174D01*
X12779706Y-16374174D02*
X12798753Y-16364650D01*
X12798753Y-16364650D02*
X12827325Y-16364650D01*
X12827325Y-16364650D02*
X12846372Y-16374174D01*
X12922563Y-16574174D02*
X12932087Y-16564650D01*
X12932087Y-16564650D02*
X12951134Y-16536079D01*
X12951134Y-16536079D02*
X12960658Y-16517031D01*
X12960658Y-16517031D02*
X12970182Y-16488460D01*
X12970182Y-16488460D02*
X12979706Y-16440841D01*
X12979706Y-16440841D02*
X12979706Y-16402746D01*
X12979706Y-16402746D02*
X12970182Y-16355127D01*
X12970182Y-16355127D02*
X12960658Y-16326555D01*
X12960658Y-16326555D02*
X12951134Y-16307508D01*
X12951134Y-16307508D02*
X12932087Y-16278936D01*
X12932087Y-16278936D02*
X12922563Y-16269412D01*
D12*
X8110000Y-16633000D02*
X8110000Y-16708000D01*
X8072500Y-16670500D02*
X8147500Y-16670500D01*
D11*
X8446372Y-16561984D02*
X8465420Y-16561984D01*
X8465420Y-16561984D02*
X8484467Y-16571508D01*
X8484467Y-16571508D02*
X8493991Y-16581031D01*
X8493991Y-16581031D02*
X8503515Y-16600079D01*
X8503515Y-16600079D02*
X8513039Y-16638174D01*
X8513039Y-16638174D02*
X8513039Y-16685793D01*
X8513039Y-16685793D02*
X8503515Y-16723888D01*
X8503515Y-16723888D02*
X8493991Y-16742936D01*
X8493991Y-16742936D02*
X8484467Y-16752460D01*
X8484467Y-16752460D02*
X8465420Y-16761984D01*
X8465420Y-16761984D02*
X8446372Y-16761984D01*
X8446372Y-16761984D02*
X8427324Y-16752460D01*
X8427324Y-16752460D02*
X8417801Y-16742936D01*
X8417801Y-16742936D02*
X8408277Y-16723888D01*
X8408277Y-16723888D02*
X8398753Y-16685793D01*
X8398753Y-16685793D02*
X8398753Y-16638174D01*
X8398753Y-16638174D02*
X8408277Y-16600079D01*
X8408277Y-16600079D02*
X8417801Y-16581031D01*
X8417801Y-16581031D02*
X8427324Y-16571508D01*
X8427324Y-16571508D02*
X8446372Y-16561984D01*
X8598753Y-16742936D02*
X8608277Y-16752460D01*
X8608277Y-16752460D02*
X8598753Y-16761984D01*
X8598753Y-16761984D02*
X8589229Y-16752460D01*
X8589229Y-16752460D02*
X8598753Y-16742936D01*
X8598753Y-16742936D02*
X8598753Y-16761984D01*
X8674944Y-16561984D02*
X8808277Y-16561984D01*
X8808277Y-16561984D02*
X8722563Y-16761984D01*
X8979705Y-16561984D02*
X8884467Y-16561984D01*
X8884467Y-16561984D02*
X8874944Y-16657222D01*
X8874944Y-16657222D02*
X8884467Y-16647698D01*
X8884467Y-16647698D02*
X8903515Y-16638174D01*
X8903515Y-16638174D02*
X8951134Y-16638174D01*
X8951134Y-16638174D02*
X8970182Y-16647698D01*
X8970182Y-16647698D02*
X8979705Y-16657222D01*
X8979705Y-16657222D02*
X8989229Y-16676269D01*
X8989229Y-16676269D02*
X8989229Y-16723888D01*
X8989229Y-16723888D02*
X8979705Y-16742936D01*
X8979705Y-16742936D02*
X8970182Y-16752460D01*
X8970182Y-16752460D02*
X8951134Y-16761984D01*
X8951134Y-16761984D02*
X8903515Y-16761984D01*
X8903515Y-16761984D02*
X8884467Y-16752460D01*
X8884467Y-16752460D02*
X8874944Y-16742936D01*
X9113039Y-16561984D02*
X9132086Y-16561984D01*
X9132086Y-16561984D02*
X9151134Y-16571508D01*
X9151134Y-16571508D02*
X9160658Y-16581031D01*
X9160658Y-16581031D02*
X9170182Y-16600079D01*
X9170182Y-16600079D02*
X9179705Y-16638174D01*
X9179705Y-16638174D02*
X9179705Y-16685793D01*
X9179705Y-16685793D02*
X9170182Y-16723888D01*
X9170182Y-16723888D02*
X9160658Y-16742936D01*
X9160658Y-16742936D02*
X9151134Y-16752460D01*
X9151134Y-16752460D02*
X9132086Y-16761984D01*
X9132086Y-16761984D02*
X9113039Y-16761984D01*
X9113039Y-16761984D02*
X9093991Y-16752460D01*
X9093991Y-16752460D02*
X9084467Y-16742936D01*
X9084467Y-16742936D02*
X9074944Y-16723888D01*
X9074944Y-16723888D02*
X9065420Y-16685793D01*
X9065420Y-16685793D02*
X9065420Y-16638174D01*
X9065420Y-16638174D02*
X9074944Y-16600079D01*
X9074944Y-16600079D02*
X9084467Y-16581031D01*
X9084467Y-16581031D02*
X9093991Y-16571508D01*
X9093991Y-16571508D02*
X9113039Y-16561984D01*
X9265420Y-16761984D02*
X9265420Y-16628650D01*
X9265420Y-16647698D02*
X9274944Y-16638174D01*
X9274944Y-16638174D02*
X9293991Y-16628650D01*
X9293991Y-16628650D02*
X9322563Y-16628650D01*
X9322563Y-16628650D02*
X9341610Y-16638174D01*
X9341610Y-16638174D02*
X9351134Y-16657222D01*
X9351134Y-16657222D02*
X9351134Y-16761984D01*
X9351134Y-16657222D02*
X9360658Y-16638174D01*
X9360658Y-16638174D02*
X9379705Y-16628650D01*
X9379705Y-16628650D02*
X9408277Y-16628650D01*
X9408277Y-16628650D02*
X9427325Y-16638174D01*
X9427325Y-16638174D02*
X9436848Y-16657222D01*
X9436848Y-16657222D02*
X9436848Y-16761984D01*
X9532086Y-16761984D02*
X9532086Y-16628650D01*
X9532086Y-16647698D02*
X9541610Y-16638174D01*
X9541610Y-16638174D02*
X9560658Y-16628650D01*
X9560658Y-16628650D02*
X9589229Y-16628650D01*
X9589229Y-16628650D02*
X9608277Y-16638174D01*
X9608277Y-16638174D02*
X9617801Y-16657222D01*
X9617801Y-16657222D02*
X9617801Y-16761984D01*
X9617801Y-16657222D02*
X9627325Y-16638174D01*
X9627325Y-16638174D02*
X9646372Y-16628650D01*
X9646372Y-16628650D02*
X9674944Y-16628650D01*
X9674944Y-16628650D02*
X9693991Y-16638174D01*
X9693991Y-16638174D02*
X9703515Y-16657222D01*
X9703515Y-16657222D02*
X9703515Y-16761984D01*
X10093991Y-16552460D02*
X9922563Y-16809603D01*
X10351134Y-16561984D02*
X10370182Y-16561984D01*
X10370182Y-16561984D02*
X10389229Y-16571508D01*
X10389229Y-16571508D02*
X10398753Y-16581031D01*
X10398753Y-16581031D02*
X10408277Y-16600079D01*
X10408277Y-16600079D02*
X10417801Y-16638174D01*
X10417801Y-16638174D02*
X10417801Y-16685793D01*
X10417801Y-16685793D02*
X10408277Y-16723888D01*
X10408277Y-16723888D02*
X10398753Y-16742936D01*
X10398753Y-16742936D02*
X10389229Y-16752460D01*
X10389229Y-16752460D02*
X10370182Y-16761984D01*
X10370182Y-16761984D02*
X10351134Y-16761984D01*
X10351134Y-16761984D02*
X10332087Y-16752460D01*
X10332087Y-16752460D02*
X10322563Y-16742936D01*
X10322563Y-16742936D02*
X10313039Y-16723888D01*
X10313039Y-16723888D02*
X10303515Y-16685793D01*
X10303515Y-16685793D02*
X10303515Y-16638174D01*
X10303515Y-16638174D02*
X10313039Y-16600079D01*
X10313039Y-16600079D02*
X10322563Y-16581031D01*
X10322563Y-16581031D02*
X10332087Y-16571508D01*
X10332087Y-16571508D02*
X10351134Y-16561984D01*
X10503515Y-16742936D02*
X10513039Y-16752460D01*
X10513039Y-16752460D02*
X10503515Y-16761984D01*
X10503515Y-16761984D02*
X10493991Y-16752460D01*
X10493991Y-16752460D02*
X10503515Y-16742936D01*
X10503515Y-16742936D02*
X10503515Y-16761984D01*
X10636848Y-16561984D02*
X10655896Y-16561984D01*
X10655896Y-16561984D02*
X10674944Y-16571508D01*
X10674944Y-16571508D02*
X10684468Y-16581031D01*
X10684468Y-16581031D02*
X10693991Y-16600079D01*
X10693991Y-16600079D02*
X10703515Y-16638174D01*
X10703515Y-16638174D02*
X10703515Y-16685793D01*
X10703515Y-16685793D02*
X10693991Y-16723888D01*
X10693991Y-16723888D02*
X10684468Y-16742936D01*
X10684468Y-16742936D02*
X10674944Y-16752460D01*
X10674944Y-16752460D02*
X10655896Y-16761984D01*
X10655896Y-16761984D02*
X10636848Y-16761984D01*
X10636848Y-16761984D02*
X10617801Y-16752460D01*
X10617801Y-16752460D02*
X10608277Y-16742936D01*
X10608277Y-16742936D02*
X10598753Y-16723888D01*
X10598753Y-16723888D02*
X10589229Y-16685793D01*
X10589229Y-16685793D02*
X10589229Y-16638174D01*
X10589229Y-16638174D02*
X10598753Y-16600079D01*
X10598753Y-16600079D02*
X10608277Y-16581031D01*
X10608277Y-16581031D02*
X10617801Y-16571508D01*
X10617801Y-16571508D02*
X10636848Y-16561984D01*
X10779706Y-16581031D02*
X10789229Y-16571508D01*
X10789229Y-16571508D02*
X10808277Y-16561984D01*
X10808277Y-16561984D02*
X10855896Y-16561984D01*
X10855896Y-16561984D02*
X10874944Y-16571508D01*
X10874944Y-16571508D02*
X10884468Y-16581031D01*
X10884468Y-16581031D02*
X10893991Y-16600079D01*
X10893991Y-16600079D02*
X10893991Y-16619127D01*
X10893991Y-16619127D02*
X10884468Y-16647698D01*
X10884468Y-16647698D02*
X10770182Y-16761984D01*
X10770182Y-16761984D02*
X10893991Y-16761984D01*
X10989229Y-16761984D02*
X11027325Y-16761984D01*
X11027325Y-16761984D02*
X11046372Y-16752460D01*
X11046372Y-16752460D02*
X11055896Y-16742936D01*
X11055896Y-16742936D02*
X11074944Y-16714365D01*
X11074944Y-16714365D02*
X11084468Y-16676269D01*
X11084468Y-16676269D02*
X11084468Y-16600079D01*
X11084468Y-16600079D02*
X11074944Y-16581031D01*
X11074944Y-16581031D02*
X11065420Y-16571508D01*
X11065420Y-16571508D02*
X11046372Y-16561984D01*
X11046372Y-16561984D02*
X11008277Y-16561984D01*
X11008277Y-16561984D02*
X10989229Y-16571508D01*
X10989229Y-16571508D02*
X10979706Y-16581031D01*
X10979706Y-16581031D02*
X10970182Y-16600079D01*
X10970182Y-16600079D02*
X10970182Y-16647698D01*
X10970182Y-16647698D02*
X10979706Y-16666746D01*
X10979706Y-16666746D02*
X10989229Y-16676269D01*
X10989229Y-16676269D02*
X11008277Y-16685793D01*
X11008277Y-16685793D02*
X11046372Y-16685793D01*
X11046372Y-16685793D02*
X11065420Y-16676269D01*
X11065420Y-16676269D02*
X11074944Y-16666746D01*
X11074944Y-16666746D02*
X11084468Y-16647698D01*
X11265420Y-16561984D02*
X11170182Y-16561984D01*
X11170182Y-16561984D02*
X11160658Y-16657222D01*
X11160658Y-16657222D02*
X11170182Y-16647698D01*
X11170182Y-16647698D02*
X11189229Y-16638174D01*
X11189229Y-16638174D02*
X11236848Y-16638174D01*
X11236848Y-16638174D02*
X11255896Y-16647698D01*
X11255896Y-16647698D02*
X11265420Y-16657222D01*
X11265420Y-16657222D02*
X11274944Y-16676269D01*
X11274944Y-16676269D02*
X11274944Y-16723888D01*
X11274944Y-16723888D02*
X11265420Y-16742936D01*
X11265420Y-16742936D02*
X11255896Y-16752460D01*
X11255896Y-16752460D02*
X11236848Y-16761984D01*
X11236848Y-16761984D02*
X11189229Y-16761984D01*
X11189229Y-16761984D02*
X11170182Y-16752460D01*
X11170182Y-16752460D02*
X11160658Y-16742936D01*
X11351134Y-16561984D02*
X11351134Y-16600079D01*
X11427325Y-16561984D02*
X11427325Y-16600079D01*
X11722563Y-16838174D02*
X11713039Y-16828650D01*
X11713039Y-16828650D02*
X11693991Y-16800079D01*
X11693991Y-16800079D02*
X11684468Y-16781031D01*
X11684468Y-16781031D02*
X11674944Y-16752460D01*
X11674944Y-16752460D02*
X11665420Y-16704841D01*
X11665420Y-16704841D02*
X11665420Y-16666746D01*
X11665420Y-16666746D02*
X11674944Y-16619127D01*
X11674944Y-16619127D02*
X11684468Y-16590555D01*
X11684468Y-16590555D02*
X11693991Y-16571508D01*
X11693991Y-16571508D02*
X11713039Y-16542936D01*
X11713039Y-16542936D02*
X11722563Y-16533412D01*
X11789229Y-16581031D02*
X11798753Y-16571508D01*
X11798753Y-16571508D02*
X11817801Y-16561984D01*
X11817801Y-16561984D02*
X11865420Y-16561984D01*
X11865420Y-16561984D02*
X11884468Y-16571508D01*
X11884468Y-16571508D02*
X11893991Y-16581031D01*
X11893991Y-16581031D02*
X11903515Y-16600079D01*
X11903515Y-16600079D02*
X11903515Y-16619127D01*
X11903515Y-16619127D02*
X11893991Y-16647698D01*
X11893991Y-16647698D02*
X11779706Y-16761984D01*
X11779706Y-16761984D02*
X11903515Y-16761984D01*
X12141610Y-16761984D02*
X12141610Y-16561984D01*
X12227325Y-16761984D02*
X12227325Y-16657222D01*
X12227325Y-16657222D02*
X12217801Y-16638174D01*
X12217801Y-16638174D02*
X12198753Y-16628650D01*
X12198753Y-16628650D02*
X12170182Y-16628650D01*
X12170182Y-16628650D02*
X12151134Y-16638174D01*
X12151134Y-16638174D02*
X12141610Y-16647698D01*
X12351134Y-16761984D02*
X12332087Y-16752460D01*
X12332087Y-16752460D02*
X12322563Y-16742936D01*
X12322563Y-16742936D02*
X12313039Y-16723888D01*
X12313039Y-16723888D02*
X12313039Y-16666746D01*
X12313039Y-16666746D02*
X12322563Y-16647698D01*
X12322563Y-16647698D02*
X12332087Y-16638174D01*
X12332087Y-16638174D02*
X12351134Y-16628650D01*
X12351134Y-16628650D02*
X12379706Y-16628650D01*
X12379706Y-16628650D02*
X12398753Y-16638174D01*
X12398753Y-16638174D02*
X12408277Y-16647698D01*
X12408277Y-16647698D02*
X12417801Y-16666746D01*
X12417801Y-16666746D02*
X12417801Y-16723888D01*
X12417801Y-16723888D02*
X12408277Y-16742936D01*
X12408277Y-16742936D02*
X12398753Y-16752460D01*
X12398753Y-16752460D02*
X12379706Y-16761984D01*
X12379706Y-16761984D02*
X12351134Y-16761984D01*
X12532087Y-16761984D02*
X12513039Y-16752460D01*
X12513039Y-16752460D02*
X12503515Y-16733412D01*
X12503515Y-16733412D02*
X12503515Y-16561984D01*
X12684468Y-16752460D02*
X12665420Y-16761984D01*
X12665420Y-16761984D02*
X12627325Y-16761984D01*
X12627325Y-16761984D02*
X12608277Y-16752460D01*
X12608277Y-16752460D02*
X12598753Y-16733412D01*
X12598753Y-16733412D02*
X12598753Y-16657222D01*
X12598753Y-16657222D02*
X12608277Y-16638174D01*
X12608277Y-16638174D02*
X12627325Y-16628650D01*
X12627325Y-16628650D02*
X12665420Y-16628650D01*
X12665420Y-16628650D02*
X12684468Y-16638174D01*
X12684468Y-16638174D02*
X12693991Y-16657222D01*
X12693991Y-16657222D02*
X12693991Y-16676269D01*
X12693991Y-16676269D02*
X12598753Y-16695317D01*
X12770182Y-16752460D02*
X12789230Y-16761984D01*
X12789230Y-16761984D02*
X12827325Y-16761984D01*
X12827325Y-16761984D02*
X12846372Y-16752460D01*
X12846372Y-16752460D02*
X12855896Y-16733412D01*
X12855896Y-16733412D02*
X12855896Y-16723888D01*
X12855896Y-16723888D02*
X12846372Y-16704841D01*
X12846372Y-16704841D02*
X12827325Y-16695317D01*
X12827325Y-16695317D02*
X12798753Y-16695317D01*
X12798753Y-16695317D02*
X12779706Y-16685793D01*
X12779706Y-16685793D02*
X12770182Y-16666746D01*
X12770182Y-16666746D02*
X12770182Y-16657222D01*
X12770182Y-16657222D02*
X12779706Y-16638174D01*
X12779706Y-16638174D02*
X12798753Y-16628650D01*
X12798753Y-16628650D02*
X12827325Y-16628650D01*
X12827325Y-16628650D02*
X12846372Y-16638174D01*
X12922563Y-16838174D02*
X12932087Y-16828650D01*
X12932087Y-16828650D02*
X12951134Y-16800079D01*
X12951134Y-16800079D02*
X12960658Y-16781031D01*
X12960658Y-16781031D02*
X12970182Y-16752460D01*
X12970182Y-16752460D02*
X12979706Y-16704841D01*
X12979706Y-16704841D02*
X12979706Y-16666746D01*
X12979706Y-16666746D02*
X12970182Y-16619127D01*
X12970182Y-16619127D02*
X12960658Y-16590555D01*
X12960658Y-16590555D02*
X12951134Y-16571508D01*
X12951134Y-16571508D02*
X12932087Y-16542936D01*
X12932087Y-16542936D02*
X12922563Y-16533412D01*
D12*
X8132856Y-16969856D02*
X8132856Y-16899144D01*
X8062144Y-16899144D01*
X8062144Y-16969856D01*
X8132856Y-16969856D01*
D11*
X8513039Y-17025984D02*
X8398753Y-17025984D01*
X8455896Y-17025984D02*
X8455896Y-16825984D01*
X8455896Y-16825984D02*
X8436848Y-16854555D01*
X8436848Y-16854555D02*
X8417801Y-16873603D01*
X8417801Y-16873603D02*
X8398753Y-16883127D01*
X8598753Y-17006936D02*
X8608277Y-17016460D01*
X8608277Y-17016460D02*
X8598753Y-17025984D01*
X8598753Y-17025984D02*
X8589229Y-17016460D01*
X8589229Y-17016460D02*
X8598753Y-17006936D01*
X8598753Y-17006936D02*
X8598753Y-17025984D01*
X8732086Y-16825984D02*
X8751134Y-16825984D01*
X8751134Y-16825984D02*
X8770182Y-16835508D01*
X8770182Y-16835508D02*
X8779705Y-16845031D01*
X8779705Y-16845031D02*
X8789229Y-16864079D01*
X8789229Y-16864079D02*
X8798753Y-16902174D01*
X8798753Y-16902174D02*
X8798753Y-16949793D01*
X8798753Y-16949793D02*
X8789229Y-16987889D01*
X8789229Y-16987889D02*
X8779705Y-17006936D01*
X8779705Y-17006936D02*
X8770182Y-17016460D01*
X8770182Y-17016460D02*
X8751134Y-17025984D01*
X8751134Y-17025984D02*
X8732086Y-17025984D01*
X8732086Y-17025984D02*
X8713039Y-17016460D01*
X8713039Y-17016460D02*
X8703515Y-17006936D01*
X8703515Y-17006936D02*
X8693991Y-16987889D01*
X8693991Y-16987889D02*
X8684467Y-16949793D01*
X8684467Y-16949793D02*
X8684467Y-16902174D01*
X8684467Y-16902174D02*
X8693991Y-16864079D01*
X8693991Y-16864079D02*
X8703515Y-16845031D01*
X8703515Y-16845031D02*
X8713039Y-16835508D01*
X8713039Y-16835508D02*
X8732086Y-16825984D01*
X8922563Y-16825984D02*
X8941610Y-16825984D01*
X8941610Y-16825984D02*
X8960658Y-16835508D01*
X8960658Y-16835508D02*
X8970182Y-16845031D01*
X8970182Y-16845031D02*
X8979705Y-16864079D01*
X8979705Y-16864079D02*
X8989229Y-16902174D01*
X8989229Y-16902174D02*
X8989229Y-16949793D01*
X8989229Y-16949793D02*
X8979705Y-16987889D01*
X8979705Y-16987889D02*
X8970182Y-17006936D01*
X8970182Y-17006936D02*
X8960658Y-17016460D01*
X8960658Y-17016460D02*
X8941610Y-17025984D01*
X8941610Y-17025984D02*
X8922563Y-17025984D01*
X8922563Y-17025984D02*
X8903515Y-17016460D01*
X8903515Y-17016460D02*
X8893991Y-17006936D01*
X8893991Y-17006936D02*
X8884467Y-16987889D01*
X8884467Y-16987889D02*
X8874944Y-16949793D01*
X8874944Y-16949793D02*
X8874944Y-16902174D01*
X8874944Y-16902174D02*
X8884467Y-16864079D01*
X8884467Y-16864079D02*
X8893991Y-16845031D01*
X8893991Y-16845031D02*
X8903515Y-16835508D01*
X8903515Y-16835508D02*
X8922563Y-16825984D01*
X9113039Y-16825984D02*
X9132086Y-16825984D01*
X9132086Y-16825984D02*
X9151134Y-16835508D01*
X9151134Y-16835508D02*
X9160658Y-16845031D01*
X9160658Y-16845031D02*
X9170182Y-16864079D01*
X9170182Y-16864079D02*
X9179705Y-16902174D01*
X9179705Y-16902174D02*
X9179705Y-16949793D01*
X9179705Y-16949793D02*
X9170182Y-16987889D01*
X9170182Y-16987889D02*
X9160658Y-17006936D01*
X9160658Y-17006936D02*
X9151134Y-17016460D01*
X9151134Y-17016460D02*
X9132086Y-17025984D01*
X9132086Y-17025984D02*
X9113039Y-17025984D01*
X9113039Y-17025984D02*
X9093991Y-17016460D01*
X9093991Y-17016460D02*
X9084467Y-17006936D01*
X9084467Y-17006936D02*
X9074944Y-16987889D01*
X9074944Y-16987889D02*
X9065420Y-16949793D01*
X9065420Y-16949793D02*
X9065420Y-16902174D01*
X9065420Y-16902174D02*
X9074944Y-16864079D01*
X9074944Y-16864079D02*
X9084467Y-16845031D01*
X9084467Y-16845031D02*
X9093991Y-16835508D01*
X9093991Y-16835508D02*
X9113039Y-16825984D01*
X9265420Y-17025984D02*
X9265420Y-16892650D01*
X9265420Y-16911698D02*
X9274944Y-16902174D01*
X9274944Y-16902174D02*
X9293991Y-16892650D01*
X9293991Y-16892650D02*
X9322563Y-16892650D01*
X9322563Y-16892650D02*
X9341610Y-16902174D01*
X9341610Y-16902174D02*
X9351134Y-16921222D01*
X9351134Y-16921222D02*
X9351134Y-17025984D01*
X9351134Y-16921222D02*
X9360658Y-16902174D01*
X9360658Y-16902174D02*
X9379705Y-16892650D01*
X9379705Y-16892650D02*
X9408277Y-16892650D01*
X9408277Y-16892650D02*
X9427325Y-16902174D01*
X9427325Y-16902174D02*
X9436848Y-16921222D01*
X9436848Y-16921222D02*
X9436848Y-17025984D01*
X9532086Y-17025984D02*
X9532086Y-16892650D01*
X9532086Y-16911698D02*
X9541610Y-16902174D01*
X9541610Y-16902174D02*
X9560658Y-16892650D01*
X9560658Y-16892650D02*
X9589229Y-16892650D01*
X9589229Y-16892650D02*
X9608277Y-16902174D01*
X9608277Y-16902174D02*
X9617801Y-16921222D01*
X9617801Y-16921222D02*
X9617801Y-17025984D01*
X9617801Y-16921222D02*
X9627325Y-16902174D01*
X9627325Y-16902174D02*
X9646372Y-16892650D01*
X9646372Y-16892650D02*
X9674944Y-16892650D01*
X9674944Y-16892650D02*
X9693991Y-16902174D01*
X9693991Y-16902174D02*
X9703515Y-16921222D01*
X9703515Y-16921222D02*
X9703515Y-17025984D01*
X10093991Y-16816460D02*
X9922563Y-17073603D01*
X10351134Y-16825984D02*
X10370182Y-16825984D01*
X10370182Y-16825984D02*
X10389229Y-16835508D01*
X10389229Y-16835508D02*
X10398753Y-16845031D01*
X10398753Y-16845031D02*
X10408277Y-16864079D01*
X10408277Y-16864079D02*
X10417801Y-16902174D01*
X10417801Y-16902174D02*
X10417801Y-16949793D01*
X10417801Y-16949793D02*
X10408277Y-16987889D01*
X10408277Y-16987889D02*
X10398753Y-17006936D01*
X10398753Y-17006936D02*
X10389229Y-17016460D01*
X10389229Y-17016460D02*
X10370182Y-17025984D01*
X10370182Y-17025984D02*
X10351134Y-17025984D01*
X10351134Y-17025984D02*
X10332087Y-17016460D01*
X10332087Y-17016460D02*
X10322563Y-17006936D01*
X10322563Y-17006936D02*
X10313039Y-16987889D01*
X10313039Y-16987889D02*
X10303515Y-16949793D01*
X10303515Y-16949793D02*
X10303515Y-16902174D01*
X10303515Y-16902174D02*
X10313039Y-16864079D01*
X10313039Y-16864079D02*
X10322563Y-16845031D01*
X10322563Y-16845031D02*
X10332087Y-16835508D01*
X10332087Y-16835508D02*
X10351134Y-16825984D01*
X10503515Y-17006936D02*
X10513039Y-17016460D01*
X10513039Y-17016460D02*
X10503515Y-17025984D01*
X10503515Y-17025984D02*
X10493991Y-17016460D01*
X10493991Y-17016460D02*
X10503515Y-17006936D01*
X10503515Y-17006936D02*
X10503515Y-17025984D01*
X10636848Y-16825984D02*
X10655896Y-16825984D01*
X10655896Y-16825984D02*
X10674944Y-16835508D01*
X10674944Y-16835508D02*
X10684468Y-16845031D01*
X10684468Y-16845031D02*
X10693991Y-16864079D01*
X10693991Y-16864079D02*
X10703515Y-16902174D01*
X10703515Y-16902174D02*
X10703515Y-16949793D01*
X10703515Y-16949793D02*
X10693991Y-16987889D01*
X10693991Y-16987889D02*
X10684468Y-17006936D01*
X10684468Y-17006936D02*
X10674944Y-17016460D01*
X10674944Y-17016460D02*
X10655896Y-17025984D01*
X10655896Y-17025984D02*
X10636848Y-17025984D01*
X10636848Y-17025984D02*
X10617801Y-17016460D01*
X10617801Y-17016460D02*
X10608277Y-17006936D01*
X10608277Y-17006936D02*
X10598753Y-16987889D01*
X10598753Y-16987889D02*
X10589229Y-16949793D01*
X10589229Y-16949793D02*
X10589229Y-16902174D01*
X10589229Y-16902174D02*
X10598753Y-16864079D01*
X10598753Y-16864079D02*
X10608277Y-16845031D01*
X10608277Y-16845031D02*
X10617801Y-16835508D01*
X10617801Y-16835508D02*
X10636848Y-16825984D01*
X10770182Y-16825984D02*
X10893991Y-16825984D01*
X10893991Y-16825984D02*
X10827325Y-16902174D01*
X10827325Y-16902174D02*
X10855896Y-16902174D01*
X10855896Y-16902174D02*
X10874944Y-16911698D01*
X10874944Y-16911698D02*
X10884468Y-16921222D01*
X10884468Y-16921222D02*
X10893991Y-16940270D01*
X10893991Y-16940270D02*
X10893991Y-16987889D01*
X10893991Y-16987889D02*
X10884468Y-17006936D01*
X10884468Y-17006936D02*
X10874944Y-17016460D01*
X10874944Y-17016460D02*
X10855896Y-17025984D01*
X10855896Y-17025984D02*
X10798753Y-17025984D01*
X10798753Y-17025984D02*
X10779706Y-17016460D01*
X10779706Y-17016460D02*
X10770182Y-17006936D01*
X10989229Y-17025984D02*
X11027325Y-17025984D01*
X11027325Y-17025984D02*
X11046372Y-17016460D01*
X11046372Y-17016460D02*
X11055896Y-17006936D01*
X11055896Y-17006936D02*
X11074944Y-16978365D01*
X11074944Y-16978365D02*
X11084468Y-16940270D01*
X11084468Y-16940270D02*
X11084468Y-16864079D01*
X11084468Y-16864079D02*
X11074944Y-16845031D01*
X11074944Y-16845031D02*
X11065420Y-16835508D01*
X11065420Y-16835508D02*
X11046372Y-16825984D01*
X11046372Y-16825984D02*
X11008277Y-16825984D01*
X11008277Y-16825984D02*
X10989229Y-16835508D01*
X10989229Y-16835508D02*
X10979706Y-16845031D01*
X10979706Y-16845031D02*
X10970182Y-16864079D01*
X10970182Y-16864079D02*
X10970182Y-16911698D01*
X10970182Y-16911698D02*
X10979706Y-16930746D01*
X10979706Y-16930746D02*
X10989229Y-16940270D01*
X10989229Y-16940270D02*
X11008277Y-16949793D01*
X11008277Y-16949793D02*
X11046372Y-16949793D01*
X11046372Y-16949793D02*
X11065420Y-16940270D01*
X11065420Y-16940270D02*
X11074944Y-16930746D01*
X11074944Y-16930746D02*
X11084468Y-16911698D01*
X11255896Y-16892650D02*
X11255896Y-17025984D01*
X11208277Y-16816460D02*
X11160658Y-16959317D01*
X11160658Y-16959317D02*
X11284467Y-16959317D01*
X11351134Y-16825984D02*
X11351134Y-16864079D01*
X11427325Y-16825984D02*
X11427325Y-16864079D01*
X11722563Y-17102174D02*
X11713039Y-17092650D01*
X11713039Y-17092650D02*
X11693991Y-17064079D01*
X11693991Y-17064079D02*
X11684468Y-17045031D01*
X11684468Y-17045031D02*
X11674944Y-17016460D01*
X11674944Y-17016460D02*
X11665420Y-16968841D01*
X11665420Y-16968841D02*
X11665420Y-16930746D01*
X11665420Y-16930746D02*
X11674944Y-16883127D01*
X11674944Y-16883127D02*
X11684468Y-16854555D01*
X11684468Y-16854555D02*
X11693991Y-16835508D01*
X11693991Y-16835508D02*
X11713039Y-16806936D01*
X11713039Y-16806936D02*
X11722563Y-16797412D01*
X11884468Y-16825984D02*
X11846372Y-16825984D01*
X11846372Y-16825984D02*
X11827325Y-16835508D01*
X11827325Y-16835508D02*
X11817801Y-16845031D01*
X11817801Y-16845031D02*
X11798753Y-16873603D01*
X11798753Y-16873603D02*
X11789229Y-16911698D01*
X11789229Y-16911698D02*
X11789229Y-16987889D01*
X11789229Y-16987889D02*
X11798753Y-17006936D01*
X11798753Y-17006936D02*
X11808277Y-17016460D01*
X11808277Y-17016460D02*
X11827325Y-17025984D01*
X11827325Y-17025984D02*
X11865420Y-17025984D01*
X11865420Y-17025984D02*
X11884468Y-17016460D01*
X11884468Y-17016460D02*
X11893991Y-17006936D01*
X11893991Y-17006936D02*
X11903515Y-16987889D01*
X11903515Y-16987889D02*
X11903515Y-16940270D01*
X11903515Y-16940270D02*
X11893991Y-16921222D01*
X11893991Y-16921222D02*
X11884468Y-16911698D01*
X11884468Y-16911698D02*
X11865420Y-16902174D01*
X11865420Y-16902174D02*
X11827325Y-16902174D01*
X11827325Y-16902174D02*
X11808277Y-16911698D01*
X11808277Y-16911698D02*
X11798753Y-16921222D01*
X11798753Y-16921222D02*
X11789229Y-16940270D01*
X12074944Y-16892650D02*
X12074944Y-17025984D01*
X12027325Y-16816460D02*
X11979706Y-16959317D01*
X11979706Y-16959317D02*
X12103515Y-16959317D01*
X12332087Y-17025984D02*
X12332087Y-16825984D01*
X12417801Y-17025984D02*
X12417801Y-16921222D01*
X12417801Y-16921222D02*
X12408277Y-16902174D01*
X12408277Y-16902174D02*
X12389230Y-16892650D01*
X12389230Y-16892650D02*
X12360658Y-16892650D01*
X12360658Y-16892650D02*
X12341610Y-16902174D01*
X12341610Y-16902174D02*
X12332087Y-16911698D01*
X12541610Y-17025984D02*
X12522563Y-17016460D01*
X12522563Y-17016460D02*
X12513039Y-17006936D01*
X12513039Y-17006936D02*
X12503515Y-16987889D01*
X12503515Y-16987889D02*
X12503515Y-16930746D01*
X12503515Y-16930746D02*
X12513039Y-16911698D01*
X12513039Y-16911698D02*
X12522563Y-16902174D01*
X12522563Y-16902174D02*
X12541610Y-16892650D01*
X12541610Y-16892650D02*
X12570182Y-16892650D01*
X12570182Y-16892650D02*
X12589230Y-16902174D01*
X12589230Y-16902174D02*
X12598753Y-16911698D01*
X12598753Y-16911698D02*
X12608277Y-16930746D01*
X12608277Y-16930746D02*
X12608277Y-16987889D01*
X12608277Y-16987889D02*
X12598753Y-17006936D01*
X12598753Y-17006936D02*
X12589230Y-17016460D01*
X12589230Y-17016460D02*
X12570182Y-17025984D01*
X12570182Y-17025984D02*
X12541610Y-17025984D01*
X12722563Y-17025984D02*
X12703515Y-17016460D01*
X12703515Y-17016460D02*
X12693991Y-16997412D01*
X12693991Y-16997412D02*
X12693991Y-16825984D01*
X12874944Y-17016460D02*
X12855896Y-17025984D01*
X12855896Y-17025984D02*
X12817801Y-17025984D01*
X12817801Y-17025984D02*
X12798753Y-17016460D01*
X12798753Y-17016460D02*
X12789230Y-16997412D01*
X12789230Y-16997412D02*
X12789230Y-16921222D01*
X12789230Y-16921222D02*
X12798753Y-16902174D01*
X12798753Y-16902174D02*
X12817801Y-16892650D01*
X12817801Y-16892650D02*
X12855896Y-16892650D01*
X12855896Y-16892650D02*
X12874944Y-16902174D01*
X12874944Y-16902174D02*
X12884468Y-16921222D01*
X12884468Y-16921222D02*
X12884468Y-16940270D01*
X12884468Y-16940270D02*
X12789230Y-16959317D01*
X12960658Y-17016460D02*
X12979706Y-17025984D01*
X12979706Y-17025984D02*
X13017801Y-17025984D01*
X13017801Y-17025984D02*
X13036849Y-17016460D01*
X13036849Y-17016460D02*
X13046372Y-16997412D01*
X13046372Y-16997412D02*
X13046372Y-16987889D01*
X13046372Y-16987889D02*
X13036849Y-16968841D01*
X13036849Y-16968841D02*
X13017801Y-16959317D01*
X13017801Y-16959317D02*
X12989230Y-16959317D01*
X12989230Y-16959317D02*
X12970182Y-16949793D01*
X12970182Y-16949793D02*
X12960658Y-16930746D01*
X12960658Y-16930746D02*
X12960658Y-16921222D01*
X12960658Y-16921222D02*
X12970182Y-16902174D01*
X12970182Y-16902174D02*
X12989230Y-16892650D01*
X12989230Y-16892650D02*
X13017801Y-16892650D01*
X13017801Y-16892650D02*
X13036849Y-16902174D01*
X13113039Y-17102174D02*
X13122563Y-17092650D01*
X13122563Y-17092650D02*
X13141611Y-17064079D01*
X13141611Y-17064079D02*
X13151134Y-17045031D01*
X13151134Y-17045031D02*
X13160658Y-17016460D01*
X13160658Y-17016460D02*
X13170182Y-16968841D01*
X13170182Y-16968841D02*
X13170182Y-16930746D01*
X13170182Y-16930746D02*
X13160658Y-16883127D01*
X13160658Y-16883127D02*
X13151134Y-16854555D01*
X13151134Y-16854555D02*
X13141611Y-16835508D01*
X13141611Y-16835508D02*
X13122563Y-16806936D01*
X13122563Y-16806936D02*
X13113039Y-16797412D01*
M02*
