%TF.GenerationSoftware,KiCad,Pcbnew,9.0.7*%
%TF.CreationDate,2026-03-05T20:10:06+01:00*%
%TF.ProjectId,X4CMoscatel,5834434d-6f73-4636-9174-656c2e6b6963,rev?*%
%TF.SameCoordinates,Original*%
%TF.FileFunction,Drillmap*%
%TF.FilePolarity,Positive*%
%FSLAX45Y45*%
G04 Gerber Fmt 4.5, Leading zero omitted, Abs format (unit mm)*
G04 Created by KiCad (PCBNEW 9.0.7) date 2026-03-05 20:10:06*
%MOMM*%
%LPD*%
G01*
G04 APERTURE LIST*
%ADD10C,0.050000*%
%ADD11C,0.200000*%
%ADD12C,0.320000*%
G04 APERTURE END LIST*
D10*
X8150000Y-8250000D02*
X8150000Y-15250000D01*
X8400000Y-15500000D02*
X13900000Y-15500000D01*
X13900000Y-8000000D02*
X8400000Y-8000000D01*
X14150000Y-15250000D02*
X14150000Y-8250000D01*
X8400000Y-15500000D02*
G75*
G02*
X8150000Y-15250000I0J250000D01*
G01*
X14150000Y-15250000D02*
G75*
G02*
X13900000Y-15500000I-250000J0D01*
G01*
X8150000Y-8250000D02*
G75*
G02*
X8400000Y-8000000I250000J0D01*
G01*
X13900000Y-8000000D02*
G75*
G02*
X14150000Y-8250000I0J-250000D01*
G01*
D11*
D12*
X8390000Y-8240000D02*
X8710000Y-8560000D01*
X8710000Y-8240000D02*
X8390000Y-8560000D01*
X8390000Y-14940000D02*
X8710000Y-15260000D01*
X8710000Y-14940000D02*
X8390000Y-15260000D01*
X13590000Y-8240000D02*
X13910000Y-8560000D01*
X13910000Y-8240000D02*
X13590000Y-8560000D01*
X13590000Y-14940000D02*
X13910000Y-15260000D01*
X13910000Y-14940000D02*
X13590000Y-15260000D01*
D11*
X8408277Y-15813984D02*
X8408277Y-15613984D01*
X8408277Y-15613984D02*
X8455896Y-15613984D01*
X8455896Y-15613984D02*
X8484467Y-15623508D01*
X8484467Y-15623508D02*
X8503515Y-15642555D01*
X8503515Y-15642555D02*
X8513039Y-15661603D01*
X8513039Y-15661603D02*
X8522563Y-15699698D01*
X8522563Y-15699698D02*
X8522563Y-15728269D01*
X8522563Y-15728269D02*
X8513039Y-15766365D01*
X8513039Y-15766365D02*
X8503515Y-15785412D01*
X8503515Y-15785412D02*
X8484467Y-15804460D01*
X8484467Y-15804460D02*
X8455896Y-15813984D01*
X8455896Y-15813984D02*
X8408277Y-15813984D01*
X8608277Y-15813984D02*
X8608277Y-15680650D01*
X8608277Y-15718746D02*
X8617801Y-15699698D01*
X8617801Y-15699698D02*
X8627324Y-15690174D01*
X8627324Y-15690174D02*
X8646372Y-15680650D01*
X8646372Y-15680650D02*
X8665420Y-15680650D01*
X8732086Y-15813984D02*
X8732086Y-15680650D01*
X8732086Y-15613984D02*
X8722563Y-15623508D01*
X8722563Y-15623508D02*
X8732086Y-15633031D01*
X8732086Y-15633031D02*
X8741610Y-15623508D01*
X8741610Y-15623508D02*
X8732086Y-15613984D01*
X8732086Y-15613984D02*
X8732086Y-15633031D01*
X8855896Y-15813984D02*
X8836848Y-15804460D01*
X8836848Y-15804460D02*
X8827324Y-15785412D01*
X8827324Y-15785412D02*
X8827324Y-15613984D01*
X8960658Y-15813984D02*
X8941610Y-15804460D01*
X8941610Y-15804460D02*
X8932086Y-15785412D01*
X8932086Y-15785412D02*
X8932086Y-15613984D01*
X9189229Y-15813984D02*
X9189229Y-15613984D01*
X9189229Y-15613984D02*
X9255896Y-15756841D01*
X9255896Y-15756841D02*
X9322563Y-15613984D01*
X9322563Y-15613984D02*
X9322563Y-15813984D01*
X9503515Y-15813984D02*
X9503515Y-15709222D01*
X9503515Y-15709222D02*
X9493991Y-15690174D01*
X9493991Y-15690174D02*
X9474944Y-15680650D01*
X9474944Y-15680650D02*
X9436848Y-15680650D01*
X9436848Y-15680650D02*
X9417801Y-15690174D01*
X9503515Y-15804460D02*
X9484467Y-15813984D01*
X9484467Y-15813984D02*
X9436848Y-15813984D01*
X9436848Y-15813984D02*
X9417801Y-15804460D01*
X9417801Y-15804460D02*
X9408277Y-15785412D01*
X9408277Y-15785412D02*
X9408277Y-15766365D01*
X9408277Y-15766365D02*
X9417801Y-15747317D01*
X9417801Y-15747317D02*
X9436848Y-15737793D01*
X9436848Y-15737793D02*
X9484467Y-15737793D01*
X9484467Y-15737793D02*
X9503515Y-15728269D01*
X9598753Y-15680650D02*
X9598753Y-15880650D01*
X9598753Y-15690174D02*
X9617801Y-15680650D01*
X9617801Y-15680650D02*
X9655896Y-15680650D01*
X9655896Y-15680650D02*
X9674944Y-15690174D01*
X9674944Y-15690174D02*
X9684467Y-15699698D01*
X9684467Y-15699698D02*
X9693991Y-15718746D01*
X9693991Y-15718746D02*
X9693991Y-15775888D01*
X9693991Y-15775888D02*
X9684467Y-15794936D01*
X9684467Y-15794936D02*
X9674944Y-15804460D01*
X9674944Y-15804460D02*
X9655896Y-15813984D01*
X9655896Y-15813984D02*
X9617801Y-15813984D01*
X9617801Y-15813984D02*
X9598753Y-15804460D01*
X9779705Y-15794936D02*
X9789229Y-15804460D01*
X9789229Y-15804460D02*
X9779705Y-15813984D01*
X9779705Y-15813984D02*
X9770182Y-15804460D01*
X9770182Y-15804460D02*
X9779705Y-15794936D01*
X9779705Y-15794936D02*
X9779705Y-15813984D01*
X9779705Y-15690174D02*
X9789229Y-15699698D01*
X9789229Y-15699698D02*
X9779705Y-15709222D01*
X9779705Y-15709222D02*
X9770182Y-15699698D01*
X9770182Y-15699698D02*
X9779705Y-15690174D01*
X9779705Y-15690174D02*
X9779705Y-15709222D01*
X7947500Y-16042500D02*
X8147500Y-16242500D01*
X8147500Y-16042500D02*
X7947500Y-16242500D01*
X8389229Y-16033984D02*
X8513039Y-16033984D01*
X8513039Y-16033984D02*
X8446372Y-16110174D01*
X8446372Y-16110174D02*
X8474944Y-16110174D01*
X8474944Y-16110174D02*
X8493991Y-16119698D01*
X8493991Y-16119698D02*
X8503515Y-16129222D01*
X8503515Y-16129222D02*
X8513039Y-16148269D01*
X8513039Y-16148269D02*
X8513039Y-16195888D01*
X8513039Y-16195888D02*
X8503515Y-16214936D01*
X8503515Y-16214936D02*
X8493991Y-16224460D01*
X8493991Y-16224460D02*
X8474944Y-16233984D01*
X8474944Y-16233984D02*
X8417801Y-16233984D01*
X8417801Y-16233984D02*
X8398753Y-16224460D01*
X8398753Y-16224460D02*
X8389229Y-16214936D01*
X8598753Y-16214936D02*
X8608277Y-16224460D01*
X8608277Y-16224460D02*
X8598753Y-16233984D01*
X8598753Y-16233984D02*
X8589229Y-16224460D01*
X8589229Y-16224460D02*
X8598753Y-16214936D01*
X8598753Y-16214936D02*
X8598753Y-16233984D01*
X8684467Y-16053031D02*
X8693991Y-16043508D01*
X8693991Y-16043508D02*
X8713039Y-16033984D01*
X8713039Y-16033984D02*
X8760658Y-16033984D01*
X8760658Y-16033984D02*
X8779705Y-16043508D01*
X8779705Y-16043508D02*
X8789229Y-16053031D01*
X8789229Y-16053031D02*
X8798753Y-16072079D01*
X8798753Y-16072079D02*
X8798753Y-16091127D01*
X8798753Y-16091127D02*
X8789229Y-16119698D01*
X8789229Y-16119698D02*
X8674944Y-16233984D01*
X8674944Y-16233984D02*
X8798753Y-16233984D01*
X8922563Y-16033984D02*
X8941610Y-16033984D01*
X8941610Y-16033984D02*
X8960658Y-16043508D01*
X8960658Y-16043508D02*
X8970182Y-16053031D01*
X8970182Y-16053031D02*
X8979705Y-16072079D01*
X8979705Y-16072079D02*
X8989229Y-16110174D01*
X8989229Y-16110174D02*
X8989229Y-16157793D01*
X8989229Y-16157793D02*
X8979705Y-16195888D01*
X8979705Y-16195888D02*
X8970182Y-16214936D01*
X8970182Y-16214936D02*
X8960658Y-16224460D01*
X8960658Y-16224460D02*
X8941610Y-16233984D01*
X8941610Y-16233984D02*
X8922563Y-16233984D01*
X8922563Y-16233984D02*
X8903515Y-16224460D01*
X8903515Y-16224460D02*
X8893991Y-16214936D01*
X8893991Y-16214936D02*
X8884467Y-16195888D01*
X8884467Y-16195888D02*
X8874944Y-16157793D01*
X8874944Y-16157793D02*
X8874944Y-16110174D01*
X8874944Y-16110174D02*
X8884467Y-16072079D01*
X8884467Y-16072079D02*
X8893991Y-16053031D01*
X8893991Y-16053031D02*
X8903515Y-16043508D01*
X8903515Y-16043508D02*
X8922563Y-16033984D01*
X9113039Y-16033984D02*
X9132086Y-16033984D01*
X9132086Y-16033984D02*
X9151134Y-16043508D01*
X9151134Y-16043508D02*
X9160658Y-16053031D01*
X9160658Y-16053031D02*
X9170182Y-16072079D01*
X9170182Y-16072079D02*
X9179705Y-16110174D01*
X9179705Y-16110174D02*
X9179705Y-16157793D01*
X9179705Y-16157793D02*
X9170182Y-16195888D01*
X9170182Y-16195888D02*
X9160658Y-16214936D01*
X9160658Y-16214936D02*
X9151134Y-16224460D01*
X9151134Y-16224460D02*
X9132086Y-16233984D01*
X9132086Y-16233984D02*
X9113039Y-16233984D01*
X9113039Y-16233984D02*
X9093991Y-16224460D01*
X9093991Y-16224460D02*
X9084467Y-16214936D01*
X9084467Y-16214936D02*
X9074944Y-16195888D01*
X9074944Y-16195888D02*
X9065420Y-16157793D01*
X9065420Y-16157793D02*
X9065420Y-16110174D01*
X9065420Y-16110174D02*
X9074944Y-16072079D01*
X9074944Y-16072079D02*
X9084467Y-16053031D01*
X9084467Y-16053031D02*
X9093991Y-16043508D01*
X9093991Y-16043508D02*
X9113039Y-16033984D01*
X9265420Y-16233984D02*
X9265420Y-16100650D01*
X9265420Y-16119698D02*
X9274944Y-16110174D01*
X9274944Y-16110174D02*
X9293991Y-16100650D01*
X9293991Y-16100650D02*
X9322563Y-16100650D01*
X9322563Y-16100650D02*
X9341610Y-16110174D01*
X9341610Y-16110174D02*
X9351134Y-16129222D01*
X9351134Y-16129222D02*
X9351134Y-16233984D01*
X9351134Y-16129222D02*
X9360658Y-16110174D01*
X9360658Y-16110174D02*
X9379705Y-16100650D01*
X9379705Y-16100650D02*
X9408277Y-16100650D01*
X9408277Y-16100650D02*
X9427325Y-16110174D01*
X9427325Y-16110174D02*
X9436848Y-16129222D01*
X9436848Y-16129222D02*
X9436848Y-16233984D01*
X9532086Y-16233984D02*
X9532086Y-16100650D01*
X9532086Y-16119698D02*
X9541610Y-16110174D01*
X9541610Y-16110174D02*
X9560658Y-16100650D01*
X9560658Y-16100650D02*
X9589229Y-16100650D01*
X9589229Y-16100650D02*
X9608277Y-16110174D01*
X9608277Y-16110174D02*
X9617801Y-16129222D01*
X9617801Y-16129222D02*
X9617801Y-16233984D01*
X9617801Y-16129222D02*
X9627325Y-16110174D01*
X9627325Y-16110174D02*
X9646372Y-16100650D01*
X9646372Y-16100650D02*
X9674944Y-16100650D01*
X9674944Y-16100650D02*
X9693991Y-16110174D01*
X9693991Y-16110174D02*
X9703515Y-16129222D01*
X9703515Y-16129222D02*
X9703515Y-16233984D01*
X10093991Y-16024460D02*
X9922563Y-16281603D01*
X10351134Y-16033984D02*
X10370182Y-16033984D01*
X10370182Y-16033984D02*
X10389229Y-16043508D01*
X10389229Y-16043508D02*
X10398753Y-16053031D01*
X10398753Y-16053031D02*
X10408277Y-16072079D01*
X10408277Y-16072079D02*
X10417801Y-16110174D01*
X10417801Y-16110174D02*
X10417801Y-16157793D01*
X10417801Y-16157793D02*
X10408277Y-16195888D01*
X10408277Y-16195888D02*
X10398753Y-16214936D01*
X10398753Y-16214936D02*
X10389229Y-16224460D01*
X10389229Y-16224460D02*
X10370182Y-16233984D01*
X10370182Y-16233984D02*
X10351134Y-16233984D01*
X10351134Y-16233984D02*
X10332087Y-16224460D01*
X10332087Y-16224460D02*
X10322563Y-16214936D01*
X10322563Y-16214936D02*
X10313039Y-16195888D01*
X10313039Y-16195888D02*
X10303515Y-16157793D01*
X10303515Y-16157793D02*
X10303515Y-16110174D01*
X10303515Y-16110174D02*
X10313039Y-16072079D01*
X10313039Y-16072079D02*
X10322563Y-16053031D01*
X10322563Y-16053031D02*
X10332087Y-16043508D01*
X10332087Y-16043508D02*
X10351134Y-16033984D01*
X10503515Y-16214936D02*
X10513039Y-16224460D01*
X10513039Y-16224460D02*
X10503515Y-16233984D01*
X10503515Y-16233984D02*
X10493991Y-16224460D01*
X10493991Y-16224460D02*
X10503515Y-16214936D01*
X10503515Y-16214936D02*
X10503515Y-16233984D01*
X10703515Y-16233984D02*
X10589229Y-16233984D01*
X10646372Y-16233984D02*
X10646372Y-16033984D01*
X10646372Y-16033984D02*
X10627325Y-16062555D01*
X10627325Y-16062555D02*
X10608277Y-16081603D01*
X10608277Y-16081603D02*
X10589229Y-16091127D01*
X10779706Y-16053031D02*
X10789229Y-16043508D01*
X10789229Y-16043508D02*
X10808277Y-16033984D01*
X10808277Y-16033984D02*
X10855896Y-16033984D01*
X10855896Y-16033984D02*
X10874944Y-16043508D01*
X10874944Y-16043508D02*
X10884468Y-16053031D01*
X10884468Y-16053031D02*
X10893991Y-16072079D01*
X10893991Y-16072079D02*
X10893991Y-16091127D01*
X10893991Y-16091127D02*
X10884468Y-16119698D01*
X10884468Y-16119698D02*
X10770182Y-16233984D01*
X10770182Y-16233984D02*
X10893991Y-16233984D01*
X11065420Y-16033984D02*
X11027325Y-16033984D01*
X11027325Y-16033984D02*
X11008277Y-16043508D01*
X11008277Y-16043508D02*
X10998753Y-16053031D01*
X10998753Y-16053031D02*
X10979706Y-16081603D01*
X10979706Y-16081603D02*
X10970182Y-16119698D01*
X10970182Y-16119698D02*
X10970182Y-16195888D01*
X10970182Y-16195888D02*
X10979706Y-16214936D01*
X10979706Y-16214936D02*
X10989229Y-16224460D01*
X10989229Y-16224460D02*
X11008277Y-16233984D01*
X11008277Y-16233984D02*
X11046372Y-16233984D01*
X11046372Y-16233984D02*
X11065420Y-16224460D01*
X11065420Y-16224460D02*
X11074944Y-16214936D01*
X11074944Y-16214936D02*
X11084468Y-16195888D01*
X11084468Y-16195888D02*
X11084468Y-16148269D01*
X11084468Y-16148269D02*
X11074944Y-16129222D01*
X11074944Y-16129222D02*
X11065420Y-16119698D01*
X11065420Y-16119698D02*
X11046372Y-16110174D01*
X11046372Y-16110174D02*
X11008277Y-16110174D01*
X11008277Y-16110174D02*
X10989229Y-16119698D01*
X10989229Y-16119698D02*
X10979706Y-16129222D01*
X10979706Y-16129222D02*
X10970182Y-16148269D01*
X11208277Y-16033984D02*
X11227325Y-16033984D01*
X11227325Y-16033984D02*
X11246372Y-16043508D01*
X11246372Y-16043508D02*
X11255896Y-16053031D01*
X11255896Y-16053031D02*
X11265420Y-16072079D01*
X11265420Y-16072079D02*
X11274944Y-16110174D01*
X11274944Y-16110174D02*
X11274944Y-16157793D01*
X11274944Y-16157793D02*
X11265420Y-16195888D01*
X11265420Y-16195888D02*
X11255896Y-16214936D01*
X11255896Y-16214936D02*
X11246372Y-16224460D01*
X11246372Y-16224460D02*
X11227325Y-16233984D01*
X11227325Y-16233984D02*
X11208277Y-16233984D01*
X11208277Y-16233984D02*
X11189229Y-16224460D01*
X11189229Y-16224460D02*
X11179706Y-16214936D01*
X11179706Y-16214936D02*
X11170182Y-16195888D01*
X11170182Y-16195888D02*
X11160658Y-16157793D01*
X11160658Y-16157793D02*
X11160658Y-16110174D01*
X11160658Y-16110174D02*
X11170182Y-16072079D01*
X11170182Y-16072079D02*
X11179706Y-16053031D01*
X11179706Y-16053031D02*
X11189229Y-16043508D01*
X11189229Y-16043508D02*
X11208277Y-16033984D01*
X11351134Y-16033984D02*
X11351134Y-16072079D01*
X11427325Y-16033984D02*
X11427325Y-16072079D01*
X11722563Y-16310174D02*
X11713039Y-16300650D01*
X11713039Y-16300650D02*
X11693991Y-16272079D01*
X11693991Y-16272079D02*
X11684468Y-16253031D01*
X11684468Y-16253031D02*
X11674944Y-16224460D01*
X11674944Y-16224460D02*
X11665420Y-16176841D01*
X11665420Y-16176841D02*
X11665420Y-16138746D01*
X11665420Y-16138746D02*
X11674944Y-16091127D01*
X11674944Y-16091127D02*
X11684468Y-16062555D01*
X11684468Y-16062555D02*
X11693991Y-16043508D01*
X11693991Y-16043508D02*
X11713039Y-16014936D01*
X11713039Y-16014936D02*
X11722563Y-16005412D01*
X11884468Y-16100650D02*
X11884468Y-16233984D01*
X11836848Y-16024460D02*
X11789229Y-16167317D01*
X11789229Y-16167317D02*
X11913039Y-16167317D01*
X12141610Y-16233984D02*
X12141610Y-16033984D01*
X12227325Y-16233984D02*
X12227325Y-16129222D01*
X12227325Y-16129222D02*
X12217801Y-16110174D01*
X12217801Y-16110174D02*
X12198753Y-16100650D01*
X12198753Y-16100650D02*
X12170182Y-16100650D01*
X12170182Y-16100650D02*
X12151134Y-16110174D01*
X12151134Y-16110174D02*
X12141610Y-16119698D01*
X12351134Y-16233984D02*
X12332087Y-16224460D01*
X12332087Y-16224460D02*
X12322563Y-16214936D01*
X12322563Y-16214936D02*
X12313039Y-16195888D01*
X12313039Y-16195888D02*
X12313039Y-16138746D01*
X12313039Y-16138746D02*
X12322563Y-16119698D01*
X12322563Y-16119698D02*
X12332087Y-16110174D01*
X12332087Y-16110174D02*
X12351134Y-16100650D01*
X12351134Y-16100650D02*
X12379706Y-16100650D01*
X12379706Y-16100650D02*
X12398753Y-16110174D01*
X12398753Y-16110174D02*
X12408277Y-16119698D01*
X12408277Y-16119698D02*
X12417801Y-16138746D01*
X12417801Y-16138746D02*
X12417801Y-16195888D01*
X12417801Y-16195888D02*
X12408277Y-16214936D01*
X12408277Y-16214936D02*
X12398753Y-16224460D01*
X12398753Y-16224460D02*
X12379706Y-16233984D01*
X12379706Y-16233984D02*
X12351134Y-16233984D01*
X12532087Y-16233984D02*
X12513039Y-16224460D01*
X12513039Y-16224460D02*
X12503515Y-16205412D01*
X12503515Y-16205412D02*
X12503515Y-16033984D01*
X12684468Y-16224460D02*
X12665420Y-16233984D01*
X12665420Y-16233984D02*
X12627325Y-16233984D01*
X12627325Y-16233984D02*
X12608277Y-16224460D01*
X12608277Y-16224460D02*
X12598753Y-16205412D01*
X12598753Y-16205412D02*
X12598753Y-16129222D01*
X12598753Y-16129222D02*
X12608277Y-16110174D01*
X12608277Y-16110174D02*
X12627325Y-16100650D01*
X12627325Y-16100650D02*
X12665420Y-16100650D01*
X12665420Y-16100650D02*
X12684468Y-16110174D01*
X12684468Y-16110174D02*
X12693991Y-16129222D01*
X12693991Y-16129222D02*
X12693991Y-16148269D01*
X12693991Y-16148269D02*
X12598753Y-16167317D01*
X12770182Y-16224460D02*
X12789230Y-16233984D01*
X12789230Y-16233984D02*
X12827325Y-16233984D01*
X12827325Y-16233984D02*
X12846372Y-16224460D01*
X12846372Y-16224460D02*
X12855896Y-16205412D01*
X12855896Y-16205412D02*
X12855896Y-16195888D01*
X12855896Y-16195888D02*
X12846372Y-16176841D01*
X12846372Y-16176841D02*
X12827325Y-16167317D01*
X12827325Y-16167317D02*
X12798753Y-16167317D01*
X12798753Y-16167317D02*
X12779706Y-16157793D01*
X12779706Y-16157793D02*
X12770182Y-16138746D01*
X12770182Y-16138746D02*
X12770182Y-16129222D01*
X12770182Y-16129222D02*
X12779706Y-16110174D01*
X12779706Y-16110174D02*
X12798753Y-16100650D01*
X12798753Y-16100650D02*
X12827325Y-16100650D01*
X12827325Y-16100650D02*
X12846372Y-16110174D01*
X12922563Y-16310174D02*
X12932087Y-16300650D01*
X12932087Y-16300650D02*
X12951134Y-16272079D01*
X12951134Y-16272079D02*
X12960658Y-16253031D01*
X12960658Y-16253031D02*
X12970182Y-16224460D01*
X12970182Y-16224460D02*
X12979706Y-16176841D01*
X12979706Y-16176841D02*
X12979706Y-16138746D01*
X12979706Y-16138746D02*
X12970182Y-16091127D01*
X12970182Y-16091127D02*
X12960658Y-16062555D01*
X12960658Y-16062555D02*
X12951134Y-16043508D01*
X12951134Y-16043508D02*
X12932087Y-16014936D01*
X12932087Y-16014936D02*
X12922563Y-16005412D01*
X13284468Y-16310174D02*
X13274944Y-16300650D01*
X13274944Y-16300650D02*
X13255896Y-16272079D01*
X13255896Y-16272079D02*
X13246372Y-16253031D01*
X13246372Y-16253031D02*
X13236849Y-16224460D01*
X13236849Y-16224460D02*
X13227325Y-16176841D01*
X13227325Y-16176841D02*
X13227325Y-16138746D01*
X13227325Y-16138746D02*
X13236849Y-16091127D01*
X13236849Y-16091127D02*
X13246372Y-16062555D01*
X13246372Y-16062555D02*
X13255896Y-16043508D01*
X13255896Y-16043508D02*
X13274944Y-16014936D01*
X13274944Y-16014936D02*
X13284468Y-16005412D01*
X13360658Y-16100650D02*
X13360658Y-16233984D01*
X13360658Y-16119698D02*
X13370182Y-16110174D01*
X13370182Y-16110174D02*
X13389230Y-16100650D01*
X13389230Y-16100650D02*
X13417801Y-16100650D01*
X13417801Y-16100650D02*
X13436849Y-16110174D01*
X13436849Y-16110174D02*
X13446372Y-16129222D01*
X13446372Y-16129222D02*
X13446372Y-16233984D01*
X13570182Y-16233984D02*
X13551134Y-16224460D01*
X13551134Y-16224460D02*
X13541611Y-16214936D01*
X13541611Y-16214936D02*
X13532087Y-16195888D01*
X13532087Y-16195888D02*
X13532087Y-16138746D01*
X13532087Y-16138746D02*
X13541611Y-16119698D01*
X13541611Y-16119698D02*
X13551134Y-16110174D01*
X13551134Y-16110174D02*
X13570182Y-16100650D01*
X13570182Y-16100650D02*
X13598753Y-16100650D01*
X13598753Y-16100650D02*
X13617801Y-16110174D01*
X13617801Y-16110174D02*
X13627325Y-16119698D01*
X13627325Y-16119698D02*
X13636849Y-16138746D01*
X13636849Y-16138746D02*
X13636849Y-16195888D01*
X13636849Y-16195888D02*
X13627325Y-16214936D01*
X13627325Y-16214936D02*
X13617801Y-16224460D01*
X13617801Y-16224460D02*
X13598753Y-16233984D01*
X13598753Y-16233984D02*
X13570182Y-16233984D01*
X13693992Y-16100650D02*
X13770182Y-16100650D01*
X13722563Y-16033984D02*
X13722563Y-16205412D01*
X13722563Y-16205412D02*
X13732087Y-16224460D01*
X13732087Y-16224460D02*
X13751134Y-16233984D01*
X13751134Y-16233984D02*
X13770182Y-16233984D01*
X13989230Y-16100650D02*
X13989230Y-16300650D01*
X13989230Y-16110174D02*
X14008277Y-16100650D01*
X14008277Y-16100650D02*
X14046373Y-16100650D01*
X14046373Y-16100650D02*
X14065420Y-16110174D01*
X14065420Y-16110174D02*
X14074944Y-16119698D01*
X14074944Y-16119698D02*
X14084468Y-16138746D01*
X14084468Y-16138746D02*
X14084468Y-16195888D01*
X14084468Y-16195888D02*
X14074944Y-16214936D01*
X14074944Y-16214936D02*
X14065420Y-16224460D01*
X14065420Y-16224460D02*
X14046373Y-16233984D01*
X14046373Y-16233984D02*
X14008277Y-16233984D01*
X14008277Y-16233984D02*
X13989230Y-16224460D01*
X14198753Y-16233984D02*
X14179706Y-16224460D01*
X14179706Y-16224460D02*
X14170182Y-16205412D01*
X14170182Y-16205412D02*
X14170182Y-16033984D01*
X14360658Y-16233984D02*
X14360658Y-16129222D01*
X14360658Y-16129222D02*
X14351134Y-16110174D01*
X14351134Y-16110174D02*
X14332087Y-16100650D01*
X14332087Y-16100650D02*
X14293992Y-16100650D01*
X14293992Y-16100650D02*
X14274944Y-16110174D01*
X14360658Y-16224460D02*
X14341611Y-16233984D01*
X14341611Y-16233984D02*
X14293992Y-16233984D01*
X14293992Y-16233984D02*
X14274944Y-16224460D01*
X14274944Y-16224460D02*
X14265420Y-16205412D01*
X14265420Y-16205412D02*
X14265420Y-16186365D01*
X14265420Y-16186365D02*
X14274944Y-16167317D01*
X14274944Y-16167317D02*
X14293992Y-16157793D01*
X14293992Y-16157793D02*
X14341611Y-16157793D01*
X14341611Y-16157793D02*
X14360658Y-16148269D01*
X14427325Y-16100650D02*
X14503515Y-16100650D01*
X14455896Y-16033984D02*
X14455896Y-16205412D01*
X14455896Y-16205412D02*
X14465420Y-16224460D01*
X14465420Y-16224460D02*
X14484468Y-16233984D01*
X14484468Y-16233984D02*
X14503515Y-16233984D01*
X14646373Y-16224460D02*
X14627325Y-16233984D01*
X14627325Y-16233984D02*
X14589230Y-16233984D01*
X14589230Y-16233984D02*
X14570182Y-16224460D01*
X14570182Y-16224460D02*
X14560658Y-16205412D01*
X14560658Y-16205412D02*
X14560658Y-16129222D01*
X14560658Y-16129222D02*
X14570182Y-16110174D01*
X14570182Y-16110174D02*
X14589230Y-16100650D01*
X14589230Y-16100650D02*
X14627325Y-16100650D01*
X14627325Y-16100650D02*
X14646373Y-16110174D01*
X14646373Y-16110174D02*
X14655896Y-16129222D01*
X14655896Y-16129222D02*
X14655896Y-16148269D01*
X14655896Y-16148269D02*
X14560658Y-16167317D01*
X14827325Y-16233984D02*
X14827325Y-16033984D01*
X14827325Y-16224460D02*
X14808277Y-16233984D01*
X14808277Y-16233984D02*
X14770182Y-16233984D01*
X14770182Y-16233984D02*
X14751134Y-16224460D01*
X14751134Y-16224460D02*
X14741611Y-16214936D01*
X14741611Y-16214936D02*
X14732087Y-16195888D01*
X14732087Y-16195888D02*
X14732087Y-16138746D01*
X14732087Y-16138746D02*
X14741611Y-16119698D01*
X14741611Y-16119698D02*
X14751134Y-16110174D01*
X14751134Y-16110174D02*
X14770182Y-16100650D01*
X14770182Y-16100650D02*
X14808277Y-16100650D01*
X14808277Y-16100650D02*
X14827325Y-16110174D01*
X14903515Y-16310174D02*
X14913039Y-16300650D01*
X14913039Y-16300650D02*
X14932087Y-16272079D01*
X14932087Y-16272079D02*
X14941611Y-16253031D01*
X14941611Y-16253031D02*
X14951134Y-16224460D01*
X14951134Y-16224460D02*
X14960658Y-16176841D01*
X14960658Y-16176841D02*
X14960658Y-16138746D01*
X14960658Y-16138746D02*
X14951134Y-16091127D01*
X14951134Y-16091127D02*
X14941611Y-16062555D01*
X14941611Y-16062555D02*
X14932087Y-16043508D01*
X14932087Y-16043508D02*
X14913039Y-16014936D01*
X14913039Y-16014936D02*
X14903515Y-16005412D01*
M02*
