%TF.GenerationSoftware,KiCad,Pcbnew,9.0.7*%
%TF.CreationDate,2026-03-05T20:09:54+01:00*%
%TF.ProjectId,X4CMoscatel,5834434d-6f73-4636-9174-656c2e6b6963,rev?*%
%TF.SameCoordinates,Original*%
%TF.FileFunction,Soldermask,Top*%
%TF.FilePolarity,Negative*%
%FSLAX46Y46*%
G04 Gerber Fmt 4.6, Leading zero omitted, Abs format (unit mm)*
G04 Created by KiCad (PCBNEW 9.0.7) date 2026-03-05 20:09:54*
%MOMM*%
%LPD*%
G01*
G04 APERTURE LIST*
G04 Aperture macros list*
%AMRoundRect*
0 Rectangle with rounded corners*
0 $1 Rounding radius*
0 $2 $3 $4 $5 $6 $7 $8 $9 X,Y pos of 4 corners*
0 Add a 4 corners polygon primitive as box body*
4,1,4,$2,$3,$4,$5,$6,$7,$8,$9,$2,$3,0*
0 Add four circle primitives for the rounded corners*
1,1,$1+$1,$2,$3*
1,1,$1+$1,$4,$5*
1,1,$1+$1,$6,$7*
1,1,$1+$1,$8,$9*
0 Add four rect primitives between the rounded corners*
20,1,$1+$1,$2,$3,$4,$5,0*
20,1,$1+$1,$4,$5,$6,$7,0*
20,1,$1+$1,$6,$7,$8,$9,0*
20,1,$1+$1,$8,$9,$2,$3,0*%
G04 Aperture macros list end*
%ADD10C,1.700000*%
%ADD11R,1.700000X1.700000*%
%ADD12RoundRect,0.250000X0.475000X-0.250000X0.475000X0.250000X-0.475000X0.250000X-0.475000X-0.250000X0*%
%ADD13C,3.200000*%
%ADD14RoundRect,0.150000X0.150000X-0.587500X0.150000X0.587500X-0.150000X0.587500X-0.150000X-0.587500X0*%
%ADD15RoundRect,0.250000X-0.250000X-0.475000X0.250000X-0.475000X0.250000X0.475000X-0.250000X0.475000X0*%
%ADD16RoundRect,0.250000X-0.350000X-0.625000X0.350000X-0.625000X0.350000X0.625000X-0.350000X0.625000X0*%
%ADD17O,1.200000X1.750000*%
%ADD18RoundRect,0.250000X0.250000X0.475000X-0.250000X0.475000X-0.250000X-0.475000X0.250000X-0.475000X0*%
%ADD19RoundRect,0.250000X-0.262500X-0.450000X0.262500X-0.450000X0.262500X0.450000X-0.262500X0.450000X0*%
%ADD20R,0.850000X1.100000*%
%ADD21R,0.750000X1.100000*%
%ADD22R,1.200000X1.000000*%
%ADD23R,1.550000X1.350000*%
%ADD24R,1.900000X1.350000*%
%ADD25R,1.170000X1.800000*%
%ADD26R,0.300000X0.750000*%
%ADD27R,1.450000X1.750000*%
%ADD28RoundRect,0.250000X0.450000X-0.262500X0.450000X0.262500X-0.450000X0.262500X-0.450000X-0.262500X0*%
G04 APERTURE END LIST*
D10*
%TO.C,J3*%
X100000000Y-135890000D03*
X100000000Y-133350000D03*
X100000000Y-130810000D03*
X100000000Y-128270000D03*
X100000000Y-125730000D03*
X100000000Y-123190000D03*
X100000000Y-120650000D03*
X100000000Y-118110000D03*
X100000000Y-115570000D03*
X100000000Y-113030000D03*
X100000000Y-110490000D03*
X100000000Y-107950000D03*
X100000000Y-105410000D03*
X100000000Y-102870000D03*
X100000000Y-100330000D03*
X100000000Y-97790000D03*
X100000000Y-95250000D03*
X100000000Y-92710000D03*
X100000000Y-90170000D03*
X100000000Y-87630000D03*
X100000000Y-85090000D03*
D11*
X100000000Y-82550000D03*
%TD*%
%TO.C,J6*%
X138430000Y-117000000D03*
D10*
X138430000Y-119540000D03*
%TD*%
D12*
%TO.C,C6*%
X87180000Y-126360000D03*
X87180000Y-124460000D03*
%TD*%
D13*
%TO.C,H2*%
X137500000Y-84000000D03*
%TD*%
D14*
%TO.C,D4*%
X136850000Y-139737500D03*
X138750000Y-139737500D03*
X137800000Y-137862500D03*
%TD*%
D15*
%TO.C,C2*%
X129540000Y-146050000D03*
X131440000Y-146050000D03*
%TD*%
D16*
%TO.C,J4*%
X97500000Y-148050000D03*
D17*
X99500000Y-148050000D03*
%TD*%
D18*
%TO.C,C1*%
X134150000Y-135800000D03*
X132250000Y-135800000D03*
%TD*%
D19*
%TO.C,R10*%
X136400000Y-126600000D03*
X138225000Y-126600000D03*
%TD*%
D20*
%TO.C,J2*%
X123605000Y-152400000D03*
X122505000Y-152400000D03*
X121405000Y-152400000D03*
X120305000Y-152400000D03*
X119205000Y-152400000D03*
X118105000Y-152400000D03*
X117005000Y-152400000D03*
D21*
X115955000Y-152400000D03*
D22*
X126240000Y-146250000D03*
X126240000Y-142550000D03*
D23*
X126065000Y-152275000D03*
D24*
X122740000Y-141575000D03*
X116770000Y-141575000D03*
D25*
X114745000Y-152050000D03*
%TD*%
D11*
%TO.C,J13*%
X125400000Y-82550000D03*
D10*
X125400000Y-85090000D03*
X125400000Y-87630000D03*
X125400000Y-90170000D03*
X125400000Y-92710000D03*
X125400000Y-95250000D03*
X125400000Y-97790000D03*
X125400000Y-100330000D03*
X125400000Y-102870000D03*
X125400000Y-105410000D03*
X125400000Y-107950000D03*
X125400000Y-110490000D03*
X125400000Y-113030000D03*
X125400000Y-115570000D03*
X125400000Y-118110000D03*
X125400000Y-120650000D03*
X125400000Y-123190000D03*
X125400000Y-125730000D03*
X125400000Y-128270000D03*
X125400000Y-130810000D03*
X125400000Y-133350000D03*
X125400000Y-135890000D03*
%TD*%
D11*
%TO.C,J1*%
X83820000Y-97080000D03*
D10*
X83820000Y-94540000D03*
X83820000Y-92000000D03*
X83820000Y-89460000D03*
%TD*%
D11*
%TO.C,J12*%
X83820000Y-140280000D03*
%TD*%
D12*
%TO.C,C5*%
X134600000Y-123750000D03*
X134600000Y-121850000D03*
%TD*%
D18*
%TO.C,C4*%
X89530000Y-88900000D03*
X87630000Y-88900000D03*
%TD*%
D26*
%TO.C,U2*%
X135587500Y-130187500D03*
X135087500Y-130187500D03*
X134587500Y-130187500D03*
X134087500Y-130187500D03*
X134087500Y-133087500D03*
X134587500Y-133087500D03*
X135087500Y-133087500D03*
X135587500Y-133087500D03*
D27*
X134837500Y-131637500D03*
%TD*%
D11*
%TO.C,J9*%
X83820000Y-130780000D03*
%TD*%
D15*
%TO.C,C3*%
X129540000Y-148590000D03*
X131440000Y-148590000D03*
%TD*%
D13*
%TO.C,H3*%
X137500000Y-151000000D03*
%TD*%
D11*
%TO.C,J11*%
X83820000Y-135280000D03*
%TD*%
D13*
%TO.C,H4*%
X85500000Y-151000000D03*
%TD*%
D11*
%TO.C,J5*%
X83820000Y-127040000D03*
D10*
X83820000Y-124500000D03*
X83820000Y-121960000D03*
X83820000Y-119420000D03*
X83820000Y-116880000D03*
X83820000Y-114340000D03*
X83820000Y-111800000D03*
X83820000Y-109260000D03*
X83820000Y-106720000D03*
X83820000Y-104180000D03*
%TD*%
D28*
%TO.C,R9*%
X134600000Y-118712500D03*
X134600000Y-116887500D03*
%TD*%
D13*
%TO.C,H1*%
X85500000Y-84000000D03*
%TD*%
D11*
%TO.C,J10*%
X83820000Y-144780000D03*
%TD*%
D19*
%TO.C,R8*%
X130975000Y-126600000D03*
X132800000Y-126600000D03*
%TD*%
M02*
